<ttFont>
<head>
    <!-- Most of this table will be recalculated by the compiler -->
    <tableVersion value="1.0"/>
    <fontRevision value="0.01"/>
    <checkSumAdjustment value="0xe01fba75"/>
    <magicNumber value="0x5f0f3cf5"/>
    <flags value="00000000 00001011"/>
    <unitsPerEm value="1024"/>
    <created value="Mon Nov 25 14:59:42 2024"/>
    <modified value="Fri Dec 13 05:34:13 2024"/>
    <xMin value="-267"/>
    <yMin value="-256"/>
    <xMax value="890"/>
    <yMax value="1010"/>
    <macStyle value="00000000 00000000"/>
    <lowestRecPPEM value="8"/>
    <fontDirectionHint value="2"/>
    <indexToLocFormat value="0"/>
    <glyphDataFormat value="0"/>
  </head>
    <TTGlyph name=".notdef" xMin="-5" yMin="-27" xMax="517" yMax="827">
      <contour>
        <pt x="512" y="800" on="1"/>
        <pt x="512" y="809" on="0"/>
        <pt x="499" y="822" on="0"/>
        <pt x="490" y="822" on="1"/>
        <pt x="22" y="822" on="1"/>
        <pt x="13" y="822" on="0"/>
        <pt x="0" y="809" on="0"/>
        <pt x="0" y="800" on="1"/>
        <pt x="0" y="0" on="1"/>
        <pt x="0" y="-9" on="0"/>
        <pt x="13" y="-22" on="0"/>
        <pt x="22" y="-22" on="1"/>
        <pt x="490" y="-22" on="1"/>
        <pt x="499" y="-22" on="0"/>
        <pt x="512" y="-9" on="0"/>
        <pt x="512" y="0" on="1"/>
      </contour>
      <contour>
        <pt x="-5" y="800" on="1"/>
        <pt x="-5" y="811" on="0"/>
        <pt x="11" y="827" on="0"/>
        <pt x="22" y="827" on="1"/>
        <pt x="490" y="827" on="1"/>
        <pt x="501" y="827" on="0"/>
        <pt x="517" y="811" on="0"/>
        <pt x="517" y="800" on="1"/>
        <pt x="517" y="0" on="1"/>
        <pt x="517" y="-11" on="0"/>
        <pt x="501" y="-27" on="0"/>
        <pt x="490" y="-27" on="1"/>
        <pt x="22" y="-27" on="1"/>
        <pt x="11" y="-27" on="0"/>
        <pt x="-5" y="-11" on="0"/>
        <pt x="-5" y="0" on="1"/>
      </contour>
      <contour>
        <pt x="463" y="773" on="1"/>
        <pt x="49" y="773" on="1"/>
        <pt x="49" y="27" on="1"/>
        <pt x="463" y="27" on="1"/>
      </contour>
      <contour>
        <pt x="468" y="775" on="1"/>
        <pt x="468" y="25" on="1"/>
        <pt x="468" y="22" on="0"/>
        <pt x="465" y="22" on="1"/>
        <pt x="47" y="22" on="1"/>
        <pt x="44" y="22" on="0"/>
        <pt x="44" y="25" on="1"/>
        <pt x="44" y="775" on="1"/>
        <pt x="44" y="778" on="0"/>
        <pt x="47" y="778" on="1"/>
        <pt x="465" y="778" on="1"/>
        <pt x="468" y="778" on="0"/>
      </contour>
      <contour>
        <pt x="356" y="508" on="1"/>
        <pt x="356" y="504" on="0"/>
        <pt x="351" y="467" on="0"/>
        <pt x="336" y="422" on="0"/>
        <pt x="326" y="422" on="1"/>
        <pt x="246" y="422" on="1"/>
        <pt x="237" y="422" on="0"/>
        <pt x="224" y="409" on="0"/>
        <pt x="224" y="400" on="1"/>
        <pt x="224" y="212" on="1"/>
        <pt x="224" y="203" on="0"/>
        <pt x="237" y="190" on="0"/>
        <pt x="255" y="190" on="0"/>
        <pt x="268" y="203" on="0"/>
        <pt x="268" y="212" on="1"/>
        <pt x="268" y="375" on="1"/>
        <pt x="268" y="378" on="0"/>
        <pt x="271" y="378" on="1"/>
        <pt x="340" y="378" on="1"/>
        <pt x="368" y="378" on="0"/>
        <pt x="401" y="479" on="0"/>
        <pt x="401" y="508" on="1"/>
        <pt x="401" y="570" on="0"/>
        <pt x="317" y="660" on="0"/>
        <pt x="258" y="660" on="1"/>
        <pt x="229" y="660" on="0"/>
        <pt x="150" y="629" on="0"/>
        <pt x="150" y="604" on="1"/>
        <pt x="150" y="570" on="1"/>
        <pt x="150" y="561" on="0"/>
        <pt x="163" y="548" on="0"/>
        <pt x="181" y="548" on="0"/>
        <pt x="194" y="561" on="0"/>
        <pt x="194" y="570" on="1"/>
        <pt x="194" y="591" on="1"/>
        <pt x="194" y="601" on="0"/>
        <pt x="246" y="616" on="0"/>
        <pt x="258" y="616" on="1"/>
        <pt x="297" y="616" on="0"/>
        <pt x="356" y="550" on="0"/>
      </contour>
      <contour>
        <pt x="259" y="174" on="0"/>
        <pt x="241" y="174" on="0"/>
        <pt x="228" y="161" on="0"/>
        <pt x="228" y="152" on="1"/>
        <pt x="228" y="108" on="1"/>
        <pt x="228" y="99" on="0"/>
        <pt x="241" y="86" on="0"/>
        <pt x="259" y="86" on="0"/>
        <pt x="272" y="99" on="0"/>
        <pt x="272" y="108" on="1"/>
        <pt x="272" y="152" on="1"/>
        <pt x="272" y="161" on="0"/>
      </contour>
      <contour>
        <pt x="261" y="81" on="0"/>
        <pt x="239" y="81" on="0"/>
        <pt x="223" y="97" on="0"/>
        <pt x="223" y="108" on="1"/>
        <pt x="223" y="152" on="1"/>
        <pt x="223" y="163" on="0"/>
        <pt x="239" y="179" on="0"/>
        <pt x="261" y="179" on="0"/>
        <pt x="277" y="163" on="0"/>
        <pt x="277" y="152" on="1"/>
        <pt x="277" y="108" on="1"/>
        <pt x="277" y="97" on="0"/>
      </contour>
      <contour>
        <pt x="258" y="611" on="1"/>
        <pt x="230" y="611" on="0"/>
        <pt x="199" y="590" on="1"/>
        <pt x="199" y="570" on="1"/>
        <pt x="199" y="559" on="0"/>
        <pt x="183" y="543" on="0"/>
        <pt x="161" y="543" on="0"/>
        <pt x="145" y="559" on="0"/>
        <pt x="145" y="570" on="1"/>
        <pt x="145" y="604" on="1"/>
        <pt x="145" y="631" on="0"/>
        <pt x="226" y="665" on="0"/>
        <pt x="258" y="665" on="1"/>
        <pt x="319" y="665" on="0"/>
        <pt x="406" y="573" on="0"/>
        <pt x="406" y="508" on="1"/>
        <pt x="406" y="477" on="0"/>
        <pt x="370" y="373" on="0"/>
        <pt x="340" y="373" on="1"/>
        <pt x="273" y="373" on="1"/>
        <pt x="273" y="212" on="1"/>
        <pt x="273" y="201" on="0"/>
        <pt x="257" y="185" on="0"/>
        <pt x="235" y="185" on="0"/>
        <pt x="219" y="201" on="0"/>
        <pt x="219" y="212" on="1"/>
        <pt x="219" y="400" on="1"/>
        <pt x="219" y="411" on="0"/>
        <pt x="235" y="427" on="0"/>
        <pt x="246" y="427" on="1"/>
        <pt x="325" y="427" on="1"/>
        <pt x="351" y="471" on="0"/>
        <pt x="351" y="508" on="1"/>
        <pt x="351" y="531" on="0"/>
        <pt x="336" y="566" on="0"/>
        <pt x="302" y="590" on="0"/>
        <pt x="280" y="602" on="0"/>
      </contour>
    </TTGlyph>
    <TTGlyph name="A" xMin="50" yMin="-37" xMax="461" yMax="815">
      <contour>
        <pt x="50" y="452" on="1"/>
        <pt x="50" y="463" on="0"/>
        <pt x="66" y="479" on="0"/>
        <pt x="77" y="479" on="1"/>
        <pt x="82" y="479" on="1"/>
        <pt x="118" y="473" on="1"/>
        <pt x="123" y="472" on="0"/>
        <pt x="143" y="462" on="0"/>
        <pt x="149" y="461" on="1"/>
        <pt x="149" y="466" on="0"/>
        <pt x="148" y="487" on="0"/>
        <pt x="148" y="492" on="1"/>
        <pt x="148" y="541" on="0"/>
        <pt x="188" y="687" on="0"/>
        <pt x="273" y="815" on="0"/>
        <pt x="323" y="815" on="1"/>
        <pt x="338" y="815" on="0"/>
        <pt x="354" y="794" on="0"/>
        <pt x="354" y="779" on="1"/>
        <pt x="354" y="774" on="1"/>
        <pt x="360" y="735" on="0"/>
        <pt x="389" y="571" on="0"/>
        <pt x="395" y="528" on="1"/>
        <pt x="416" y="375" on="1"/>
        <pt x="416" y="374" on="0"/>
        <pt x="416" y="374" on="1"/>
        <pt x="417" y="372" on="1"/>
        <pt x="423" y="232" on="1"/>
        <pt x="424" y="218" on="0"/>
        <pt x="426" y="132" on="0"/>
        <pt x="431" y="110" on="1"/>
        <pt x="433" y="100" on="0"/>
        <pt x="461" y="12" on="0"/>
        <pt x="461" y="-8" on="1"/>
        <pt x="461" y="-20" on="0"/>
        <pt x="445" y="-37" on="0"/>
        <pt x="433" y="-37" on="1"/>
        <pt x="394" y="-37" on="0"/>
        <pt x="383" y="49" on="1"/>
        <pt x="374" y="70" on="0"/>
        <pt x="364" y="148" on="0"/>
        <pt x="357" y="167" on="1"/>
        <pt x="353" y="179" on="0"/>
        <pt x="329" y="248" on="0"/>
        <pt x="320" y="270" on="0"/>
        <pt x="295" y="320" on="0"/>
        <pt x="272" y="344" on="0"/>
        <pt x="235" y="373" on="0"/>
        <pt x="211" y="383" on="1"/>
        <pt x="213" y="369" on="0"/>
        <pt x="222" y="309" on="0"/>
        <pt x="227" y="273" on="0"/>
        <pt x="231" y="221" on="0"/>
        <pt x="231" y="198" on="1"/>
        <pt x="231" y="156" on="0"/>
        <pt x="215" y="60" on="0"/>
        <pt x="165" y="-31" on="0"/>
        <pt x="128" y="-31" on="1"/>
        <pt x="122" y="-31" on="1"/>
        <pt x="111" y="-31" on="0"/>
        <pt x="95" y="-15" on="0"/>
        <pt x="95" y="-4" on="1"/>
        <pt x="95" y="19" on="0"/>
        <pt x="118" y="23" on="1"/>
        <pt x="176" y="75" on="0"/>
        <pt x="176" y="197" on="1"/>
        <pt x="176" y="239" on="0"/>
        <pt x="154" y="395" on="0"/>
        <pt x="153" y="402" on="1"/>
        <pt x="126" y="410" on="0"/>
        <pt x="122" y="410" on="1"/>
        <pt x="111" y="410" on="0"/>
        <pt x="99" y="420" on="1"/>
        <pt x="73" y="425" on="1"/>
        <pt x="50" y="429" on="0"/>
      </contour>
      <contour>
        <pt x="433" y="-32" on="1"/>
        <pt x="443" y="-32" on="0"/>
        <pt x="456" y="-17" on="0"/>
        <pt x="456" y="-8" on="1"/>
        <pt x="456" y="10" on="0"/>
        <pt x="428" y="94" on="0"/>
        <pt x="426" y="109" on="1"/>
        <pt x="423" y="136" on="0"/>
        <pt x="418" y="231" on="1"/>
        <pt x="412" y="372" on="1"/>
        <pt x="412" y="373" on="1"/>
        <pt x="411" y="374" on="1"/>
        <pt x="390" y="527" on="1"/>
        <pt x="387" y="547" on="0"/>
        <pt x="349" y="726" on="0"/>
        <pt x="349" y="774" on="1"/>
        <pt x="349" y="779" on="1"/>
        <pt x="349" y="791" on="0"/>
        <pt x="336" y="810" on="0"/>
        <pt x="323" y="810" on="1"/>
        <pt x="306" y="810" on="0"/>
        <pt x="281" y="785" on="1"/>
        <pt x="224" y="728" on="0"/>
        <pt x="153" y="572" on="0"/>
        <pt x="153" y="492" on="1"/>
        <pt x="153" y="486" on="0"/>
        <pt x="154" y="464" on="0"/>
        <pt x="154" y="458" on="1"/>
        <pt x="154" y="455" on="0"/>
        <pt x="152" y="455" on="1"/>
        <pt x="143" y="455" on="0"/>
        <pt x="121" y="467" on="0"/>
        <pt x="117" y="468" on="1"/>
        <pt x="81" y="474" on="1"/>
        <pt x="77" y="474" on="1"/>
        <pt x="68" y="474" on="0"/>
        <pt x="55" y="461" on="0"/>
        <pt x="55" y="452" on="1"/>
        <pt x="55" y="434" on="0"/>
        <pt x="73" y="430" on="1"/>
        <pt x="101" y="425" on="1"/>
        <pt x="104" y="425" on="0"/>
        <pt x="115" y="415" on="0"/>
        <pt x="122" y="415" on="1"/>
        <pt x="181" y="415" on="0"/>
        <pt x="181" y="197" on="1"/>
        <pt x="181" y="143" on="0"/>
        <pt x="151" y="22" on="0"/>
        <pt x="119" y="18" on="1"/>
        <pt x="100" y="16" on="0"/>
        <pt x="100" y="-4" on="1"/>
        <pt x="100" y="-13" on="0"/>
        <pt x="113" y="-26" on="0"/>
        <pt x="122" y="-26" on="1"/>
        <pt x="128" y="-26" on="1"/>
        <pt x="154" y="-26" on="0"/>
        <pt x="195" y="26" on="0"/>
        <pt x="216" y="102" on="0"/>
        <pt x="226" y="172" on="0"/>
        <pt x="226" y="198" on="1"/>
        <pt x="226" y="232" on="0"/>
        <pt x="205" y="357" on="0"/>
        <pt x="205" y="387" on="1"/>
        <pt x="205" y="389" on="0"/>
        <pt x="208" y="389" on="1"/>
        <pt x="256" y="389" on="0"/>
        <pt x="320" y="302" on="0"/>
        <pt x="350" y="179" on="0"/>
        <pt x="373" y="55" on="0"/>
        <pt x="407" y="-32" on="0"/>
      </contour>
      <contour>
        <pt x="225" y="468" on="1"/>
        <pt x="255" y="468" on="0"/>
        <pt x="330" y="420" on="0"/>
        <pt x="347" y="394" on="1"/>
        <pt x="351" y="402" on="1"/>
        <pt x="352" y="440" on="1"/>
        <pt x="351" y="442" on="1"/>
        <pt x="350" y="443" on="1"/>
        <pt x="350" y="451" on="1"/>
        <pt x="350" y="455" on="0"/>
        <pt x="348" y="468" on="0"/>
        <pt x="348" y="478" on="0"/>
        <pt x="344" y="509" on="0"/>
        <pt x="344" y="515" on="1"/>
        <pt x="344" y="572" on="0"/>
        <pt x="318" y="699" on="0"/>
        <pt x="296" y="734" on="1"/>
        <pt x="281" y="731" on="0"/>
        <pt x="224" y="630" on="0"/>
        <pt x="224" y="617" on="1"/>
        <pt x="224" y="596" on="0"/>
        <pt x="203" y="521" on="0"/>
        <pt x="203" y="499" on="1"/>
        <pt x="203" y="467" on="0"/>
        <pt x="224" y="467" on="1"/>
      </contour>
      <contour>
        <pt x="297" y="740" on="1"/>
        <pt x="317" y="740" on="0"/>
        <pt x="350" y="559" on="0"/>
        <pt x="350" y="515" on="1"/>
        <pt x="350" y="509" on="0"/>
        <pt x="354" y="478" on="0"/>
        <pt x="354" y="473" on="1"/>
        <pt x="354" y="469" on="0"/>
        <pt x="356" y="455" on="0"/>
        <pt x="356" y="451" on="1"/>
        <pt x="356" y="450" on="0"/>
        <pt x="356" y="450" on="1"/>
        <pt x="355" y="448" on="1"/>
        <pt x="358" y="445" on="0"/>
        <pt x="358" y="443" on="1"/>
        <pt x="357" y="443" on="1"/>
        <pt x="355" y="401" on="1"/>
        <pt x="355" y="391" on="0"/>
        <pt x="349" y="391" on="1"/>
        <pt x="350" y="390" on="0"/>
        <pt x="350" y="389" on="1"/>
        <pt x="350" y="386" on="0"/>
        <pt x="347" y="386" on="1"/>
        <pt x="345" y="386" on="0"/>
        <pt x="345" y="388" on="1"/>
        <pt x="313" y="441" on="0"/>
        <pt x="225" y="462" on="1"/>
        <pt x="224" y="462" on="1"/>
        <pt x="198" y="462" on="0"/>
        <pt x="198" y="499" on="1"/>
        <pt x="198" y="521" on="0"/>
        <pt x="218" y="596" on="0"/>
        <pt x="218" y="617" on="1"/>
        <pt x="218" y="634" on="0"/>
        <pt x="278" y="740" on="0"/>
      </contour>
    </TTGlyph>
    <TTGlyph name="A.0" xMin="0" yMin="-35" xMax="407" yMax="813">
      <contour>
        <pt x="99" y="458" on="1"/>
        <pt x="89" y="460" on="0"/>
        <pt x="81" y="461" on="1"/>
        <pt x="74" y="469" on="0"/>
        <pt x="65" y="471" on="1"/>
        <pt x="29" y="477" on="1"/>
        <pt x="27" y="477" on="0"/>
        <pt x="25" y="477" on="1"/>
        <pt x="15" y="477" on="0"/>
        <pt x="8" y="470" on="1"/>
        <pt x="0" y="462" on="0"/>
        <pt x="0" y="452" on="1"/>
        <pt x="0" y="443" on="0"/>
        <pt x="6" y="436" on="1"/>
        <pt x="12" y="429" on="0"/>
        <pt x="21" y="427" on="1"/>
        <pt x="48" y="423" on="1"/>
        <pt x="54" y="417" on="0"/>
        <pt x="59" y="415" on="1"/>
        <pt x="64" y="412" on="0"/>
        <pt x="70" y="412" on="1"/>
        <pt x="78" y="412" on="0"/>
        <pt x="103" y="405" on="1"/>
        <pt x="105" y="383" on="0"/>
        <pt x="111" y="346" on="1"/>
        <pt x="116" y="308" on="0"/>
        <pt x="117" y="296" on="1"/>
        <pt x="126" y="223" on="0"/>
        <pt x="126" y="196" on="1"/>
        <pt x="126" y="176" on="0"/>
        <pt x="123" y="159" on="1"/>
        <pt x="123" y="158" on="0"/>
        <pt x="123" y="156" on="1"/>
        <pt x="122" y="116" on="0"/>
        <pt x="107" y="80" on="1"/>
        <pt x="92" y="43" on="0"/>
        <pt x="67" y="21" on="1"/>
        <pt x="58" y="20" on="0"/>
        <pt x="52" y="13" on="1"/>
        <pt x="45" y="5" on="0"/>
        <pt x="45" y="-4" on="1"/>
        <pt x="45" y="-14" on="0"/>
        <pt x="53" y="-21" on="1"/>
        <pt x="60" y="-29" on="0"/>
        <pt x="70" y="-29" on="1"/>
        <pt x="76" y="-29" on="1"/>
        <pt x="84" y="-29" on="0"/>
        <pt x="91" y="-24" on="1"/>
        <pt x="101" y="-17" on="0"/>
        <pt x="109" y="-8" on="1"/>
        <pt x="169" y="52" on="0"/>
        <pt x="173" y="152" on="1"/>
        <pt x="176" y="173" on="0"/>
        <pt x="176" y="197" on="1"/>
        <pt x="176" y="227" on="0"/>
        <pt x="169" y="288" on="1"/>
        <pt x="167" y="303" on="0"/>
        <pt x="163" y="336" on="1"/>
        <pt x="158" y="369" on="0"/>
        <pt x="156" y="387" on="1"/>
        <pt x="231" y="356" on="0"/>
        <pt x="254" y="306" on="1"/>
        <pt x="255" y="305" on="0"/>
        <pt x="256" y="304" on="1"/>
        <pt x="269" y="282" on="0"/>
        <pt x="285" y="232" on="1"/>
        <pt x="301" y="182" on="0"/>
        <pt x="307" y="168" on="1"/>
        <pt x="310" y="157" on="0"/>
        <pt x="317" y="115" on="1"/>
        <pt x="324" y="73" on="0"/>
        <pt x="334" y="49" on="1"/>
        <pt x="337" y="26" on="0"/>
        <pt x="347" y="2" on="1"/>
        <pt x="350" y="-8" on="0"/>
        <pt x="354" y="-15" on="1"/>
        <pt x="364" y="-35" on="0"/>
        <pt x="381" y="-35" on="1"/>
        <pt x="392" y="-35" on="0"/>
        <pt x="399" y="-27" on="1"/>
        <pt x="404" y="-22" on="0"/>
        <pt x="406" y="-15" on="1"/>
        <pt x="407" y="-11" on="0"/>
        <pt x="407" y="-8" on="1"/>
        <pt x="407" y="-3" on="0"/>
        <pt x="405" y="5" on="1"/>
        <pt x="402" y="18" on="0"/>
        <pt x="394" y="42" on="1"/>
        <pt x="388" y="70" on="0"/>
        <pt x="377" y="109" on="1"/>
        <pt x="374" y="131" on="0"/>
        <pt x="372" y="174" on="1"/>
        <pt x="369" y="216" on="0"/>
        <pt x="368" y="232" on="1"/>
        <pt x="362" y="372" on="1"/>
        <pt x="362" y="373" on="0"/>
        <pt x="362" y="374" on="1"/>
        <pt x="341" y="527" on="1"/>
        <pt x="341" y="528" on="0"/>
        <pt x="341" y="528" on="1"/>
        <pt x="308" y="711" on="0"/>
        <pt x="299" y="774" on="1"/>
        <pt x="299" y="776" on="0"/>
        <pt x="299" y="779" on="1"/>
        <pt x="299" y="786" on="0"/>
        <pt x="298" y="791" on="1"/>
        <pt x="296" y="799" on="0"/>
        <pt x="290" y="805" on="1"/>
        <pt x="282" y="813" on="0"/>
        <pt x="271" y="813" on="1"/>
        <pt x="259" y="813" on="0"/>
        <pt x="247" y="804" on="1"/>
        <pt x="233" y="794" on="0"/>
        <pt x="210" y="769" on="1"/>
        <pt x="159" y="710" on="0"/>
        <pt x="129" y="638" on="1"/>
        <pt x="99" y="566" on="0"/>
        <pt x="99" y="491" on="1"/>
        <pt x="99" y="475" on="0"/>
      </contour>
      <contour>
        <pt x="149" y="479" on="1"/>
        <pt x="149" y="481" on="0"/>
        <pt x="149" y="485" on="1"/>
        <pt x="149" y="489" on="0"/>
        <pt x="149" y="490" on="1"/>
        <pt x="149" y="555" on="0"/>
        <pt x="176" y="620" on="1"/>
        <pt x="202" y="684" on="0"/>
        <pt x="248" y="736" on="1"/>
        <pt x="251" y="739" on="0"/>
        <pt x="254" y="742" on="1"/>
        <pt x="259" y="707" on="0"/>
        <pt x="273" y="633" on="1"/>
        <pt x="286" y="559" on="0"/>
        <pt x="291" y="520" on="1"/>
        <pt x="312" y="369" on="1"/>
        <pt x="315" y="297" on="1"/>
        <pt x="308" y="315" on="0"/>
        <pt x="299" y="329" on="1"/>
        <pt x="286" y="355" on="0"/>
        <pt x="265" y="376" on="1"/>
        <pt x="224" y="417" on="0"/>
        <pt x="150" y="442" on="1"/>
        <pt x="149" y="461" on="0"/>
      </contour>
    </TTGlyph>
    <TTGlyph name="A.1" xMin="70" yMin="-15" xMax="437" yMax="793">
      <contour>
        <pt x="321" y="793" on="1"/>
        <pt x="313" y="793" on="0"/>
        <pt x="298" y="779" on="1"/>
        <pt x="289" y="771" on="0"/>
        <pt x="275" y="755" on="1"/>
        <pt x="226" y="700" on="0"/>
        <pt x="198" y="631" on="1"/>
        <pt x="169" y="561" on="0"/>
        <pt x="169" y="491" on="1"/>
        <pt x="169" y="485" on="0"/>
        <pt x="169" y="479" on="1"/>
        <pt x="169" y="456" on="0"/>
        <pt x="171" y="431" on="1"/>
        <pt x="167" y="432" on="0"/>
        <pt x="163" y="433" on="1"/>
        <pt x="132" y="442" on="0"/>
        <pt x="121" y="442" on="1"/>
        <pt x="120" y="444" on="0"/>
        <pt x="116" y="448" on="1"/>
        <pt x="114" y="451" on="0"/>
        <pt x="112" y="451" on="1"/>
        <pt x="76" y="457" on="1"/>
        <pt x="75" y="457" on="0"/>
        <pt x="75" y="457" on="1"/>
        <pt x="70" y="457" on="0"/>
        <pt x="70" y="452" on="1"/>
        <pt x="70" y="448" on="0"/>
        <pt x="74" y="447" on="1"/>
        <pt x="108" y="441" on="1"/>
        <pt x="114" y="435" on="0"/>
        <pt x="116" y="434" on="1"/>
        <pt x="118" y="432" on="0"/>
        <pt x="120" y="432" on="1"/>
        <pt x="132" y="432" on="0"/>
        <pt x="152" y="426" on="1"/>
        <pt x="155" y="425" on="0"/>
        <pt x="162" y="423" on="1"/>
        <pt x="168" y="421" on="0"/>
        <pt x="172" y="420" on="1"/>
        <pt x="174" y="396" on="0"/>
        <pt x="180" y="350" on="1"/>
        <pt x="186" y="304" on="0"/>
        <pt x="187" y="298" on="1"/>
        <pt x="196" y="224" on="0"/>
        <pt x="196" y="197" on="1"/>
        <pt x="196" y="174" on="0"/>
        <pt x="193" y="156" on="1"/>
        <pt x="193" y="156" on="0"/>
        <pt x="193" y="155" on="1"/>
        <pt x="191" y="109" on="0"/>
        <pt x="174" y="68" on="1"/>
        <pt x="157" y="26" on="0"/>
        <pt x="124" y="1" on="1"/>
        <pt x="120" y="1" on="1"/>
        <pt x="115" y="1" on="0"/>
        <pt x="115" y="-4" on="1"/>
        <pt x="115" y="-9" on="0"/>
        <pt x="120" y="-9" on="1"/>
        <pt x="126" y="-9" on="1"/>
        <pt x="128" y="-9" on="0"/>
        <pt x="129" y="-8" on="1"/>
        <pt x="164" y="19" on="0"/>
        <pt x="183" y="63" on="1"/>
        <pt x="201" y="106" on="0"/>
        <pt x="203" y="154" on="1"/>
        <pt x="206" y="174" on="0"/>
        <pt x="206" y="197" on="1"/>
        <pt x="206" y="226" on="0"/>
        <pt x="199" y="285" on="1"/>
        <pt x="182" y="415" on="0"/>
        <pt x="182" y="417" on="1"/>
        <pt x="291" y="381" on="0"/>
        <pt x="322" y="315" on="1"/>
        <pt x="323" y="315" on="0"/>
        <pt x="323" y="314" on="1"/>
        <pt x="337" y="291" on="0"/>
        <pt x="354" y="240" on="1"/>
        <pt x="370" y="189" on="0"/>
        <pt x="376" y="174" on="1"/>
        <pt x="379" y="162" on="0"/>
        <pt x="386" y="120" on="1"/>
        <pt x="393" y="77" on="0"/>
        <pt x="403" y="55" on="1"/>
        <pt x="406" y="31" on="0"/>
        <pt x="417" y="5" on="1"/>
        <pt x="420" y="-4" on="0"/>
        <pt x="423" y="-9" on="1"/>
        <pt x="425" y="-11" on="0"/>
        <pt x="426" y="-13" on="1"/>
        <pt x="428" y="-15" on="0"/>
        <pt x="431" y="-15" on="1"/>
        <pt x="437" y="-15" on="0"/>
        <pt x="437" y="-8" on="1"/>
        <pt x="437" y="1" on="0"/>
        <pt x="425" y="36" on="1"/>
        <pt x="419" y="65" on="0"/>
        <pt x="407" y="105" on="1"/>
        <pt x="404" y="128" on="0"/>
        <pt x="402" y="172" on="1"/>
        <pt x="399" y="215" on="0"/>
        <pt x="398" y="230" on="1"/>
        <pt x="392" y="371" on="1"/>
        <pt x="392" y="371" on="0"/>
        <pt x="392" y="372" on="1"/>
        <pt x="371" y="525" on="1"/>
        <pt x="365" y="568" on="0"/>
        <pt x="350" y="651" on="1"/>
        <pt x="335" y="734" on="0"/>
        <pt x="329" y="773" on="1"/>
        <pt x="329" y="776" on="0"/>
        <pt x="329" y="779" on="1"/>
        <pt x="329" y="793" on="0"/>
      </contour>
      <contour>
        <pt x="319" y="779" on="1"/>
        <pt x="319" y="777" on="0"/>
        <pt x="319" y="775" on="1"/>
        <pt x="319" y="773" on="0"/>
        <pt x="319" y="773" on="1"/>
        <pt x="319" y="773" on="0"/>
        <pt x="319" y="772" on="1"/>
        <pt x="325" y="733" on="0"/>
        <pt x="340" y="650" on="1"/>
        <pt x="355" y="567" on="0"/>
        <pt x="361" y="523" on="1"/>
        <pt x="382" y="371" on="1"/>
        <pt x="388" y="230" on="1"/>
        <pt x="390" y="213" on="0"/>
        <pt x="392" y="181" on="1"/>
        <pt x="393" y="149" on="0"/>
        <pt x="394" y="135" on="1"/>
        <pt x="390" y="162" on="0"/>
        <pt x="386" y="177" on="1"/>
        <pt x="386" y="178" on="0"/>
        <pt x="386" y="178" on="1"/>
        <pt x="379" y="193" on="0"/>
        <pt x="363" y="244" on="1"/>
        <pt x="347" y="295" on="0"/>
        <pt x="331" y="319" on="1"/>
        <pt x="297" y="391" on="0"/>
        <pt x="181" y="427" on="1"/>
        <pt x="179" y="455" on="0"/>
        <pt x="179" y="479" on="1"/>
        <pt x="179" y="481" on="0"/>
        <pt x="179" y="485" on="1"/>
        <pt x="179" y="489" on="0"/>
        <pt x="179" y="491" on="1"/>
        <pt x="179" y="559" on="0"/>
        <pt x="207" y="627" on="1"/>
        <pt x="235" y="694" on="0"/>
        <pt x="283" y="749" on="1"/>
        <pt x="296" y="764" on="0"/>
        <pt x="305" y="772" on="1"/>
        <pt x="313" y="779" on="0"/>
        <pt x="319" y="782" on="1"/>
        <pt x="319" y="781" on="0"/>
      </contour>
    </TTGlyph>
    <TTGlyph name="A.2" xMin="50" yMin="-35" xMax="457" yMax="813">
      <component glyphName="A.0" x="50" y="0" flags="0x4"/>
    </TTGlyph>
    <TTGlyph name="B" xMin="50" yMin="-22" xMax="497" yMax="801">
      <contour>
        <pt x="208" y="751" on="1"/>
        <pt x="218" y="751" on="0"/>
        <pt x="262" y="742" on="0"/>
        <pt x="272" y="742" on="1"/>
        <pt x="277" y="742" on="1"/>
        <pt x="284" y="742" on="0"/>
        <pt x="319" y="722" on="0"/>
        <pt x="328" y="721" on="1"/>
        <pt x="376" y="713" on="0"/>
        <pt x="437" y="633" on="0"/>
        <pt x="438" y="581" on="1"/>
        <pt x="438" y="540" on="0"/>
        <pt x="325" y="471" on="0"/>
        <pt x="280" y="471" on="1"/>
        <pt x="270" y="471" on="0"/>
        <pt x="256" y="492" on="0"/>
        <pt x="245" y="492" on="1"/>
        <pt x="232" y="492" on="0"/>
        <pt x="208" y="473" on="0"/>
        <pt x="208" y="460" on="1"/>
        <pt x="208" y="431" on="0"/>
        <pt x="257" y="380" on="0"/>
        <pt x="328" y="338" on="0"/>
        <pt x="399" y="295" on="0"/>
        <pt x="448" y="232" on="0"/>
        <pt x="448" y="194" on="1"/>
        <pt x="448" y="54" on="0"/>
        <pt x="311" y="54" on="1"/>
        <pt x="301" y="54" on="0"/>
        <pt x="235" y="77" on="0"/>
        <pt x="232" y="86" on="1"/>
        <pt x="204" y="162" on="1"/>
        <pt x="204" y="163" on="1"/>
        <pt x="201" y="228" on="1"/>
        <pt x="199" y="249" on="0"/>
        <pt x="179" y="249" on="1"/>
        <pt x="170" y="249" on="0"/>
        <pt x="157" y="236" on="0"/>
        <pt x="157" y="227" on="1"/>
        <pt x="157" y="226" on="1"/>
        <pt x="160" y="157" on="1"/>
        <pt x="160" y="152" on="0"/>
        <pt x="161" y="150" on="1"/>
        <pt x="194" y="60" on="1"/>
        <pt x="200" y="43" on="0"/>
        <pt x="285" y="10" on="0"/>
        <pt x="311" y="10" on="1"/>
        <pt x="395" y="10" on="0"/>
        <pt x="492" y="109" on="0"/>
        <pt x="492" y="194" on="1"/>
        <pt x="492" y="226" on="0"/>
        <pt x="463" y="289" on="0"/>
        <pt x="430" y="332" on="0"/>
        <pt x="367" y="382" on="0"/>
        <pt x="334" y="404" on="0"/>
        <pt x="303" y="423" on="1"/>
        <pt x="302" y="423" on="0"/>
        <pt x="302" y="425" on="1"/>
        <pt x="421" y="479" on="0"/>
        <pt x="435" y="493" on="1"/>
        <pt x="483" y="541" on="0"/>
        <pt x="483" y="578" on="1"/>
        <pt x="483" y="648" on="0"/>
        <pt x="400" y="754" on="0"/>
        <pt x="336" y="765" on="1"/>
        <pt x="329" y="766" on="0"/>
        <pt x="293" y="787" on="0"/>
        <pt x="278" y="787" on="1"/>
        <pt x="271" y="787" on="1"/>
        <pt x="262" y="787" on="0"/>
        <pt x="218" y="796" on="0"/>
        <pt x="208" y="796" on="1"/>
        <pt x="176" y="796" on="0"/>
        <pt x="129" y="763" on="0"/>
        <pt x="102" y="703" on="0"/>
        <pt x="88" y="650" on="0"/>
        <pt x="82" y="615" on="1"/>
        <pt x="64" y="504" on="1"/>
        <pt x="64" y="501" on="1"/>
        <pt x="55" y="294" on="1"/>
        <pt x="55" y="293" on="1"/>
        <pt x="55" y="291" on="1"/>
        <pt x="67" y="171" on="1"/>
        <pt x="71" y="128" on="0"/>
        <pt x="117" y="-17" on="0"/>
        <pt x="143" y="-17" on="1"/>
        <pt x="152" y="-17" on="0"/>
        <pt x="165" y="-4" on="0"/>
        <pt x="165" y="5" on="1"/>
        <pt x="165" y="33" on="0"/>
        <pt x="113" y="152" on="0"/>
        <pt x="111" y="177" on="1"/>
        <pt x="100" y="293" on="1"/>
        <pt x="100" y="294" on="1"/>
        <pt x="108" y="498" on="1"/>
        <pt x="126" y="606" on="1"/>
        <pt x="131" y="635" on="0"/>
        <pt x="138" y="669" on="0"/>
        <pt x="156" y="723" on="0"/>
        <pt x="187" y="751" on="0"/>
      </contour>
      <contour>
        <pt x="170" y="5" on="1"/>
        <pt x="170" y="-6" on="0"/>
        <pt x="154" y="-22" on="0"/>
        <pt x="143" y="-22" on="1"/>
        <pt x="117" y="-22" on="0"/>
        <pt x="67" y="126" on="0"/>
        <pt x="62" y="170" on="1"/>
        <pt x="50" y="290" on="1"/>
        <pt x="50" y="293" on="1"/>
        <pt x="50" y="294" on="1"/>
        <pt x="59" y="501" on="1"/>
        <pt x="59" y="504" on="1"/>
        <pt x="77" y="615" on="1"/>
        <pt x="83" y="652" on="0"/>
        <pt x="97" y="706" on="0"/>
        <pt x="126" y="768" on="0"/>
        <pt x="175" y="801" on="0"/>
        <pt x="208" y="801" on="1"/>
        <pt x="219" y="801" on="0"/>
        <pt x="265" y="793" on="0"/>
        <pt x="271" y="792" on="1"/>
        <pt x="278" y="792" on="1"/>
        <pt x="361" y="792" on="0"/>
        <pt x="488" y="661" on="0"/>
        <pt x="488" y="578" on="1"/>
        <pt x="488" y="524" on="0"/>
        <pt x="370" y="433" on="0"/>
        <pt x="312" y="423" on="1"/>
        <pt x="349" y="400" on="0"/>
        <pt x="395" y="367" on="0"/>
        <pt x="462" y="306" on="0"/>
        <pt x="497" y="234" on="0"/>
        <pt x="497" y="194" on="1"/>
        <pt x="497" y="107" on="0"/>
        <pt x="397" y="5" on="0"/>
        <pt x="311" y="5" on="1"/>
        <pt x="282" y="5" on="0"/>
        <pt x="196" y="41" on="0"/>
        <pt x="189" y="59" on="1"/>
        <pt x="156" y="149" on="1"/>
        <pt x="155" y="152" on="0"/>
        <pt x="155" y="157" on="1"/>
        <pt x="152" y="226" on="1"/>
        <pt x="152" y="227" on="1"/>
        <pt x="152" y="238" on="0"/>
        <pt x="168" y="254" on="0"/>
        <pt x="179" y="254" on="1"/>
        <pt x="189" y="254" on="0"/>
        <pt x="205" y="239" on="0"/>
        <pt x="206" y="228" on="1"/>
        <pt x="209" y="163" on="1"/>
        <pt x="237" y="89" on="1"/>
        <pt x="241" y="87" on="0"/>
        <pt x="267" y="74" on="0"/>
        <pt x="283" y="66" on="0"/>
        <pt x="304" y="59" on="0"/>
        <pt x="311" y="59" on="1"/>
        <pt x="443" y="59" on="0"/>
        <pt x="443" y="194" on="1"/>
        <pt x="443" y="234" on="0"/>
        <pt x="391" y="305" on="0"/>
        <pt x="326" y="346" on="0"/>
        <pt x="245" y="398" on="0"/>
        <pt x="228" y="415" on="1"/>
        <pt x="217" y="426" on="0"/>
        <pt x="215" y="435" on="1"/>
        <pt x="203" y="445" on="0"/>
        <pt x="203" y="460" on="1"/>
        <pt x="203" y="476" on="0"/>
        <pt x="229" y="497" on="0"/>
        <pt x="245" y="497" on="1"/>
        <pt x="255" y="497" on="0"/>
        <pt x="273" y="476" on="0"/>
        <pt x="280" y="476" on="1"/>
        <pt x="327" y="476" on="0"/>
        <pt x="420" y="540" on="0"/>
        <pt x="433" y="582" on="1"/>
        <pt x="432" y="612" on="0"/>
        <pt x="418" y="654" on="0"/>
        <pt x="386" y="682" on="0"/>
        <pt x="358" y="698" on="0"/>
        <pt x="307" y="722" on="0"/>
        <pt x="293" y="730" on="1"/>
        <pt x="281" y="737" on="0"/>
        <pt x="277" y="737" on="1"/>
        <pt x="272" y="737" on="1"/>
        <pt x="262" y="737" on="0"/>
        <pt x="218" y="746" on="0"/>
        <pt x="208" y="746" on="1"/>
        <pt x="193" y="746" on="0"/>
        <pt x="171" y="732" on="0"/>
        <pt x="157" y="702" on="0"/>
        <pt x="151" y="683" on="0"/>
        <pt x="146" y="664" on="1"/>
        <pt x="131" y="605" on="1"/>
        <pt x="113" y="497" on="1"/>
        <pt x="105" y="294" on="1"/>
        <pt x="116" y="178" on="1"/>
        <pt x="118" y="172" on="0"/>
        <pt x="170" y="36" on="0"/>
      </contour>
    </TTGlyph>
    <TTGlyph name="B.0" xMin="0" yMin="-20" xMax="443" yMax="799">
      <contour>
        <pt x="225" y="739" on="1"/>
        <pt x="229" y="739" on="0"/>
        <pt x="242" y="732" on="1"/>
        <pt x="262" y="721" on="0"/>
        <pt x="276" y="718" on="1"/>
        <pt x="322" y="710" on="0"/>
        <pt x="353" y="672" on="1"/>
        <pt x="383" y="633" on="0"/>
        <pt x="384" y="581" on="1"/>
        <pt x="375" y="552" on="0"/>
        <pt x="349" y="527" on="1"/>
        <pt x="325" y="502" on="0"/>
        <pt x="292" y="488" on="1"/>
        <pt x="259" y="473" on="0"/>
        <pt x="227" y="473" on="1"/>
        <pt x="222" y="473" on="0"/>
        <pt x="218" y="474" on="1"/>
        <pt x="216" y="483" on="0"/>
        <pt x="209" y="489" on="1"/>
        <pt x="202" y="495" on="0"/>
        <pt x="193" y="495" on="1"/>
        <pt x="189" y="495" on="0"/>
        <pt x="185" y="494" on="1"/>
        <pt x="181" y="492" on="0"/>
        <pt x="176" y="490" on="1"/>
        <pt x="154" y="479" on="0"/>
        <pt x="154" y="460" on="1"/>
        <pt x="154" y="446" on="0"/>
        <pt x="166" y="437" on="1"/>
        <pt x="168" y="426" on="0"/>
        <pt x="177" y="417" on="1"/>
        <pt x="188" y="407" on="0"/>
        <pt x="228" y="381" on="1"/>
        <pt x="307" y="332" on="0"/>
        <pt x="341" y="297" on="1"/>
        <pt x="393" y="245" on="0"/>
        <pt x="393" y="194" on="1"/>
        <pt x="393" y="126" on="0"/>
        <pt x="358" y="91" on="1"/>
        <pt x="324" y="57" on="0"/>
        <pt x="259" y="57" on="1"/>
        <pt x="242" y="57" on="0"/>
        <pt x="204" y="76" on="1"/>
        <pt x="190" y="84" on="0"/>
        <pt x="183" y="87" on="1"/>
        <pt x="155" y="163" on="1"/>
        <pt x="152" y="228" on="1"/>
        <pt x="152" y="238" on="0"/>
        <pt x="145" y="245" on="1"/>
        <pt x="137" y="252" on="0"/>
        <pt x="127" y="252" on="1"/>
        <pt x="117" y="252" on="0"/>
        <pt x="110" y="245" on="1"/>
        <pt x="102" y="237" on="0"/>
        <pt x="102" y="227" on="1"/>
        <pt x="102" y="226" on="0"/>
        <pt x="102" y="226" on="1"/>
        <pt x="105" y="157" on="1"/>
        <pt x="105" y="153" on="0"/>
        <pt x="107" y="149" on="1"/>
        <pt x="140" y="59" on="1"/>
        <pt x="143" y="49" on="0"/>
        <pt x="154" y="45" on="1"/>
        <pt x="164" y="41" on="0"/>
        <pt x="184" y="31" on="1"/>
        <pt x="203" y="20" on="0"/>
        <pt x="221" y="14" on="1"/>
        <pt x="239" y="7" on="0"/>
        <pt x="259" y="7" on="1"/>
        <pt x="345" y="7" on="0"/>
        <pt x="393" y="56" on="1"/>
        <pt x="443" y="105" on="0"/>
        <pt x="443" y="194" on="1"/>
        <pt x="443" y="266" on="0"/>
        <pt x="376" y="333" on="1"/>
        <pt x="338" y="371" on="0"/>
        <pt x="252" y="425" on="1"/>
        <pt x="328" y="435" on="0"/>
        <pt x="385" y="491" on="1"/>
        <pt x="421" y="528" on="0"/>
        <pt x="433" y="571" on="1"/>
        <pt x="434" y="575" on="0"/>
        <pt x="434" y="578" on="1"/>
        <pt x="434" y="662" on="0"/>
        <pt x="377" y="719" on="1"/>
        <pt x="338" y="758" on="0"/>
        <pt x="284" y="768" on="1"/>
        <pt x="279" y="768" on="0"/>
        <pt x="267" y="776" on="1"/>
        <pt x="242" y="789" on="0"/>
        <pt x="226" y="789" on="1"/>
        <pt x="222" y="789" on="0"/>
        <pt x="219" y="789" on="1"/>
        <pt x="213" y="790" on="0"/>
        <pt x="190" y="795" on="1"/>
        <pt x="167" y="799" on="0"/>
        <pt x="156" y="799" on="1"/>
        <pt x="116" y="799" on="0"/>
        <pt x="84" y="767" on="1"/>
        <pt x="57" y="740" on="0"/>
        <pt x="49" y="704" on="1"/>
        <pt x="48" y="701" on="0"/>
        <pt x="48" y="699" on="1"/>
        <pt x="47" y="694" on="0"/>
        <pt x="44" y="683" on="1"/>
        <pt x="43" y="680" on="0"/>
        <pt x="28" y="617" on="1"/>
        <pt x="27" y="616" on="0"/>
        <pt x="27" y="615" on="1"/>
        <pt x="9" y="504" on="1"/>
        <pt x="9" y="503" on="0"/>
        <pt x="9" y="501" on="1"/>
        <pt x="0" y="294" on="1"/>
        <pt x="0" y="294" on="0"/>
        <pt x="0" y="293" on="1"/>
        <pt x="0" y="292" on="0"/>
        <pt x="0" y="290" on="1"/>
        <pt x="12" y="170" on="1"/>
        <pt x="12" y="168" on="0"/>
        <pt x="13" y="166" on="1"/>
        <pt x="43" y="61" on="0"/>
        <pt x="68" y="-4" on="1"/>
        <pt x="74" y="-20" on="0"/>
        <pt x="91" y="-20" on="1"/>
        <pt x="101" y="-20" on="0"/>
        <pt x="109" y="-12" on="1"/>
        <pt x="116" y="-5" on="0"/>
        <pt x="116" y="5" on="1"/>
        <pt x="116" y="10" on="0"/>
        <pt x="114" y="14" on="1"/>
        <pt x="90" y="76" on="0"/>
        <pt x="62" y="178" on="1"/>
        <pt x="50" y="294" on="1"/>
        <pt x="59" y="497" on="1"/>
        <pt x="76" y="606" on="1"/>
        <pt x="91" y="665" on="1"/>
        <pt x="98" y="693" on="0"/>
        <pt x="98" y="694" on="1"/>
        <pt x="103" y="715" on="0"/>
        <pt x="119" y="732" on="1"/>
        <pt x="135" y="749" on="0"/>
        <pt x="155" y="749" on="1"/>
        <pt x="159" y="749" on="0"/>
        <pt x="162" y="748" on="1"/>
        <pt x="168" y="747" on="0"/>
        <pt x="180" y="745" on="1"/>
        <pt x="191" y="742" on="0"/>
        <pt x="202" y="741" on="1"/>
        <pt x="212" y="739" on="0"/>
        <pt x="220" y="739" on="1"/>
        <pt x="221" y="739" on="0"/>
        <pt x="223" y="739" on="1"/>
        <pt x="224" y="739" on="0"/>
      </contour>
    </TTGlyph>
    <TTGlyph name="B.1" xMin="70" yMin="0" xMax="473" yMax="779">
      <contour>
        <pt x="205" y="779" on="1"/>
        <pt x="174" y="779" on="0"/>
        <pt x="150" y="755" on="1"/>
        <pt x="125" y="730" on="0"/>
        <pt x="118" y="699" on="1"/>
        <pt x="118" y="699" on="0"/>
        <pt x="118" y="698" on="1"/>
        <pt x="118" y="694" on="0"/>
        <pt x="114" y="678" on="1"/>
        <pt x="113" y="675" on="0"/>
        <pt x="97" y="612" on="1"/>
        <pt x="79" y="501" on="1"/>
        <pt x="79" y="501" on="0"/>
        <pt x="79" y="500" on="1"/>
        <pt x="70" y="293" on="1"/>
        <pt x="70" y="292" on="1"/>
        <pt x="82" y="172" on="1"/>
        <pt x="112" y="67" on="0"/>
        <pt x="136" y="3" on="1"/>
        <pt x="138" y="0" on="0"/>
        <pt x="141" y="0" on="1"/>
        <pt x="146" y="0" on="0"/>
        <pt x="146" y="5" on="1"/>
        <pt x="146" y="6" on="0"/>
        <pt x="146" y="7" on="1"/>
        <pt x="121" y="70" on="0"/>
        <pt x="92" y="174" on="1"/>
        <pt x="80" y="293" on="1"/>
        <pt x="89" y="499" on="1"/>
        <pt x="107" y="610" on="1"/>
        <pt x="122" y="670" on="1"/>
        <pt x="128" y="696" on="0"/>
        <pt x="128" y="697" on="1"/>
        <pt x="135" y="725" on="0"/>
        <pt x="157" y="747" on="1"/>
        <pt x="178" y="769" on="0"/>
        <pt x="205" y="769" on="1"/>
        <pt x="210" y="769" on="0"/>
        <pt x="215" y="768" on="1"/>
        <pt x="216" y="768" on="0"/>
        <pt x="239" y="764" on="1"/>
        <pt x="261" y="759" on="0"/>
        <pt x="270" y="759" on="1"/>
        <pt x="271" y="759" on="0"/>
        <pt x="273" y="759" on="1"/>
        <pt x="274" y="759" on="0"/>
        <pt x="275" y="759" on="1"/>
        <pt x="285" y="759" on="0"/>
        <pt x="302" y="749" on="1"/>
        <pt x="319" y="740" on="0"/>
        <pt x="329" y="738" on="1"/>
        <pt x="385" y="728" on="0"/>
        <pt x="420" y="683" on="1"/>
        <pt x="454" y="637" on="0"/>
        <pt x="454" y="579" on="1"/>
        <pt x="439" y="527" on="0"/>
        <pt x="387" y="490" on="1"/>
        <pt x="334" y="453" on="0"/>
        <pt x="278" y="453" on="1"/>
        <pt x="262" y="453" on="0"/>
        <pt x="246" y="457" on="1"/>
        <pt x="247" y="463" on="0"/>
        <pt x="248" y="469" on="1"/>
        <pt x="248" y="470" on="0"/>
        <pt x="248" y="470" on="1"/>
        <pt x="248" y="475" on="0"/>
        <pt x="243" y="475" on="1"/>
        <pt x="242" y="475" on="0"/>
        <pt x="241" y="475" on="1"/>
        <pt x="224" y="469" on="0"/>
        <pt x="224" y="460" on="1"/>
        <pt x="224" y="453" on="0"/>
        <pt x="235" y="449" on="1"/>
        <pt x="235" y="444" on="0"/>
        <pt x="235" y="443" on="1"/>
        <pt x="235" y="435" on="0"/>
        <pt x="248" y="425" on="1"/>
        <pt x="258" y="418" on="0"/>
        <pt x="288" y="398" on="1"/>
        <pt x="316" y="381" on="0"/>
        <pt x="334" y="370" on="1"/>
        <pt x="351" y="358" on="0"/>
        <pt x="379" y="336" on="1"/>
        <pt x="406" y="313" on="0"/>
        <pt x="422" y="294" on="1"/>
        <pt x="438" y="274" on="0"/>
        <pt x="451" y="248" on="1"/>
        <pt x="463" y="221" on="0"/>
        <pt x="463" y="194" on="1"/>
        <pt x="463" y="117" on="0"/>
        <pt x="423" y="77" on="1"/>
        <pt x="382" y="37" on="0"/>
        <pt x="309" y="37" on="1"/>
        <pt x="295" y="37" on="0"/>
        <pt x="279" y="43" on="1"/>
        <pt x="263" y="49" on="0"/>
        <pt x="244" y="59" on="1"/>
        <pt x="225" y="69" on="0"/>
        <pt x="217" y="72" on="1"/>
        <pt x="185" y="159" on="1"/>
        <pt x="182" y="227" on="1"/>
        <pt x="182" y="232" on="0"/>
        <pt x="177" y="232" on="1"/>
        <pt x="172" y="232" on="0"/>
        <pt x="172" y="227" on="1"/>
        <pt x="175" y="158" on="1"/>
        <pt x="175" y="157" on="0"/>
        <pt x="175" y="156" on="1"/>
        <pt x="208" y="66" on="1"/>
        <pt x="209" y="64" on="0"/>
        <pt x="211" y="63" on="1"/>
        <pt x="221" y="60" on="0"/>
        <pt x="240" y="50" on="1"/>
        <pt x="259" y="39" on="0"/>
        <pt x="276" y="33" on="1"/>
        <pt x="293" y="27" on="0"/>
        <pt x="309" y="27" on="1"/>
        <pt x="386" y="27" on="0"/>
        <pt x="430" y="71" on="1"/>
        <pt x="473" y="114" on="0"/>
        <pt x="473" y="194" on="1"/>
        <pt x="473" y="223" on="0"/>
        <pt x="460" y="252" on="1"/>
        <pt x="446" y="280" on="0"/>
        <pt x="430" y="300" on="1"/>
        <pt x="414" y="320" on="0"/>
        <pt x="385" y="344" on="1"/>
        <pt x="355" y="367" on="0"/>
        <pt x="339" y="378" on="1"/>
        <pt x="323" y="388" on="0"/>
        <pt x="294" y="407" on="1"/>
        <pt x="247" y="436" on="0"/>
        <pt x="245" y="443" on="1"/>
        <pt x="245" y="444" on="0"/>
        <pt x="245" y="446" on="1"/>
        <pt x="262" y="443" on="0"/>
        <pt x="278" y="443" on="1"/>
        <pt x="338" y="443" on="0"/>
        <pt x="394" y="482" on="1"/>
        <pt x="449" y="521" on="0"/>
        <pt x="464" y="577" on="1"/>
        <pt x="464" y="577" on="0"/>
        <pt x="464" y="578" on="1"/>
        <pt x="464" y="640" on="0"/>
        <pt x="428" y="689" on="1"/>
        <pt x="391" y="737" on="0"/>
        <pt x="331" y="748" on="1"/>
        <pt x="323" y="749" on="0"/>
        <pt x="305" y="759" on="1"/>
        <pt x="287" y="769" on="0"/>
        <pt x="275" y="769" on="1"/>
        <pt x="272" y="769" on="0"/>
        <pt x="270" y="769" on="1"/>
        <pt x="261" y="769" on="0"/>
        <pt x="239" y="774" on="1"/>
        <pt x="216" y="779" on="0"/>
      </contour>
      <contour>
        <pt x="237" y="462" on="1"/>
        <pt x="236" y="461" on="0"/>
        <pt x="235" y="460" on="1"/>
        <pt x="235" y="460" on="0"/>
        <pt x="237" y="459" on="1"/>
        <pt x="237" y="461" on="0"/>
      </contour>
    </TTGlyph>
    <TTGlyph name="B.2" xMin="50" yMin="-20" xMax="493" yMax="799">
      <component glyphName="B.0" x="50" y="0" flags="0x4"/>
    </TTGlyph>
    <TTGlyph name="C" xMin="50" yMin="-30" xMax="440" yMax="807">
      <contour>
        <pt x="297" y="20" on="1"/>
        <pt x="279" y="20" on="0"/>
        <pt x="216" y="40" on="0"/>
        <pt x="201" y="40" on="1"/>
        <pt x="187" y="40" on="1"/>
        <pt x="166" y="40" on="0"/>
        <pt x="115" y="161" on="0"/>
        <pt x="111" y="194" on="1"/>
        <pt x="103" y="248" on="1"/>
        <pt x="100" y="387" on="1"/>
        <pt x="113" y="513" on="1"/>
        <pt x="115" y="529" on="0"/>
        <pt x="154" y="606" on="0"/>
        <pt x="158" y="617" on="1"/>
        <pt x="183" y="694" on="0"/>
        <pt x="200" y="717" on="1"/>
        <pt x="231" y="758" on="0"/>
        <pt x="291" y="758" on="1"/>
        <pt x="321" y="758" on="0"/>
        <pt x="370" y="715" on="0"/>
        <pt x="373" y="684" on="1"/>
        <pt x="374" y="676" on="0"/>
        <pt x="387" y="664" on="0"/>
        <pt x="395" y="664" on="1"/>
        <pt x="404" y="664" on="0"/>
        <pt x="417" y="677" on="0"/>
        <pt x="417" y="686" on="1"/>
        <pt x="417" y="731" on="0"/>
        <pt x="338" y="802" on="0"/>
        <pt x="291" y="802" on="1"/>
        <pt x="250" y="802" on="0"/>
        <pt x="191" y="775" on="0"/>
        <pt x="158" y="733" on="0"/>
        <pt x="131" y="674" on="0"/>
        <pt x="115" y="618" on="0"/>
        <pt x="89" y="556" on="0"/>
        <pt x="73" y="536" on="1"/>
        <pt x="69" y="532" on="0"/>
        <pt x="69" y="524" on="1"/>
        <pt x="55" y="390" on="1"/>
        <pt x="55" y="388" on="1"/>
        <pt x="55" y="387" on="1"/>
        <pt x="59" y="245" on="1"/>
        <pt x="59" y="243" on="1"/>
        <pt x="67" y="187" on="1"/>
        <pt x="72" y="152" on="0"/>
        <pt x="100" y="70" on="0"/>
        <pt x="155" y="-4" on="0"/>
        <pt x="187" y="-4" on="1"/>
        <pt x="196" y="-4" on="1"/>
        <pt x="211" y="-4" on="0"/>
        <pt x="278" y="-25" on="0"/>
        <pt x="297" y="-25" on="1"/>
        <pt x="334" y="-25" on="0"/>
        <pt x="405" y="12" on="0"/>
        <pt x="414" y="36" on="1"/>
        <pt x="432" y="84" on="1"/>
        <pt x="433" y="86" on="0"/>
        <pt x="433" y="91" on="1"/>
        <pt x="435" y="151" on="1"/>
        <pt x="435" y="152" on="1"/>
        <pt x="435" y="161" on="0"/>
        <pt x="422" y="174" on="0"/>
        <pt x="404" y="174" on="0"/>
        <pt x="391" y="162" on="0"/>
        <pt x="391" y="153" on="1"/>
        <pt x="389" y="97" on="1"/>
        <pt x="388" y="96" on="1"/>
        <pt x="374" y="58" on="1"/>
        <pt x="368" y="40" on="0"/>
        <pt x="322" y="20" on="0"/>
      </contour>
      <contour>
        <pt x="395" y="659" on="1"/>
        <pt x="382" y="659" on="0"/>
        <pt x="361" y="688" on="0"/>
        <pt x="347" y="724" on="0"/>
        <pt x="315" y="753" on="0"/>
        <pt x="291" y="753" on="1"/>
        <pt x="254" y="753" on="0"/>
        <pt x="203" y="720" on="0"/>
        <pt x="176" y="662" on="0"/>
        <pt x="157" y="602" on="0"/>
        <pt x="133" y="533" on="0"/>
        <pt x="118" y="512" on="1"/>
        <pt x="105" y="387" on="1"/>
        <pt x="108" y="248" on="1"/>
        <pt x="116" y="195" on="1"/>
        <pt x="122" y="171" on="0"/>
        <pt x="139" y="112" on="0"/>
        <pt x="173" y="45" on="0"/>
        <pt x="187" y="45" on="1"/>
        <pt x="201" y="45" on="1"/>
        <pt x="216" y="45" on="0"/>
        <pt x="279" y="25" on="0"/>
        <pt x="297" y="25" on="1"/>
        <pt x="307" y="25" on="0"/>
        <pt x="323" y="28" on="0"/>
        <pt x="333" y="30" on="0"/>
        <pt x="346" y="39" on="0"/>
        <pt x="352" y="43" on="0"/>
        <pt x="367" y="58" on="0"/>
        <pt x="370" y="60" on="1"/>
        <pt x="384" y="97" on="1"/>
        <pt x="386" y="153" on="1"/>
        <pt x="386" y="164" on="0"/>
        <pt x="402" y="179" on="0"/>
        <pt x="424" y="179" on="0"/>
        <pt x="440" y="163" on="0"/>
        <pt x="440" y="152" on="1"/>
        <pt x="440" y="151" on="1"/>
        <pt x="438" y="91" on="1"/>
        <pt x="438" y="85" on="0"/>
        <pt x="437" y="82" on="1"/>
        <pt x="419" y="34" on="1"/>
        <pt x="409" y="7" on="0"/>
        <pt x="336" y="-30" on="0"/>
        <pt x="297" y="-30" on="1"/>
        <pt x="250" y="-30" on="0"/>
        <pt x="196" y="-9" on="1"/>
        <pt x="187" y="-9" on="1"/>
        <pt x="154" y="-9" on="0"/>
        <pt x="96" y="67" on="0"/>
        <pt x="67" y="151" on="0"/>
        <pt x="62" y="186" on="1"/>
        <pt x="54" y="242" on="1"/>
        <pt x="54" y="245" on="1"/>
        <pt x="50" y="387" on="1"/>
        <pt x="50" y="388" on="1"/>
        <pt x="50" y="391" on="1"/>
        <pt x="64" y="525" on="1"/>
        <pt x="66" y="541" on="0"/>
        <pt x="106" y="619" on="0"/>
        <pt x="112" y="638" on="1"/>
        <pt x="124" y="675" on="0"/>
        <pt x="148" y="725" on="0"/>
        <pt x="189" y="779" on="0"/>
        <pt x="250" y="807" on="0"/>
        <pt x="291" y="807" on="1"/>
        <pt x="340" y="807" on="0"/>
        <pt x="422" y="732" on="0"/>
        <pt x="422" y="686" on="1"/>
        <pt x="422" y="675" on="0"/>
        <pt x="406" y="659" on="0"/>
      </contour>
    </TTGlyph>
    <TTGlyph name="C.0" xMin="1" yMin="-27" xMax="387" yMax="805">
      <contour>
        <pt x="369" y="686" on="1"/>
        <pt x="369" y="688" on="0"/>
        <pt x="369" y="689" on="1"/>
        <pt x="363" y="736" on="0"/>
        <pt x="338" y="760" on="1"/>
        <pt x="326" y="773" on="0"/>
        <pt x="309" y="778" on="1"/>
        <pt x="304" y="780" on="0"/>
        <pt x="289" y="788" on="1"/>
        <pt x="258" y="805" on="0"/>
        <pt x="240" y="805" on="1"/>
        <pt x="170" y="805" on="0"/>
        <pt x="127" y="762" on="1"/>
        <pt x="110" y="745" on="0"/>
        <pt x="97" y="720" on="1"/>
        <pt x="83" y="694" on="0"/>
        <pt x="78" y="680" on="1"/>
        <pt x="72" y="665" on="0"/>
        <pt x="62" y="632" on="1"/>
        <pt x="39" y="561" on="0"/>
        <pt x="20" y="537" on="1"/>
        <pt x="16" y="532" on="0"/>
        <pt x="15" y="525" on="1"/>
        <pt x="1" y="391" on="1"/>
        <pt x="1" y="389" on="0"/>
        <pt x="1" y="388" on="1"/>
        <pt x="1" y="388" on="0"/>
        <pt x="1" y="387" on="1"/>
        <pt x="5" y="245" on="1"/>
        <pt x="5" y="244" on="0"/>
        <pt x="5" y="242" on="1"/>
        <pt x="13" y="186" on="1"/>
        <pt x="13" y="185" on="0"/>
        <pt x="14" y="184" on="1"/>
        <pt x="22" y="146" on="0"/>
        <pt x="32" y="128" on="1"/>
        <pt x="35" y="122" on="0"/>
        <pt x="44" y="101" on="1"/>
        <pt x="70" y="35" on="0"/>
        <pt x="92" y="13" on="1"/>
        <pt x="112" y="-7" on="0"/>
        <pt x="136" y="-7" on="1"/>
        <pt x="145" y="-7" on="1"/>
        <pt x="194" y="-27" on="0"/>
        <pt x="246" y="-27" on="1"/>
        <pt x="280" y="-27" on="0"/>
        <pt x="304" y="-16" on="1"/>
        <pt x="312" y="-12" on="0"/>
        <pt x="320" y="-6" on="1"/>
        <pt x="328" y="-1" on="0"/>
        <pt x="333" y="3" on="1"/>
        <pt x="337" y="7" on="0"/>
        <pt x="346" y="15" on="1"/>
        <pt x="354" y="22" on="0"/>
        <pt x="358" y="25" on="1"/>
        <pt x="363" y="29" on="0"/>
        <pt x="365" y="35" on="1"/>
        <pt x="383" y="83" on="1"/>
        <pt x="385" y="87" on="0"/>
        <pt x="385" y="91" on="1"/>
        <pt x="387" y="151" on="1"/>
        <pt x="387" y="152" on="0"/>
        <pt x="387" y="152" on="1"/>
        <pt x="387" y="162" on="0"/>
        <pt x="380" y="170" on="1"/>
        <pt x="372" y="177" on="0"/>
        <pt x="362" y="177" on="1"/>
        <pt x="352" y="177" on="0"/>
        <pt x="344" y="170" on="1"/>
        <pt x="337" y="163" on="0"/>
        <pt x="337" y="153" on="1"/>
        <pt x="335" y="97" on="1"/>
        <pt x="321" y="59" on="1"/>
        <pt x="318" y="57" on="0"/>
        <pt x="314" y="53" on="1"/>
        <pt x="293" y="34" on="0"/>
        <pt x="282" y="29" on="1"/>
        <pt x="269" y="23" on="0"/>
        <pt x="246" y="23" on="1"/>
        <pt x="202" y="23" on="0"/>
        <pt x="160" y="41" on="1"/>
        <pt x="155" y="43" on="0"/>
        <pt x="150" y="43" on="1"/>
        <pt x="136" y="43" on="1"/>
        <pt x="133" y="43" on="0"/>
        <pt x="127" y="49" on="1"/>
        <pt x="112" y="63" on="0"/>
        <pt x="90" y="119" on="1"/>
        <pt x="81" y="144" on="0"/>
        <pt x="76" y="152" on="1"/>
        <pt x="70" y="164" on="0"/>
        <pt x="63" y="195" on="1"/>
        <pt x="55" y="248" on="1"/>
        <pt x="51" y="387" on="1"/>
        <pt x="64" y="513" on="1"/>
        <pt x="85" y="542" on="0"/>
        <pt x="109" y="616" on="1"/>
        <pt x="137" y="701" on="0"/>
        <pt x="163" y="727" on="1"/>
        <pt x="191" y="755" on="0"/>
        <pt x="240" y="755" on="1"/>
        <pt x="242" y="755" on="0"/>
        <pt x="247" y="753" on="1"/>
        <pt x="253" y="751" on="0"/>
        <pt x="269" y="742" on="1"/>
        <pt x="284" y="733" on="0"/>
        <pt x="295" y="730" on="1"/>
        <pt x="299" y="729" on="0"/>
        <pt x="303" y="725" on="1"/>
        <pt x="316" y="712" on="0"/>
        <pt x="319" y="683" on="1"/>
        <pt x="320" y="674" on="0"/>
        <pt x="328" y="668" on="1"/>
        <pt x="335" y="661" on="0"/>
        <pt x="344" y="661" on="1"/>
        <pt x="354" y="661" on="0"/>
        <pt x="362" y="669" on="1"/>
        <pt x="369" y="676" on="0"/>
      </contour>
    </TTGlyph>
    <TTGlyph name="C.1" xMin="70" yMin="-7" xMax="416" yMax="785">
      <contour>
        <pt x="398" y="686" on="1"/>
        <pt x="398" y="687" on="0"/>
        <pt x="398" y="687" on="1"/>
        <pt x="391" y="748" on="0"/>
        <pt x="352" y="759" on="1"/>
        <pt x="347" y="761" on="0"/>
        <pt x="325" y="773" on="1"/>
        <pt x="302" y="785" on="0"/>
        <pt x="289" y="785" on="1"/>
        <pt x="267" y="785" on="0"/>
        <pt x="248" y="780" on="1"/>
        <pt x="228" y="774" on="0"/>
        <pt x="215" y="767" on="1"/>
        <pt x="201" y="760" on="0"/>
        <pt x="189" y="746" on="1"/>
        <pt x="176" y="732" on="0"/>
        <pt x="169" y="721" on="1"/>
        <pt x="162" y="710" on="0"/>
        <pt x="154" y="690" on="1"/>
        <pt x="145" y="670" on="0"/>
        <pt x="141" y="659" on="1"/>
        <pt x="137" y="648" on="0"/>
        <pt x="130" y="626" on="1"/>
        <pt x="105" y="552" on="0"/>
        <pt x="85" y="525" on="1"/>
        <pt x="84" y="524" on="0"/>
        <pt x="84" y="523" on="1"/>
        <pt x="70" y="389" on="1"/>
        <pt x="70" y="388" on="1"/>
        <pt x="74" y="246" on="1"/>
        <pt x="74" y="246" on="0"/>
        <pt x="74" y="245" on="1"/>
        <pt x="82" y="189" on="1"/>
        <pt x="90" y="153" on="0"/>
        <pt x="99" y="138" on="1"/>
        <pt x="102" y="131" on="0"/>
        <pt x="111" y="108" on="1"/>
        <pt x="130" y="60" on="0"/>
        <pt x="144" y="41" on="1"/>
        <pt x="163" y="13" on="0"/>
        <pt x="185" y="13" on="1"/>
        <pt x="198" y="13" on="1"/>
        <pt x="246" y="-7" on="0"/>
        <pt x="295" y="-7" on="1"/>
        <pt x="298" y="-7" on="0"/>
        <pt x="301" y="-7" on="1"/>
        <pt x="312" y="-7" on="0"/>
        <pt x="323" y="-4" on="1"/>
        <pt x="333" y="-2" on="0"/>
        <pt x="340" y="1" on="1"/>
        <pt x="346" y="3" on="0"/>
        <pt x="355" y="9" on="1"/>
        <pt x="364" y="15" on="0"/>
        <pt x="368" y="18" on="1"/>
        <pt x="372" y="21" on="0"/>
        <pt x="382" y="30" on="1"/>
        <pt x="391" y="38" on="0"/>
        <pt x="394" y="40" on="1"/>
        <pt x="395" y="41" on="0"/>
        <pt x="396" y="42" on="1"/>
        <pt x="414" y="90" on="1"/>
        <pt x="414" y="91" on="0"/>
        <pt x="414" y="92" on="1"/>
        <pt x="416" y="152" on="1"/>
        <pt x="416" y="157" on="0"/>
        <pt x="411" y="157" on="1"/>
        <pt x="406" y="157" on="0"/>
        <pt x="406" y="152" on="1"/>
        <pt x="404" y="93" on="1"/>
        <pt x="387" y="47" on="1"/>
        <pt x="383" y="44" on="0"/>
        <pt x="376" y="38" on="1"/>
        <pt x="354" y="18" on="0"/>
        <pt x="339" y="11" on="1"/>
        <pt x="323" y="3" on="0"/>
        <pt x="295" y="3" on="1"/>
        <pt x="247" y="3" on="0"/>
        <pt x="201" y="23" on="1"/>
        <pt x="200" y="23" on="0"/>
        <pt x="199" y="23" on="1"/>
        <pt x="185" y="23" on="1"/>
        <pt x="168" y="23" on="0"/>
        <pt x="152" y="47" on="1"/>
        <pt x="139" y="65" on="0"/>
        <pt x="121" y="112" on="1"/>
        <pt x="111" y="135" on="0"/>
        <pt x="107" y="142" on="1"/>
        <pt x="100" y="156" on="0"/>
        <pt x="92" y="191" on="1"/>
        <pt x="84" y="246" on="1"/>
        <pt x="80" y="388" on="1"/>
        <pt x="94" y="520" on="1"/>
        <pt x="115" y="548" on="0"/>
        <pt x="139" y="622" on="1"/>
        <pt x="149" y="653" on="0"/>
        <pt x="155" y="669" on="1"/>
        <pt x="161" y="685" on="0"/>
        <pt x="174" y="709" on="1"/>
        <pt x="187" y="733" on="0"/>
        <pt x="201" y="745" on="1"/>
        <pt x="214" y="756" on="0"/>
        <pt x="237" y="766" on="1"/>
        <pt x="260" y="775" on="0"/>
        <pt x="289" y="775" on="1"/>
        <pt x="299" y="775" on="0"/>
        <pt x="323" y="762" on="1"/>
        <pt x="341" y="752" on="0"/>
        <pt x="350" y="749" on="1"/>
        <pt x="381" y="740" on="0"/>
        <pt x="388" y="685" on="1"/>
        <pt x="389" y="681" on="0"/>
        <pt x="393" y="681" on="1"/>
        <pt x="398" y="681" on="0"/>
      </contour>
    </TTGlyph>
    <TTGlyph name="C.2" xMin="50" yMin="-27" xMax="436" yMax="805">
      <component glyphName="C.0" x="49" y="0" flags="0x4"/>
    </TTGlyph>
    <TTGlyph name="D" xMin="50" yMin="-29" xMax="457" yMax="789">
      <contour>
        <pt x="191" y="784" on="1"/>
        <pt x="137" y="784" on="0"/>
        <pt x="55" y="725" on="0"/>
        <pt x="55" y="678" on="1"/>
        <pt x="55" y="669" on="0"/>
        <pt x="68" y="656" on="0"/>
        <pt x="77" y="656" on="1"/>
        <pt x="92" y="656" on="0"/>
        <pt x="118" y="714" on="0"/>
        <pt x="120" y="716" on="1"/>
        <pt x="144" y="740" on="0"/>
        <pt x="191" y="740" on="1"/>
        <pt x="240" y="740" on="0"/>
        <pt x="314" y="698" on="0"/>
        <pt x="327" y="660" on="1"/>
        <pt x="407" y="424" on="1"/>
        <pt x="407" y="423" on="1"/>
        <pt x="396" y="292" on="1"/>
        <pt x="391" y="230" on="0"/>
        <pt x="307" y="96" on="0"/>
        <pt x="257" y="96" on="1"/>
        <pt x="190" y="96" on="0"/>
        <pt x="190" y="103" on="1"/>
        <pt x="190" y="122" on="1"/>
        <pt x="190" y="167" on="0"/>
        <pt x="165" y="357" on="0"/>
        <pt x="165" y="401" on="1"/>
        <pt x="165" y="408" on="1"/>
        <pt x="165" y="676" on="1"/>
        <pt x="165" y="685" on="0"/>
        <pt x="152" y="698" on="0"/>
        <pt x="134" y="698" on="0"/>
        <pt x="121" y="685" on="0"/>
        <pt x="121" y="676" on="1"/>
        <pt x="121" y="408" on="1"/>
        <pt x="121" y="407" on="0"/>
        <pt x="120" y="402" on="0"/>
        <pt x="120" y="401" on="1"/>
        <pt x="120" y="356" on="0"/>
        <pt x="145" y="165" on="0"/>
        <pt x="145" y="121" on="1"/>
        <pt x="145" y="108" on="0"/>
        <pt x="120" y="90" on="0"/>
        <pt x="89" y="79" on="0"/>
        <pt x="64" y="50" on="0"/>
        <pt x="64" y="29" on="1"/>
        <pt x="64" y="5" on="0"/>
        <pt x="113" y="-24" on="0"/>
        <pt x="141" y="-24" on="1"/>
        <pt x="161" y="-24" on="0"/>
        <pt x="183" y="56" on="0"/>
        <pt x="187" y="56" on="1"/>
        <pt x="198" y="56" on="0"/>
        <pt x="245" y="52" on="0"/>
        <pt x="257" y="52" on="1"/>
        <pt x="327" y="52" on="0"/>
        <pt x="434" y="208" on="0"/>
        <pt x="440" y="284" on="1"/>
        <pt x="452" y="424" on="1"/>
        <pt x="452" y="426" on="1"/>
        <pt x="452" y="431" on="0"/>
        <pt x="451" y="433" on="1"/>
        <pt x="369" y="674" on="1"/>
        <pt x="351" y="725" on="0"/>
        <pt x="253" y="784" on="0"/>
      </contour>
      <contour>
        <pt x="50" y="678" on="1"/>
        <pt x="50" y="727" on="0"/>
        <pt x="135" y="789" on="0"/>
        <pt x="191" y="789" on="1"/>
        <pt x="254" y="789" on="0"/>
        <pt x="356" y="729" on="0"/>
        <pt x="374" y="676" on="1"/>
        <pt x="456" y="435" on="1"/>
        <pt x="457" y="432" on="0"/>
        <pt x="457" y="426" on="1"/>
        <pt x="457" y="424" on="1"/>
        <pt x="445" y="284" on="1"/>
        <pt x="441" y="235" on="0"/>
        <pt x="394" y="129" on="0"/>
        <pt x="307" y="47" on="0"/>
        <pt x="257" y="47" on="1"/>
        <pt x="233" y="47" on="0"/>
        <pt x="189" y="51" on="1"/>
        <pt x="173" y="-29" on="0"/>
        <pt x="141" y="-29" on="1"/>
        <pt x="111" y="-29" on="0"/>
        <pt x="59" y="3" on="0"/>
        <pt x="59" y="29" on="1"/>
        <pt x="59" y="49" on="0"/>
        <pt x="84" y="79" on="0"/>
        <pt x="115" y="93" on="0"/>
        <pt x="140" y="111" on="0"/>
        <pt x="140" y="121" on="1"/>
        <pt x="140" y="165" on="0"/>
        <pt x="115" y="356" on="0"/>
        <pt x="115" y="401" on="1"/>
        <pt x="115" y="402" on="0"/>
        <pt x="116" y="407" on="0"/>
        <pt x="116" y="408" on="1"/>
        <pt x="116" y="676" on="1"/>
        <pt x="116" y="687" on="0"/>
        <pt x="132" y="703" on="0"/>
        <pt x="154" y="703" on="0"/>
        <pt x="170" y="687" on="0"/>
        <pt x="170" y="676" on="1"/>
        <pt x="170" y="408" on="1"/>
        <pt x="170" y="401" on="1"/>
        <pt x="170" y="357" on="0"/>
        <pt x="195" y="167" on="0"/>
        <pt x="195" y="122" on="1"/>
        <pt x="195" y="105" on="1"/>
        <pt x="200" y="105" on="0"/>
        <pt x="247" y="101" on="0"/>
        <pt x="257" y="101" on="1"/>
        <pt x="287" y="101" on="0"/>
        <pt x="334" y="146" on="0"/>
        <pt x="355" y="194" on="0"/>
        <pt x="385" y="280" on="0"/>
        <pt x="391" y="293" on="1"/>
        <pt x="402" y="423" on="1"/>
        <pt x="322" y="658" on="1"/>
        <pt x="309" y="694" on="0"/>
        <pt x="239" y="735" on="0"/>
        <pt x="191" y="735" on="1"/>
        <pt x="151" y="735" on="0"/>
        <pt x="111" y="704" on="0"/>
        <pt x="104" y="672" on="1"/>
        <pt x="99" y="651" on="0"/>
        <pt x="77" y="651" on="1"/>
        <pt x="66" y="651" on="0"/>
        <pt x="50" y="667" on="0"/>
      </contour>
    </TTGlyph>
    <TTGlyph name="D.0" xMin="0" yMin="-27" xMax="403" yMax="787">
      <contour>
        <pt x="141" y="103" on="1"/>
        <pt x="141" y="113" on="0"/>
        <pt x="141" y="123" on="1"/>
        <pt x="141" y="168" on="0"/>
        <pt x="129" y="264" on="1"/>
        <pt x="116" y="360" on="0"/>
        <pt x="116" y="403" on="1"/>
        <pt x="116" y="405" on="0"/>
        <pt x="116" y="408" on="1"/>
        <pt x="116" y="676" on="1"/>
        <pt x="116" y="686" on="0"/>
        <pt x="109" y="694" on="1"/>
        <pt x="101" y="701" on="0"/>
        <pt x="91" y="701" on="1"/>
        <pt x="81" y="701" on="0"/>
        <pt x="74" y="694" on="1"/>
        <pt x="66" y="686" on="0"/>
        <pt x="66" y="676" on="1"/>
        <pt x="66" y="408" on="1"/>
        <pt x="66" y="405" on="0"/>
        <pt x="66" y="403" on="1"/>
        <pt x="66" y="358" on="0"/>
        <pt x="79" y="262" on="1"/>
        <pt x="91" y="166" on="0"/>
        <pt x="91" y="122" on="1"/>
        <pt x="91" y="112" on="0"/>
        <pt x="91" y="104" on="1"/>
        <pt x="51" y="100" on="0"/>
        <pt x="31" y="80" on="1"/>
        <pt x="13" y="62" on="0"/>
        <pt x="10" y="32" on="1"/>
        <pt x="10" y="31" on="0"/>
        <pt x="10" y="29" on="1"/>
        <pt x="10" y="11" on="0"/>
        <pt x="23" y="-2" on="1"/>
        <pt x="30" y="-10" on="0"/>
        <pt x="43" y="-15" on="1"/>
        <pt x="50" y="-18" on="0"/>
        <pt x="63" y="-21" on="1"/>
        <pt x="76" y="-24" on="0"/>
        <pt x="81" y="-26" on="1"/>
        <pt x="85" y="-27" on="0"/>
        <pt x="89" y="-27" on="1"/>
        <pt x="103" y="-27" on="0"/>
        <pt x="111" y="-15" on="1"/>
        <pt x="128" y="15" on="0"/>
        <pt x="135" y="53" on="1"/>
        <pt x="202" y="49" on="0"/>
        <pt x="205" y="49" on="1"/>
        <pt x="257" y="49" on="0"/>
        <pt x="296" y="87" on="1"/>
        <pt x="313" y="105" on="0"/>
        <pt x="329" y="132" on="1"/>
        <pt x="344" y="159" on="0"/>
        <pt x="350" y="175" on="1"/>
        <pt x="356" y="191" on="0"/>
        <pt x="370" y="227" on="1"/>
        <pt x="382" y="261" on="0"/>
        <pt x="388" y="276" on="1"/>
        <pt x="390" y="279" on="0"/>
        <pt x="390" y="283" on="1"/>
        <pt x="403" y="424" on="1"/>
        <pt x="403" y="425" on="0"/>
        <pt x="403" y="426" on="1"/>
        <pt x="403" y="431" on="0"/>
        <pt x="402" y="435" on="1"/>
        <pt x="320" y="675" on="1"/>
        <pt x="308" y="709" on="0"/>
        <pt x="283" y="733" on="1"/>
        <pt x="230" y="787" on="0"/>
        <pt x="139" y="787" on="1"/>
        <pt x="72" y="787" on="0"/>
        <pt x="35" y="750" on="1"/>
        <pt x="9" y="724" on="0"/>
        <pt x="1" y="683" on="1"/>
        <pt x="0" y="681" on="0"/>
        <pt x="0" y="678" on="1"/>
        <pt x="0" y="668" on="0"/>
        <pt x="8" y="661" on="1"/>
        <pt x="15" y="653" on="0"/>
        <pt x="25" y="653" on="1"/>
        <pt x="34" y="653" on="0"/>
        <pt x="41" y="659" on="1"/>
        <pt x="48" y="665" on="0"/>
        <pt x="49" y="673" on="1"/>
        <pt x="55" y="699" on="0"/>
        <pt x="70" y="714" on="1"/>
        <pt x="93" y="737" on="0"/>
        <pt x="139" y="737" on="1"/>
        <pt x="187" y="737" on="0"/>
        <pt x="224" y="717" on="1"/>
        <pt x="260" y="696" on="0"/>
        <pt x="272" y="659" on="1"/>
        <pt x="353" y="423" on="1"/>
        <pt x="341" y="292" on="1"/>
        <pt x="335" y="277" on="0"/>
        <pt x="323" y="244" on="1"/>
        <pt x="288" y="150" on="0"/>
        <pt x="260" y="123" on="1"/>
        <pt x="237" y="99" on="0"/>
        <pt x="205" y="99" on="1"/>
        <pt x="198" y="99" on="0"/>
      </contour>
      <contour>
        <pt x="76" y="28" on="1"/>
        <pt x="65" y="30" on="0"/>
        <pt x="60" y="32" on="1"/>
        <pt x="62" y="40" on="0"/>
        <pt x="66" y="44" on="1"/>
        <pt x="71" y="49" on="0"/>
        <pt x="84" y="52" on="1"/>
        <pt x="80" y="39" on="0"/>
      </contour>
    </TTGlyph>
    <TTGlyph name="D.1" xMin="70" yMin="-7" xMax="433" yMax="767">
      <contour>
        <pt x="169" y="84" on="1"/>
        <pt x="171" y="102" on="0"/>
        <pt x="171" y="122" on="1"/>
        <pt x="171" y="167" on="0"/>
        <pt x="159" y="263" on="1"/>
        <pt x="146" y="359" on="0"/>
        <pt x="146" y="403" on="1"/>
        <pt x="146" y="405" on="0"/>
        <pt x="146" y="408" on="1"/>
        <pt x="146" y="676" on="1"/>
        <pt x="146" y="681" on="0"/>
        <pt x="141" y="681" on="1"/>
        <pt x="136" y="681" on="0"/>
        <pt x="136" y="676" on="1"/>
        <pt x="136" y="408" on="1"/>
        <pt x="136" y="405" on="0"/>
        <pt x="136" y="403" on="1"/>
        <pt x="136" y="358" on="0"/>
        <pt x="149" y="263" on="1"/>
        <pt x="161" y="167" on="0"/>
        <pt x="161" y="122" on="1"/>
        <pt x="161" y="102" on="0"/>
        <pt x="159" y="84" on="1"/>
        <pt x="85" y="84" on="0"/>
        <pt x="80" y="30" on="1"/>
        <pt x="80" y="30" on="0"/>
        <pt x="80" y="28" on="1"/>
        <pt x="80" y="19" on="0"/>
        <pt x="87" y="13" on="1"/>
        <pt x="93" y="6" on="0"/>
        <pt x="101" y="4" on="1"/>
        <pt x="108" y="1" on="0"/>
        <pt x="121" y="-2" on="1"/>
        <pt x="133" y="-5" on="0"/>
        <pt x="137" y="-7" on="1"/>
        <pt x="138" y="-7" on="0"/>
        <pt x="139" y="-7" on="1"/>
        <pt x="142" y="-7" on="0"/>
        <pt x="143" y="-4" on="1"/>
        <pt x="162" y="28" on="0"/>
        <pt x="168" y="74" on="1"/>
        <pt x="180" y="74" on="0"/>
        <pt x="210" y="72" on="1"/>
        <pt x="240" y="69" on="0"/>
        <pt x="255" y="69" on="1"/>
        <pt x="273" y="69" on="0"/>
        <pt x="289" y="75" on="1"/>
        <pt x="305" y="80" on="0"/>
        <pt x="317" y="88" on="1"/>
        <pt x="328" y="96" on="0"/>
        <pt x="340" y="111" on="1"/>
        <pt x="352" y="126" on="0"/>
        <pt x="359" y="137" on="1"/>
        <pt x="366" y="148" on="0"/>
        <pt x="375" y="169" on="1"/>
        <pt x="384" y="190" on="0"/>
        <pt x="388" y="201" on="1"/>
        <pt x="392" y="211" on="0"/>
        <pt x="401" y="234" on="1"/>
        <pt x="414" y="268" on="0"/>
        <pt x="420" y="284" on="1"/>
        <pt x="420" y="284" on="0"/>
        <pt x="421" y="285" on="1"/>
        <pt x="433" y="426" on="1"/>
        <pt x="433" y="427" on="0"/>
        <pt x="433" y="428" on="1"/>
        <pt x="351" y="669" on="1"/>
        <pt x="334" y="717" on="0"/>
        <pt x="290" y="742" on="1"/>
        <pt x="245" y="767" on="0"/>
        <pt x="189" y="767" on="1"/>
        <pt x="139" y="767" on="0"/>
        <pt x="109" y="744" on="1"/>
        <pt x="79" y="721" on="0"/>
        <pt x="70" y="679" on="1"/>
        <pt x="70" y="679" on="0"/>
        <pt x="70" y="678" on="1"/>
        <pt x="70" y="673" on="0"/>
        <pt x="75" y="673" on="1"/>
        <pt x="79" y="673" on="0"/>
        <pt x="80" y="677" on="1"/>
        <pt x="96" y="757" on="0"/>
        <pt x="189" y="757" on="1"/>
        <pt x="242" y="757" on="0"/>
        <pt x="284" y="734" on="1"/>
        <pt x="326" y="710" on="0"/>
        <pt x="341" y="665" on="1"/>
        <pt x="423" y="426" on="1"/>
        <pt x="411" y="287" on="1"/>
        <pt x="404" y="271" on="0"/>
        <pt x="391" y="237" on="1"/>
        <pt x="380" y="207" on="0"/>
        <pt x="374" y="191" on="1"/>
        <pt x="367" y="174" on="0"/>
        <pt x="354" y="149" on="1"/>
        <pt x="341" y="124" on="0"/>
        <pt x="328" y="112" on="1"/>
        <pt x="315" y="99" on="0"/>
        <pt x="296" y="89" on="1"/>
        <pt x="277" y="79" on="0"/>
        <pt x="255" y="79" on="1"/>
        <pt x="240" y="79" on="0"/>
        <pt x="211" y="82" on="1"/>
        <pt x="181" y="84" on="0"/>
      </contour>
      <contour>
        <pt x="90" y="28" on="1"/>
        <pt x="90" y="29" on="0"/>
        <pt x="90" y="30" on="1"/>
        <pt x="92" y="55" on="0"/>
        <pt x="110" y="65" on="1"/>
        <pt x="127" y="74" on="0"/>
        <pt x="158" y="74" on="1"/>
        <pt x="153" y="34" on="0"/>
        <pt x="137" y="4" on="1"/>
        <pt x="133" y="5" on="0"/>
        <pt x="124" y="7" on="1"/>
        <pt x="106" y="12" on="0"/>
        <pt x="98" y="16" on="1"/>
        <pt x="90" y="20" on="0"/>
      </contour>
    </TTGlyph>
    <TTGlyph name="D.2" xMin="50" yMin="-27" xMax="453" yMax="787">
      <component glyphName="D.0" x="50" y="0" flags="0x4"/>
    </TTGlyph>
    <TTGlyph name="E" xMin="50" yMin="-25" xMax="427" yMax="797">
      <contour>
        <pt x="386" y="740" on="1"/>
        <pt x="386" y="755" on="0"/>
        <pt x="324" y="786" on="0"/>
        <pt x="302" y="786" on="1"/>
        <pt x="287" y="786" on="0"/>
        <pt x="226" y="792" on="0"/>
        <pt x="210" y="792" on="1"/>
        <pt x="148" y="792" on="0"/>
        <pt x="57" y="662" on="0"/>
        <pt x="57" y="594" on="1"/>
        <pt x="57" y="592" on="0"/>
        <pt x="58" y="582" on="0"/>
        <pt x="58" y="579" on="1"/>
        <pt x="58" y="569" on="0"/>
        <pt x="55" y="530" on="0"/>
        <pt x="55" y="520" on="1"/>
        <pt x="55" y="486" on="0"/>
        <pt x="102" y="410" on="0"/>
        <pt x="134" y="410" on="1"/>
        <pt x="138" y="410" on="1"/>
        <pt x="142" y="410" on="0"/>
        <pt x="164" y="403" on="0"/>
        <pt x="164" y="401" on="1"/>
        <pt x="164" y="396" on="0"/>
        <pt x="136" y="370" on="0"/>
        <pt x="100" y="340" on="0"/>
        <pt x="98" y="338" on="1"/>
        <pt x="55" y="295" on="0"/>
        <pt x="55" y="227" on="1"/>
        <pt x="55" y="183" on="1"/>
        <pt x="55" y="89" on="0"/>
        <pt x="186" y="-20" on="0"/>
        <pt x="282" y="-20" on="1"/>
        <pt x="323" y="-20" on="0"/>
        <pt x="422" y="54" on="0"/>
        <pt x="422" y="92" on="1"/>
        <pt x="422" y="101" on="0"/>
        <pt x="409" y="114" on="0"/>
        <pt x="400" y="114" on="1"/>
        <pt x="384" y="114" on="0"/>
        <pt x="350" y="70" on="0"/>
        <pt x="309" y="25" on="0"/>
        <pt x="283" y="25" on="1"/>
        <pt x="204" y="25" on="0"/>
        <pt x="100" y="109" on="0"/>
        <pt x="100" y="186" on="1"/>
        <pt x="100" y="212" on="1"/>
        <pt x="100" y="228" on="1"/>
        <pt x="100" y="281" on="0"/>
        <pt x="196" y="377" on="0"/>
        <pt x="245" y="390" on="1"/>
        <pt x="262" y="394" on="0"/>
        <pt x="262" y="412" on="1"/>
        <pt x="262" y="421" on="0"/>
        <pt x="249" y="434" on="0"/>
        <pt x="240" y="434" on="1"/>
        <pt x="212" y="434" on="1"/>
        <pt x="202" y="434" on="0"/>
        <pt x="154" y="455" on="0"/>
        <pt x="139" y="455" on="1"/>
        <pt x="138" y="455" on="1"/>
        <pt x="123" y="455" on="0"/>
        <pt x="101" y="502" on="0"/>
        <pt x="101" y="523" on="1"/>
        <pt x="101" y="532" on="0"/>
        <pt x="103" y="569" on="0"/>
        <pt x="103" y="578" on="1"/>
        <pt x="103" y="581" on="0"/>
        <pt x="102" y="592" on="0"/>
        <pt x="102" y="595" on="1"/>
        <pt x="103" y="642" on="0"/>
        <pt x="168" y="747" on="0"/>
        <pt x="212" y="747" on="1"/>
        <pt x="227" y="747" on="0"/>
        <pt x="287" y="742" on="0"/>
        <pt x="302" y="742" on="1"/>
        <pt x="310" y="742" on="0"/>
        <pt x="350" y="718" on="0"/>
        <pt x="364" y="718" on="1"/>
        <pt x="373" y="718" on="0"/>
        <pt x="386" y="731" on="0"/>
      </contour>
      <contour>
        <pt x="134" y="405" on="1"/>
        <pt x="99" y="405" on="0"/>
        <pt x="50" y="484" on="0"/>
        <pt x="50" y="520" on="1"/>
        <pt x="50" y="530" on="0"/>
        <pt x="53" y="569" on="0"/>
        <pt x="53" y="579" on="1"/>
        <pt x="53" y="582" on="0"/>
        <pt x="52" y="592" on="0"/>
        <pt x="52" y="594" on="1"/>
        <pt x="52" y="665" on="0"/>
        <pt x="145" y="797" on="0"/>
        <pt x="210" y="797" on="1"/>
        <pt x="226" y="797" on="0"/>
        <pt x="287" y="791" on="0"/>
        <pt x="302" y="791" on="1"/>
        <pt x="328" y="791" on="0"/>
        <pt x="391" y="758" on="0"/>
        <pt x="391" y="740" on="1"/>
        <pt x="391" y="729" on="0"/>
        <pt x="375" y="713" on="0"/>
        <pt x="364" y="713" on="1"/>
        <pt x="350" y="713" on="0"/>
        <pt x="310" y="737" on="0"/>
        <pt x="302" y="737" on="1"/>
        <pt x="287" y="737" on="0"/>
        <pt x="227" y="742" on="0"/>
        <pt x="212" y="742" on="1"/>
        <pt x="169" y="742" on="0"/>
        <pt x="108" y="645" on="0"/>
        <pt x="107" y="595" on="1"/>
        <pt x="108" y="589" on="0"/>
        <pt x="108" y="578" on="1"/>
        <pt x="108" y="569" on="0"/>
        <pt x="106" y="532" on="0"/>
        <pt x="106" y="523" on="1"/>
        <pt x="106" y="515" on="0"/>
        <pt x="107" y="502" on="0"/>
        <pt x="112" y="491" on="0"/>
        <pt x="115" y="484" on="0"/>
        <pt x="122" y="475" on="0"/>
        <pt x="126" y="471" on="0"/>
        <pt x="137" y="462" on="0"/>
        <pt x="139" y="460" on="1"/>
        <pt x="154" y="460" on="0"/>
        <pt x="202" y="439" on="0"/>
        <pt x="212" y="439" on="1"/>
        <pt x="240" y="439" on="1"/>
        <pt x="251" y="439" on="0"/>
        <pt x="267" y="423" on="0"/>
        <pt x="267" y="412" on="1"/>
        <pt x="267" y="393" on="0"/>
        <pt x="216" y="351" on="0"/>
        <pt x="156" y="317" on="0"/>
        <pt x="105" y="260" on="0"/>
        <pt x="105" y="228" on="1"/>
        <pt x="105" y="212" on="1"/>
        <pt x="105" y="186" on="1"/>
        <pt x="105" y="111" on="0"/>
        <pt x="206" y="30" on="0"/>
        <pt x="283" y="30" on="1"/>
        <pt x="303" y="30" on="0"/>
        <pt x="338" y="58" on="0"/>
        <pt x="358" y="91" on="0"/>
        <pt x="386" y="119" on="0"/>
        <pt x="400" y="119" on="1"/>
        <pt x="411" y="119" on="0"/>
        <pt x="427" y="103" on="0"/>
        <pt x="427" y="92" on="1"/>
        <pt x="427" y="52" on="0"/>
        <pt x="326" y="-25" on="0"/>
        <pt x="282" y="-25" on="1"/>
        <pt x="184" y="-25" on="0"/>
        <pt x="50" y="87" on="0"/>
        <pt x="50" y="183" on="1"/>
        <pt x="50" y="211" on="1"/>
        <pt x="50" y="227" on="1"/>
        <pt x="50" y="321" on="0"/>
        <pt x="155" y="400" on="1"/>
        <pt x="152" y="401" on="0"/>
        <pt x="139" y="405" on="0"/>
        <pt x="138" y="405" on="1"/>
      </contour>
    </TTGlyph>
    <TTGlyph name="E.0" xMin="0" yMin="-23" xMax="373" yMax="795">
      <contour>
        <pt x="4" y="578" on="1"/>
        <pt x="4" y="569" on="0"/>
        <pt x="3" y="550" on="1"/>
        <pt x="1" y="530" on="0"/>
        <pt x="1" y="519" on="1"/>
        <pt x="1" y="470" on="0"/>
        <pt x="28" y="442" on="1"/>
        <pt x="34" y="437" on="0"/>
        <pt x="41" y="432" on="1"/>
        <pt x="43" y="430" on="0"/>
        <pt x="49" y="424" on="1"/>
        <pt x="55" y="418" on="0"/>
        <pt x="58" y="416" on="1"/>
        <pt x="61" y="413" on="0"/>
        <pt x="68" y="410" on="1"/>
        <pt x="74" y="407" on="0"/>
        <pt x="82" y="407" on="1"/>
        <pt x="84" y="407" on="0"/>
        <pt x="86" y="407" on="1"/>
        <pt x="88" y="407" on="0"/>
        <pt x="94" y="405" on="1"/>
        <pt x="104" y="402" on="0"/>
        <pt x="110" y="401" on="1"/>
        <pt x="78" y="379" on="0"/>
        <pt x="58" y="351" on="1"/>
        <pt x="50" y="346" on="0"/>
        <pt x="44" y="339" on="1"/>
        <pt x="0" y="295" on="0"/>
        <pt x="0" y="228" on="1"/>
        <pt x="0" y="220" on="0"/>
        <pt x="1" y="211" on="1"/>
        <pt x="0" y="188" on="0"/>
        <pt x="0" y="181" on="1"/>
        <pt x="0" y="136" on="0"/>
        <pt x="17" y="106" on="1"/>
        <pt x="29" y="69" on="0"/>
        <pt x="57" y="41" on="1"/>
        <pt x="114" y="-16" on="0"/>
        <pt x="200" y="-19" on="1"/>
        <pt x="215" y="-23" on="0"/>
        <pt x="230" y="-23" on="1"/>
        <pt x="283" y="-23" on="0"/>
        <pt x="325" y="20" on="1"/>
        <pt x="333" y="28" on="0"/>
        <pt x="362" y="65" on="1"/>
        <pt x="363" y="67" on="0"/>
        <pt x="370" y="81" on="1"/>
        <pt x="373" y="86" on="0"/>
        <pt x="373" y="92" on="1"/>
        <pt x="373" y="102" on="0"/>
        <pt x="366" y="110" on="1"/>
        <pt x="358" y="117" on="0"/>
        <pt x="348" y="117" on="1"/>
        <pt x="338" y="117" on="0"/>
        <pt x="330" y="110" on="1"/>
        <pt x="327" y="107" on="0"/>
        <pt x="321" y="93" on="1"/>
        <pt x="302" y="69" on="1"/>
        <pt x="296" y="61" on="0"/>
        <pt x="290" y="55" on="1"/>
        <pt x="262" y="27" on="0"/>
        <pt x="231" y="27" on="1"/>
        <pt x="221" y="27" on="0"/>
        <pt x="211" y="30" on="1"/>
        <pt x="208" y="31" on="0"/>
        <pt x="204" y="31" on="1"/>
        <pt x="136" y="32" on="0"/>
        <pt x="93" y="76" on="1"/>
        <pt x="72" y="97" on="0"/>
        <pt x="64" y="123" on="1"/>
        <pt x="63" y="126" on="0"/>
        <pt x="61" y="129" on="1"/>
        <pt x="50" y="147" on="0"/>
        <pt x="50" y="184" on="1"/>
        <pt x="50" y="188" on="0"/>
        <pt x="51" y="198" on="1"/>
        <pt x="51" y="207" on="0"/>
        <pt x="51" y="212" on="1"/>
        <pt x="51" y="215" on="0"/>
        <pt x="51" y="221" on="1"/>
        <pt x="50" y="226" on="0"/>
        <pt x="50" y="229" on="1"/>
        <pt x="50" y="275" on="0"/>
        <pt x="79" y="304" on="1"/>
        <pt x="85" y="309" on="0"/>
        <pt x="91" y="314" on="1"/>
        <pt x="94" y="317" on="0"/>
        <pt x="96" y="320" on="1"/>
        <pt x="103" y="329" on="0"/>
        <pt x="112" y="339" on="1"/>
        <pt x="130" y="356" on="0"/>
        <pt x="153" y="370" on="1"/>
        <pt x="176" y="383" on="0"/>
        <pt x="194" y="388" on="1"/>
        <pt x="202" y="390" on="0"/>
        <pt x="208" y="397" on="1"/>
        <pt x="213" y="403" on="0"/>
        <pt x="213" y="412" on="1"/>
        <pt x="213" y="422" on="0"/>
        <pt x="206" y="430" on="1"/>
        <pt x="198" y="437" on="0"/>
        <pt x="188" y="437" on="1"/>
        <pt x="160" y="437" on="1"/>
        <pt x="155" y="437" on="0"/>
        <pt x="144" y="442" on="1"/>
        <pt x="128" y="449" on="0"/>
        <pt x="118" y="451" on="1"/>
        <pt x="115" y="451" on="0"/>
        <pt x="105" y="454" on="1"/>
        <pt x="95" y="457" on="0"/>
        <pt x="86" y="457" on="1"/>
        <pt x="84" y="459" on="0"/>
        <pt x="81" y="463" on="1"/>
        <pt x="78" y="466" on="0"/>
        <pt x="76" y="468" on="1"/>
        <pt x="73" y="470" on="0"/>
        <pt x="70" y="473" on="1"/>
        <pt x="51" y="486" on="0"/>
        <pt x="51" y="522" on="1"/>
        <pt x="51" y="531" on="0"/>
        <pt x="53" y="550" on="1"/>
        <pt x="54" y="568" on="0"/>
        <pt x="54" y="578" on="1"/>
        <pt x="54" y="587" on="0"/>
        <pt x="53" y="595" on="1"/>
        <pt x="53" y="647" on="0"/>
        <pt x="92" y="699" on="1"/>
        <pt x="93" y="701" on="0"/>
        <pt x="94" y="702" on="1"/>
        <pt x="113" y="738" on="0"/>
        <pt x="160" y="745" on="1"/>
        <pt x="174" y="745" on="0"/>
        <pt x="204" y="742" on="1"/>
        <pt x="234" y="739" on="0"/>
        <pt x="250" y="739" on="1"/>
        <pt x="255" y="739" on="0"/>
        <pt x="271" y="730" on="1"/>
        <pt x="295" y="716" on="0"/>
        <pt x="310" y="715" on="1"/>
        <pt x="311" y="715" on="0"/>
        <pt x="312" y="715" on="1"/>
        <pt x="322" y="715" on="0"/>
        <pt x="330" y="723" on="1"/>
        <pt x="337" y="730" on="0"/>
        <pt x="337" y="740" on="1"/>
        <pt x="337" y="750" on="0"/>
        <pt x="330" y="757" on="1"/>
        <pt x="323" y="764" on="0"/>
        <pt x="314" y="765" on="1"/>
        <pt x="310" y="765" on="0"/>
        <pt x="296" y="773" on="1"/>
        <pt x="268" y="789" on="0"/>
        <pt x="250" y="789" on="1"/>
        <pt x="236" y="789" on="0"/>
        <pt x="206" y="792" on="1"/>
        <pt x="175" y="795" on="0"/>
        <pt x="158" y="795" on="1"/>
        <pt x="156" y="795" on="0"/>
        <pt x="155" y="795" on="1"/>
        <pt x="105" y="788" on="0"/>
        <pt x="72" y="755" on="1"/>
        <pt x="59" y="742" on="0"/>
        <pt x="51" y="728" on="1"/>
        <pt x="3" y="663" on="0"/>
        <pt x="3" y="595" on="1"/>
        <pt x="3" y="592" on="0"/>
        <pt x="4" y="587" on="1"/>
        <pt x="4" y="581" on="0"/>
      </contour>
    </TTGlyph>
    <TTGlyph name="E.1" xMin="70" yMin="-3" xMax="403" yMax="775">
      <contour>
        <pt x="74" y="578" on="1"/>
        <pt x="74" y="569" on="0"/>
        <pt x="73" y="550" on="1"/>
        <pt x="71" y="530" on="0"/>
        <pt x="71" y="520" on="1"/>
        <pt x="71" y="470" on="0"/>
        <pt x="103" y="448" on="1"/>
        <pt x="106" y="446" on="0"/>
        <pt x="111" y="441" on="1"/>
        <pt x="115" y="435" on="0"/>
        <pt x="121" y="431" on="1"/>
        <pt x="126" y="427" on="0"/>
        <pt x="132" y="427" on="1"/>
        <pt x="132" y="427" on="0"/>
        <pt x="134" y="427" on="1"/>
        <pt x="135" y="427" on="0"/>
        <pt x="136" y="427" on="1"/>
        <pt x="141" y="427" on="0"/>
        <pt x="151" y="425" on="1"/>
        <pt x="160" y="422" on="0"/>
        <pt x="163" y="421" on="1"/>
        <pt x="170" y="420" on="0"/>
        <pt x="184" y="414" on="1"/>
        <pt x="198" y="407" on="0"/>
        <pt x="209" y="407" on="1"/>
        <pt x="153" y="381" on="0"/>
        <pt x="122" y="337" on="1"/>
        <pt x="70" y="297" on="0"/>
        <pt x="70" y="229" on="1"/>
        <pt x="70" y="220" on="0"/>
        <pt x="71" y="212" on="1"/>
        <pt x="70" y="191" on="0"/>
        <pt x="70" y="183" on="1"/>
        <pt x="70" y="139" on="0"/>
        <pt x="85" y="114" on="1"/>
        <pt x="101" y="63" on="0"/>
        <pt x="149" y="33" on="1"/>
        <pt x="197" y="2" on="0"/>
        <pt x="253" y="1" on="1"/>
        <pt x="267" y="-3" on="0"/>
        <pt x="281" y="-3" on="1"/>
        <pt x="335" y="-3" on="0"/>
        <pt x="376" y="51" on="1"/>
        <pt x="396" y="77" on="1"/>
        <pt x="396" y="77" on="0"/>
        <pt x="396" y="78" on="1"/>
        <pt x="402" y="90" on="1"/>
        <pt x="403" y="91" on="0"/>
        <pt x="403" y="92" on="1"/>
        <pt x="403" y="97" on="0"/>
        <pt x="398" y="97" on="1"/>
        <pt x="395" y="97" on="0"/>
        <pt x="393" y="94" on="1"/>
        <pt x="388" y="83" on="1"/>
        <pt x="368" y="57" on="1"/>
        <pt x="330" y="7" on="0"/>
        <pt x="281" y="7" on="1"/>
        <pt x="268" y="7" on="0"/>
        <pt x="255" y="11" on="1"/>
        <pt x="255" y="11" on="0"/>
        <pt x="254" y="11" on="1"/>
        <pt x="201" y="12" on="0"/>
        <pt x="155" y="41" on="1"/>
        <pt x="109" y="69" on="0"/>
        <pt x="95" y="117" on="1"/>
        <pt x="94" y="118" on="0"/>
        <pt x="94" y="119" on="1"/>
        <pt x="80" y="142" on="0"/>
        <pt x="80" y="183" on="1"/>
        <pt x="80" y="187" on="0"/>
        <pt x="81" y="197" on="1"/>
        <pt x="81" y="207" on="0"/>
        <pt x="81" y="212" on="1"/>
        <pt x="81" y="215" on="0"/>
        <pt x="81" y="221" on="1"/>
        <pt x="80" y="226" on="0"/>
        <pt x="80" y="229" on="1"/>
        <pt x="80" y="293" on="0"/>
        <pt x="129" y="330" on="1"/>
        <pt x="129" y="331" on="0"/>
        <pt x="130" y="331" on="1"/>
        <pt x="148" y="357" on="0"/>
        <pt x="180" y="379" on="1"/>
        <pt x="212" y="400" on="0"/>
        <pt x="239" y="407" on="1"/>
        <pt x="243" y="408" on="0"/>
        <pt x="243" y="412" on="1"/>
        <pt x="243" y="417" on="0"/>
        <pt x="238" y="417" on="1"/>
        <pt x="210" y="417" on="1"/>
        <pt x="200" y="417" on="0"/>
        <pt x="186" y="424" on="1"/>
        <pt x="172" y="430" on="0"/>
        <pt x="165" y="431" on="1"/>
        <pt x="161" y="431" on="0"/>
        <pt x="152" y="434" on="1"/>
        <pt x="142" y="437" on="0"/>
        <pt x="136" y="437" on="1"/>
        <pt x="134" y="437" on="0"/>
        <pt x="132" y="437" on="1"/>
        <pt x="127" y="437" on="0"/>
        <pt x="117" y="448" on="1"/>
        <pt x="111" y="454" on="0"/>
        <pt x="109" y="456" on="1"/>
        <pt x="81" y="475" on="0"/>
        <pt x="81" y="520" on="1"/>
        <pt x="81" y="530" on="0"/>
        <pt x="83" y="550" on="1"/>
        <pt x="84" y="569" on="0"/>
        <pt x="84" y="578" on="1"/>
        <pt x="84" y="587" on="0"/>
        <pt x="83" y="594" on="1"/>
        <pt x="83" y="595" on="1"/>
        <pt x="83" y="654" on="0"/>
        <pt x="126" y="711" on="1"/>
        <pt x="126" y="711" on="0"/>
        <pt x="126" y="712" on="1"/>
        <pt x="138" y="733" on="0"/>
        <pt x="160" y="748" on="1"/>
        <pt x="182" y="762" on="0"/>
        <pt x="208" y="765" on="1"/>
        <pt x="224" y="765" on="0"/>
        <pt x="255" y="762" on="1"/>
        <pt x="285" y="759" on="0"/>
        <pt x="300" y="759" on="1"/>
        <pt x="310" y="759" on="0"/>
        <pt x="331" y="748" on="1"/>
        <pt x="351" y="736" on="0"/>
        <pt x="361" y="735" on="1"/>
        <pt x="362" y="735" on="0"/>
        <pt x="362" y="735" on="1"/>
        <pt x="367" y="735" on="0"/>
        <pt x="367" y="740" on="1"/>
        <pt x="367" y="745" on="0"/>
        <pt x="362" y="745" on="1"/>
        <pt x="354" y="746" on="0"/>
        <pt x="336" y="756" on="1"/>
        <pt x="313" y="769" on="0"/>
        <pt x="300" y="769" on="1"/>
        <pt x="285" y="769" on="0"/>
        <pt x="255" y="772" on="1"/>
        <pt x="224" y="775" on="0"/>
        <pt x="208" y="775" on="1"/>
        <pt x="207" y="775" on="0"/>
        <pt x="207" y="775" on="1"/>
        <pt x="179" y="771" on="0"/>
        <pt x="155" y="756" on="1"/>
        <pt x="131" y="741" on="0"/>
        <pt x="118" y="717" on="1"/>
        <pt x="73" y="657" on="0"/>
        <pt x="73" y="595" on="1"/>
        <pt x="73" y="592" on="0"/>
        <pt x="74" y="587" on="1"/>
        <pt x="74" y="581" on="0"/>
      </contour>
    </TTGlyph>
    <TTGlyph name="E.2" xMin="50" yMin="-23" xMax="423" yMax="795">
      <component glyphName="E.0" x="50" y="0" flags="0x4"/>
    </TTGlyph>
    <TTGlyph name="F" xMin="50" yMin="-22" xMax="536" yMax="831">
      <contour>
        <pt x="166" y="240" on="1"/>
        <pt x="166" y="234" on="0"/>
        <pt x="163" y="207" on="0"/>
        <pt x="163" y="200" on="1"/>
        <pt x="163" y="188" on="0"/>
        <pt x="165" y="134" on="0"/>
        <pt x="165" y="122" on="1"/>
        <pt x="165" y="100" on="0"/>
        <pt x="163" y="73" on="0"/>
        <pt x="154" y="43" on="0"/>
        <pt x="134" y="28" on="0"/>
        <pt x="118" y="28" on="1"/>
        <pt x="108" y="28" on="0"/>
        <pt x="82" y="34" on="0"/>
        <pt x="77" y="34" on="1"/>
        <pt x="68" y="34" on="0"/>
        <pt x="55" y="21" on="0"/>
        <pt x="55" y="12" on="1"/>
        <pt x="55" y="-17" on="0"/>
        <pt x="117" y="-17" on="1"/>
        <pt x="210" y="-17" on="0"/>
        <pt x="210" y="122" on="1"/>
        <pt x="210" y="134" on="0"/>
        <pt x="208" y="184" on="0"/>
        <pt x="208" y="197" on="1"/>
        <pt x="208" y="207" on="0"/>
        <pt x="211" y="233" on="0"/>
        <pt x="211" y="238" on="1"/>
        <pt x="211" y="246" on="0"/>
        <pt x="210" y="279" on="0"/>
        <pt x="210" y="288" on="1"/>
        <pt x="210" y="381" on="0"/>
        <pt x="216" y="381" on="1"/>
        <pt x="300" y="378" on="1"/>
        <pt x="301" y="378" on="1"/>
        <pt x="310" y="378" on="0"/>
        <pt x="323" y="391" on="0"/>
        <pt x="323" y="400" on="1"/>
        <pt x="323" y="420" on="0"/>
        <pt x="302" y="422" on="1"/>
        <pt x="218" y="426" on="1"/>
        <pt x="216" y="426" on="0"/>
        <pt x="216" y="429" on="1"/>
        <pt x="216" y="446" on="0"/>
        <pt x="220" y="513" on="0"/>
        <pt x="220" y="531" on="1"/>
        <pt x="220" y="543" on="1"/>
        <pt x="220" y="559" on="0"/>
        <pt x="216" y="629" on="0"/>
        <pt x="216" y="647" on="1"/>
        <pt x="216" y="659" on="0"/>
        <pt x="426" y="761" on="0"/>
        <pt x="442" y="761" on="1"/>
        <pt x="460" y="761" on="0"/>
        <pt x="476" y="733" on="0"/>
        <pt x="478" y="698" on="0"/>
        <pt x="493" y="670" on="0"/>
        <pt x="509" y="670" on="1"/>
        <pt x="518" y="670" on="0"/>
        <pt x="531" y="683" on="0"/>
        <pt x="531" y="692" on="1"/>
        <pt x="531" y="734" on="0"/>
        <pt x="482" y="806" on="0"/>
        <pt x="443" y="806" on="1"/>
        <pt x="412" y="806" on="0"/>
        <pt x="346" y="771" on="0"/>
        <pt x="300" y="730" on="0"/>
        <pt x="240" y="695" on="0"/>
        <pt x="214" y="695" on="1"/>
        <pt x="214" y="696" on="0"/>
        <pt x="199" y="730" on="0"/>
        <pt x="181" y="768" on="0"/>
        <pt x="177" y="772" on="1"/>
        <pt x="127" y="820" on="1"/>
        <pt x="121" y="826" on="0"/>
        <pt x="111" y="826" on="1"/>
        <pt x="102" y="826" on="0"/>
        <pt x="89" y="814" on="0"/>
        <pt x="89" y="805" on="1"/>
        <pt x="87" y="749" on="1"/>
        <pt x="87" y="748" on="1"/>
        <pt x="87" y="728" on="0"/>
        <pt x="149" y="661" on="0"/>
        <pt x="170" y="653" on="1"/>
        <pt x="173" y="652" on="0"/>
        <pt x="175" y="629" on="0"/>
        <pt x="176" y="595" on="0"/>
        <pt x="176" y="564" on="0"/>
        <pt x="175" y="534" on="0"/>
        <pt x="175" y="532" on="1"/>
        <pt x="175" y="438" on="0"/>
        <pt x="169" y="438" on="1"/>
        <pt x="160" y="438" on="0"/>
        <pt x="123" y="446" on="0"/>
        <pt x="113" y="446" on="1"/>
        <pt x="105" y="446" on="1"/>
        <pt x="96" y="446" on="0"/>
        <pt x="83" y="433" on="0"/>
        <pt x="83" y="415" on="0"/>
        <pt x="96" y="402" on="0"/>
        <pt x="105" y="402" on="1"/>
        <pt x="113" y="402" on="1"/>
        <pt x="122" y="402" on="0"/>
        <pt x="169" y="395" on="0"/>
        <pt x="169" y="390" on="1"/>
        <pt x="169" y="373" on="0"/>
        <pt x="165" y="305" on="0"/>
        <pt x="165" y="288" on="1"/>
        <pt x="165" y="280" on="0"/>
        <pt x="166" y="248" on="0"/>
      </contour>
      <contour>
        <pt x="216" y="238" on="1"/>
        <pt x="216" y="233" on="0"/>
        <pt x="213" y="207" on="0"/>
        <pt x="213" y="197" on="1"/>
        <pt x="213" y="185" on="0"/>
        <pt x="215" y="135" on="0"/>
        <pt x="215" y="122" on="1"/>
        <pt x="215" y="-22" on="0"/>
        <pt x="117" y="-22" on="1"/>
        <pt x="50" y="-22" on="0"/>
        <pt x="50" y="12" on="1"/>
        <pt x="50" y="23" on="0"/>
        <pt x="66" y="39" on="0"/>
        <pt x="77" y="39" on="1"/>
        <pt x="82" y="39" on="0"/>
        <pt x="108" y="33" on="0"/>
        <pt x="118" y="33" on="1"/>
        <pt x="137" y="33" on="0"/>
        <pt x="157" y="62" on="0"/>
        <pt x="160" y="93" on="0"/>
        <pt x="160" y="122" on="1"/>
        <pt x="160" y="134" on="0"/>
        <pt x="158" y="188" on="0"/>
        <pt x="158" y="200" on="1"/>
        <pt x="158" y="220" on="0"/>
        <pt x="161" y="240" on="1"/>
        <pt x="160" y="256" on="0"/>
        <pt x="160" y="288" on="1"/>
        <pt x="160" y="322" on="0"/>
        <pt x="164" y="388" on="1"/>
        <pt x="130" y="397" on="0"/>
        <pt x="113" y="397" on="1"/>
        <pt x="105" y="397" on="1"/>
        <pt x="94" y="397" on="0"/>
        <pt x="78" y="413" on="0"/>
        <pt x="78" y="435" on="0"/>
        <pt x="94" y="451" on="0"/>
        <pt x="105" y="451" on="1"/>
        <pt x="113" y="451" on="1"/>
        <pt x="137" y="451" on="0"/>
        <pt x="167" y="444" on="1"/>
        <pt x="172" y="533" on="0"/>
        <pt x="166" y="649" on="1"/>
        <pt x="145" y="658" on="0"/>
        <pt x="82" y="728" on="0"/>
        <pt x="82" y="748" on="1"/>
        <pt x="82" y="749" on="1"/>
        <pt x="84" y="805" on="1"/>
        <pt x="85" y="816" on="0"/>
        <pt x="100" y="831" on="0"/>
        <pt x="111" y="831" on="1"/>
        <pt x="123" y="831" on="0"/>
        <pt x="130" y="824" on="1"/>
        <pt x="180" y="776" on="1"/>
        <pt x="205" y="751" on="0"/>
        <pt x="215" y="701" on="1"/>
        <pt x="245" y="710" on="0"/>
        <pt x="323" y="767" on="0"/>
        <pt x="402" y="811" on="0"/>
        <pt x="484" y="811" on="0"/>
        <pt x="536" y="737" on="0"/>
        <pt x="536" y="692" on="1"/>
        <pt x="536" y="681" on="0"/>
        <pt x="520" y="665" on="0"/>
        <pt x="509" y="665" on="1"/>
        <pt x="492" y="665" on="0"/>
        <pt x="476" y="693" on="0"/>
        <pt x="474" y="728" on="0"/>
        <pt x="458" y="756" on="0"/>
        <pt x="442" y="756" on="1"/>
        <pt x="411" y="756" on="0"/>
        <pt x="334" y="708" on="0"/>
        <pt x="252" y="652" on="0"/>
        <pt x="222" y="645" on="1"/>
        <pt x="222" y="634" on="0"/>
        <pt x="224" y="591" on="0"/>
        <pt x="225" y="557" on="0"/>
        <pt x="225" y="543" on="1"/>
        <pt x="225" y="531" on="1"/>
        <pt x="225" y="497" on="0"/>
        <pt x="221" y="431" on="1"/>
        <pt x="302" y="427" on="1"/>
        <pt x="313" y="426" on="0"/>
        <pt x="328" y="410" on="0"/>
        <pt x="328" y="400" on="1"/>
        <pt x="328" y="389" on="0"/>
        <pt x="312" y="373" on="0"/>
        <pt x="301" y="373" on="1"/>
        <pt x="300" y="373" on="1"/>
        <pt x="218" y="376" on="1"/>
        <pt x="215" y="331" on="0"/>
        <pt x="215" y="288" on="1"/>
        <pt x="215" y="279" on="0"/>
        <pt x="216" y="246" on="0"/>
      </contour>
    </TTGlyph>
    <TTGlyph name="F.0" xMin="0" yMin="-19" xMax="482" yMax="829">
      <contour>
        <pt x="53" y="399" on="1"/>
        <pt x="61" y="399" on="1"/>
        <pt x="74" y="399" on="0"/>
        <pt x="91" y="396" on="1"/>
        <pt x="107" y="392" on="0"/>
        <pt x="128" y="387" on="1"/>
        <pt x="148" y="381" on="0"/>
        <pt x="158" y="379" on="1"/>
        <pt x="160" y="379" on="0"/>
        <pt x="162" y="379" on="1"/>
        <pt x="248" y="375" on="1"/>
        <pt x="248" y="375" on="0"/>
        <pt x="249" y="375" on="1"/>
        <pt x="259" y="375" on="0"/>
        <pt x="267" y="383" on="1"/>
        <pt x="274" y="390" on="0"/>
        <pt x="274" y="400" on="1"/>
        <pt x="274" y="410" on="0"/>
        <pt x="267" y="418" on="1"/>
        <pt x="260" y="425" on="0"/>
        <pt x="250" y="425" on="1"/>
        <pt x="166" y="429" on="1"/>
        <pt x="156" y="431" on="0"/>
        <pt x="135" y="437" on="1"/>
        <pt x="114" y="442" on="0"/>
        <pt x="96" y="446" on="1"/>
        <pt x="78" y="449" on="0"/>
        <pt x="61" y="449" on="1"/>
        <pt x="53" y="449" on="1"/>
        <pt x="43" y="449" on="0"/>
        <pt x="36" y="442" on="1"/>
        <pt x="28" y="434" on="0"/>
        <pt x="28" y="424" on="1"/>
        <pt x="28" y="414" on="0"/>
        <pt x="36" y="407" on="1"/>
        <pt x="43" y="399" on="0"/>
      </contour>
      <contour>
        <pt x="111" y="286" on="1"/>
        <pt x="111" y="262" on="0"/>
        <pt x="112" y="240" on="1"/>
        <pt x="109" y="224" on="0"/>
        <pt x="109" y="200" on="1"/>
        <pt x="109" y="187" on="0"/>
        <pt x="110" y="161" on="1"/>
        <pt x="111" y="135" on="0"/>
        <pt x="111" y="122" on="1"/>
        <pt x="111" y="96" on="0"/>
        <pt x="108" y="79" on="1"/>
        <pt x="104" y="51" on="0"/>
        <pt x="93" y="40" on="1"/>
        <pt x="84" y="31" on="0"/>
        <pt x="66" y="31" on="1"/>
        <pt x="65" y="31" on="0"/>
        <pt x="56" y="31" on="1"/>
        <pt x="41" y="32" on="0"/>
        <pt x="37" y="34" on="1"/>
        <pt x="32" y="37" on="0"/>
        <pt x="25" y="37" on="1"/>
        <pt x="15" y="37" on="0"/>
        <pt x="8" y="30" on="1"/>
        <pt x="0" y="22" on="0"/>
        <pt x="0" y="12" on="1"/>
        <pt x="0" y="-2" on="0"/>
        <pt x="13" y="-10" on="1"/>
        <pt x="26" y="-18" on="0"/>
        <pt x="53" y="-19" on="1"/>
        <pt x="63" y="-19" on="0"/>
        <pt x="65" y="-19" on="1"/>
        <pt x="104" y="-19" on="0"/>
        <pt x="128" y="5" on="1"/>
        <pt x="151" y="27" on="0"/>
        <pt x="157" y="71" on="1"/>
        <pt x="161" y="92" on="0"/>
        <pt x="161" y="121" on="1"/>
        <pt x="161" y="134" on="0"/>
        <pt x="160" y="160" on="1"/>
        <pt x="159" y="185" on="0"/>
        <pt x="159" y="197" on="1"/>
        <pt x="159" y="222" on="0"/>
        <pt x="161" y="233" on="1"/>
        <pt x="162" y="235" on="0"/>
        <pt x="162" y="238" on="1"/>
        <pt x="162" y="239" on="0"/>
        <pt x="162" y="239" on="1"/>
        <pt x="161" y="261" on="0"/>
        <pt x="161" y="286" on="1"/>
        <pt x="161" y="326" on="0"/>
        <pt x="166" y="407" on="1"/>
        <pt x="170" y="488" on="0"/>
        <pt x="170" y="529" on="1"/>
        <pt x="170" y="549" on="0"/>
        <pt x="170" y="552" on="1"/>
        <pt x="168" y="569" on="0"/>
        <pt x="168" y="603" on="1"/>
        <pt x="167" y="637" on="0"/>
        <pt x="167" y="647" on="1"/>
        <pt x="184" y="651" on="0"/>
        <pt x="205" y="661" on="1"/>
        <pt x="228" y="672" on="0"/>
        <pt x="275" y="703" on="1"/>
        <pt x="347" y="752" on="0"/>
        <pt x="379" y="757" on="1"/>
        <pt x="384" y="758" on="0"/>
        <pt x="389" y="758" on="1"/>
        <pt x="405" y="758" on="0"/>
        <pt x="412" y="752" on="1"/>
        <pt x="416" y="748" on="0"/>
        <pt x="416" y="740" on="1"/>
        <pt x="416" y="731" on="0"/>
        <pt x="421" y="725" on="1"/>
        <pt x="423" y="722" on="0"/>
        <pt x="426" y="708" on="1"/>
        <pt x="430" y="689" on="0"/>
        <pt x="435" y="679" on="1"/>
        <pt x="443" y="667" on="0"/>
        <pt x="457" y="667" on="1"/>
        <pt x="467" y="667" on="0"/>
        <pt x="475" y="675" on="1"/>
        <pt x="482" y="682" on="0"/>
        <pt x="482" y="692" on="1"/>
        <pt x="482" y="699" on="0"/>
        <pt x="479" y="705" on="1"/>
        <pt x="477" y="707" on="0"/>
        <pt x="475" y="718" on="1"/>
        <pt x="471" y="739" on="0"/>
        <pt x="465" y="748" on="1"/>
        <pt x="463" y="771" on="0"/>
        <pt x="447" y="787" on="1"/>
        <pt x="426" y="808" on="0"/>
        <pt x="390" y="808" on="1"/>
        <pt x="381" y="808" on="0"/>
        <pt x="371" y="807" on="1"/>
        <pt x="350" y="803" on="0"/>
        <pt x="325" y="792" on="1"/>
        <pt x="300" y="780" on="0"/>
        <pt x="288" y="772" on="1"/>
        <pt x="276" y="764" on="0"/>
        <pt x="247" y="745" on="1"/>
        <pt x="203" y="716" on="0"/>
        <pt x="183" y="706" on="1"/>
        <pt x="172" y="700" on="0"/>
        <pt x="161" y="698" on="1"/>
        <pt x="153" y="743" on="0"/>
        <pt x="128" y="772" on="1"/>
        <pt x="127" y="773" on="0"/>
        <pt x="126" y="774" on="1"/>
        <pt x="76" y="822" on="1"/>
        <pt x="69" y="829" on="0"/>
        <pt x="59" y="829" on="1"/>
        <pt x="49" y="829" on="0"/>
        <pt x="41" y="822" on="1"/>
        <pt x="34" y="815" on="0"/>
        <pt x="34" y="805" on="1"/>
        <pt x="32" y="749" on="1"/>
        <pt x="32" y="748" on="0"/>
        <pt x="32" y="748" on="1"/>
        <pt x="32" y="737" on="0"/>
        <pt x="40" y="729" on="1"/>
        <pt x="45" y="725" on="0"/>
        <pt x="58" y="707" on="1"/>
        <pt x="90" y="662" on="0"/>
        <pt x="117" y="651" on="1"/>
        <pt x="117" y="637" on="0"/>
        <pt x="118" y="602" on="1"/>
        <pt x="118" y="567" on="0"/>
        <pt x="120" y="549" on="1"/>
        <pt x="120" y="539" on="0"/>
        <pt x="120" y="529" on="1"/>
        <pt x="120" y="489" on="0"/>
        <pt x="116" y="408" on="1"/>
        <pt x="111" y="327" on="0"/>
      </contour>
    </TTGlyph>
    <TTGlyph name="F.1" xMin="70" yMin="-1" xMax="512" yMax="809">
      <contour>
        <pt x="103" y="419" on="1"/>
        <pt x="111" y="419" on="1"/>
        <pt x="126" y="419" on="0"/>
        <pt x="143" y="416" on="1"/>
        <pt x="160" y="412" on="0"/>
        <pt x="181" y="407" on="1"/>
        <pt x="202" y="401" on="0"/>
        <pt x="212" y="399" on="1"/>
        <pt x="212" y="399" on="0"/>
        <pt x="213" y="399" on="1"/>
        <pt x="299" y="395" on="1"/>
        <pt x="304" y="395" on="0"/>
        <pt x="304" y="400" on="1"/>
        <pt x="304" y="405" on="0"/>
        <pt x="299" y="405" on="1"/>
        <pt x="214" y="409" on="1"/>
        <pt x="203" y="411" on="0"/>
        <pt x="182" y="417" on="1"/>
        <pt x="161" y="422" on="0"/>
        <pt x="144" y="426" on="1"/>
        <pt x="126" y="429" on="0"/>
        <pt x="111" y="429" on="1"/>
        <pt x="103" y="429" on="1"/>
        <pt x="98" y="429" on="0"/>
        <pt x="98" y="424" on="1"/>
        <pt x="98" y="419" on="0"/>
      </contour>
      <contour>
        <pt x="181" y="286" on="1"/>
        <pt x="181" y="261" on="0"/>
        <pt x="182" y="238" on="1"/>
        <pt x="179" y="224" on="0"/>
        <pt x="179" y="199" on="1"/>
        <pt x="179" y="186" on="0"/>
        <pt x="180" y="160" on="1"/>
        <pt x="181" y="134" on="0"/>
        <pt x="181" y="122" on="1"/>
        <pt x="181" y="69" on="0"/>
        <pt x="168" y="40" on="1"/>
        <pt x="154" y="11" on="0"/>
        <pt x="115" y="11" on="1"/>
        <pt x="112" y="11" on="0"/>
        <pt x="109" y="11" on="1"/>
        <pt x="85" y="12" on="0"/>
        <pt x="77" y="16" on="1"/>
        <pt x="76" y="17" on="0"/>
        <pt x="75" y="17" on="1"/>
        <pt x="70" y="17" on="0"/>
        <pt x="70" y="12" on="1"/>
        <pt x="70" y="9" on="0"/>
        <pt x="73" y="8" on="1"/>
        <pt x="82" y="2" on="0"/>
        <pt x="109" y="1" on="1"/>
        <pt x="134" y="-1" on="0"/>
        <pt x="152" y="9" on="1"/>
        <pt x="169" y="18" on="0"/>
        <pt x="177" y="37" on="1"/>
        <pt x="185" y="56" on="0"/>
        <pt x="188" y="76" on="1"/>
        <pt x="191" y="95" on="0"/>
        <pt x="191" y="122" on="1"/>
        <pt x="191" y="134" on="0"/>
        <pt x="190" y="160" on="1"/>
        <pt x="189" y="186" on="0"/>
        <pt x="189" y="199" on="1"/>
        <pt x="189" y="223" on="0"/>
        <pt x="192" y="237" on="1"/>
        <pt x="192" y="237" on="0"/>
        <pt x="192" y="238" on="1"/>
        <pt x="191" y="261" on="0"/>
        <pt x="191" y="286" on="1"/>
        <pt x="191" y="326" on="0"/>
        <pt x="196" y="407" on="1"/>
        <pt x="200" y="488" on="0"/>
        <pt x="200" y="529" on="1"/>
        <pt x="200" y="548" on="0"/>
        <pt x="200" y="550" on="1"/>
        <pt x="198" y="569" on="0"/>
        <pt x="198" y="608" on="1"/>
        <pt x="197" y="647" on="0"/>
        <pt x="196" y="665" on="1"/>
        <pt x="213" y="665" on="0"/>
        <pt x="236" y="675" on="1"/>
        <pt x="258" y="684" on="0"/>
        <pt x="272" y="693" on="1"/>
        <pt x="286" y="701" on="0"/>
        <pt x="314" y="720" on="1"/>
        <pt x="390" y="771" on="0"/>
        <pt x="426" y="777" on="1"/>
        <pt x="433" y="778" on="0"/>
        <pt x="440" y="778" on="1"/>
        <pt x="460" y="778" on="0"/>
        <pt x="473" y="769" on="1"/>
        <pt x="486" y="759" on="0"/>
        <pt x="486" y="740" on="1"/>
        <pt x="486" y="738" on="0"/>
        <pt x="487" y="737" on="1"/>
        <pt x="492" y="731" on="0"/>
        <pt x="496" y="714" on="1"/>
        <pt x="499" y="696" on="0"/>
        <pt x="503" y="689" on="1"/>
        <pt x="504" y="687" on="0"/>
        <pt x="507" y="687" on="1"/>
        <pt x="512" y="687" on="0"/>
        <pt x="512" y="692" on="1"/>
        <pt x="512" y="693" on="0"/>
        <pt x="511" y="695" on="1"/>
        <pt x="508" y="700" on="0"/>
        <pt x="505" y="714" on="1"/>
        <pt x="501" y="734" on="0"/>
        <pt x="496" y="742" on="1"/>
        <pt x="495" y="759" on="0"/>
        <pt x="472" y="775" on="1"/>
        <pt x="449" y="791" on="0"/>
        <pt x="439" y="791" on="1"/>
        <pt x="438" y="791" on="0"/>
        <pt x="438" y="791" on="1"/>
        <pt x="438" y="790" on="0"/>
        <pt x="440" y="788" on="1"/>
        <pt x="432" y="788" on="0"/>
        <pt x="424" y="787" on="1"/>
        <pt x="406" y="784" on="0"/>
        <pt x="384" y="774" on="1"/>
        <pt x="362" y="763" on="0"/>
        <pt x="348" y="755" on="1"/>
        <pt x="334" y="746" on="0"/>
        <pt x="308" y="728" on="1"/>
        <pt x="282" y="711" on="0"/>
        <pt x="267" y="702" on="1"/>
        <pt x="251" y="692" on="0"/>
        <pt x="231" y="684" on="1"/>
        <pt x="210" y="675" on="0"/>
        <pt x="195" y="675" on="1"/>
        <pt x="189" y="729" on="0"/>
        <pt x="163" y="759" on="1"/>
        <pt x="163" y="759" on="0"/>
        <pt x="162" y="760" on="1"/>
        <pt x="112" y="808" on="1"/>
        <pt x="111" y="809" on="0"/>
        <pt x="109" y="809" on="1"/>
        <pt x="104" y="809" on="0"/>
        <pt x="104" y="804" on="1"/>
        <pt x="102" y="748" on="1"/>
        <pt x="102" y="746" on="0"/>
        <pt x="104" y="744" on="1"/>
        <pt x="111" y="738" on="0"/>
        <pt x="125" y="718" on="1"/>
        <pt x="135" y="703" on="0"/>
        <pt x="141" y="695" on="1"/>
        <pt x="147" y="687" on="0"/>
        <pt x="160" y="678" on="1"/>
        <pt x="172" y="668" on="0"/>
        <pt x="186" y="666" on="1"/>
        <pt x="187" y="647" on="0"/>
        <pt x="188" y="608" on="1"/>
        <pt x="188" y="569" on="0"/>
        <pt x="190" y="550" on="1"/>
        <pt x="190" y="540" on="0"/>
        <pt x="190" y="529" on="1"/>
        <pt x="190" y="488" on="0"/>
        <pt x="186" y="407" on="1"/>
        <pt x="181" y="326" on="0"/>
      </contour>
      <contour>
        <pt x="155" y="753" on="1"/>
        <pt x="178" y="725" on="0"/>
        <pt x="184" y="676" on="1"/>
        <pt x="174" y="679" on="0"/>
        <pt x="164" y="687" on="1"/>
        <pt x="154" y="695" on="0"/>
        <pt x="148" y="703" on="1"/>
        <pt x="142" y="710" on="0"/>
        <pt x="133" y="724" on="1"/>
        <pt x="119" y="743" on="0"/>
        <pt x="112" y="750" on="1"/>
        <pt x="114" y="793" on="1"/>
      </contour>
    </TTGlyph>
    <TTGlyph name="F.2" xMin="50" yMin="-19" xMax="532" yMax="829">
      <component glyphName="F.0" x="50" y="0" flags="0x4"/>
    </TTGlyph>
    <TTGlyph name="G" xMin="50" yMin="-25" xMax="519" yMax="801">
      <contour>
        <pt x="368" y="134" on="1"/>
        <pt x="368" y="156" on="0"/>
        <pt x="326" y="218" on="0"/>
        <pt x="326" y="232" on="1"/>
        <pt x="326" y="236" on="0"/>
        <pt x="324" y="248" on="0"/>
        <pt x="324" y="252" on="1"/>
        <pt x="324" y="259" on="0"/>
        <pt x="345" y="268" on="0"/>
        <pt x="367" y="268" on="0"/>
        <pt x="411" y="270" on="0"/>
        <pt x="421" y="270" on="1"/>
        <pt x="439" y="270" on="0"/>
        <pt x="441" y="266" on="1"/>
        <pt x="443" y="262" on="0"/>
        <pt x="443" y="254" on="1"/>
        <pt x="443" y="229" on="0"/>
        <pt x="399" y="128" on="0"/>
        <pt x="399" y="98" on="1"/>
        <pt x="399" y="78" on="0"/>
        <pt x="429" y="40" on="0"/>
        <pt x="444" y="38" on="1"/>
        <pt x="490" y="34" on="1"/>
        <pt x="492" y="34" on="1"/>
        <pt x="501" y="34" on="0"/>
        <pt x="514" y="47" on="0"/>
        <pt x="514" y="65" on="0"/>
        <pt x="502" y="77" on="0"/>
        <pt x="493" y="78" on="1"/>
        <pt x="458" y="81" on="1"/>
        <pt x="455" y="81" on="0"/>
        <pt x="448" y="90" on="0"/>
        <pt x="446" y="94" on="1"/>
        <pt x="444" y="98" on="1"/>
        <pt x="444" y="123" on="0"/>
        <pt x="488" y="224" on="0"/>
        <pt x="488" y="254" on="1"/>
        <pt x="488" y="315" on="0"/>
        <pt x="420" y="315" on="1"/>
        <pt x="410" y="315" on="0"/>
        <pt x="366" y="312" on="0"/>
        <pt x="356" y="312" on="1"/>
        <pt x="327" y="312" on="0"/>
        <pt x="279" y="280" on="0"/>
        <pt x="279" y="252" on="1"/>
        <pt x="279" y="248" on="0"/>
        <pt x="281" y="236" on="0"/>
        <pt x="281" y="232" on="1"/>
        <pt x="281" y="210" on="0"/>
        <pt x="323" y="149" on="0"/>
        <pt x="323" y="134" on="1"/>
        <pt x="323" y="87" on="0"/>
        <pt x="264" y="25" on="0"/>
        <pt x="220" y="25" on="1"/>
        <pt x="194" y="25" on="0"/>
        <pt x="153" y="82" on="0"/>
        <pt x="128" y="179" on="0"/>
        <pt x="111" y="286" on="0"/>
        <pt x="103" y="407" on="0"/>
        <pt x="100" y="488" on="0"/>
        <pt x="100" y="522" on="1"/>
        <pt x="100" y="618" on="0"/>
        <pt x="194" y="752" on="0"/>
        <pt x="282" y="752" on="1"/>
        <pt x="316" y="752" on="0"/>
        <pt x="373" y="732" on="0"/>
        <pt x="403" y="712" on="0"/>
        <pt x="429" y="690" on="1"/>
        <pt x="434" y="686" on="0"/>
        <pt x="444" y="686" on="1"/>
        <pt x="453" y="686" on="0"/>
        <pt x="466" y="699" on="0"/>
        <pt x="466" y="708" on="1"/>
        <pt x="466" y="745" on="0"/>
        <pt x="337" y="796" on="0"/>
        <pt x="283" y="796" on="1"/>
        <pt x="211" y="796" on="0"/>
        <pt x="105" y="717" on="0"/>
        <pt x="55" y="595" on="0"/>
        <pt x="55" y="523" on="1"/>
        <pt x="55" y="467" on="0"/>
        <pt x="58" y="377" on="0"/>
        <pt x="67" y="252" on="0"/>
        <pt x="88" y="155" on="0"/>
        <pt x="120" y="60" on="0"/>
        <pt x="173" y="-5" on="0"/>
        <pt x="207" y="-19" on="1"/>
        <pt x="210" y="-20" on="0"/>
        <pt x="216" y="-20" on="1"/>
        <pt x="279" y="-20" on="0"/>
        <pt x="363" y="70" on="0"/>
        <pt x="369" y="132" on="1"/>
        <pt x="368" y="133" on="0"/>
      </contour>
      <contour>
        <pt x="438" y="254" on="1"/>
        <pt x="438" y="262" on="0"/>
        <pt x="433" y="265" on="0"/>
        <pt x="425" y="265" on="1"/>
        <pt x="423" y="265" on="0"/>
        <pt x="421" y="265" on="1"/>
        <pt x="411" y="265" on="0"/>
        <pt x="367" y="263" on="0"/>
        <pt x="356" y="263" on="1"/>
        <pt x="348" y="263" on="0"/>
        <pt x="329" y="256" on="0"/>
        <pt x="329" y="253" on="1"/>
        <pt x="329" y="252" on="1"/>
        <pt x="329" y="249" on="0"/>
        <pt x="331" y="236" on="0"/>
        <pt x="331" y="232" on="1"/>
        <pt x="331" y="220" on="0"/>
        <pt x="374" y="157" on="0"/>
        <pt x="374" y="135" on="1"/>
        <pt x="374" y="134" on="1"/>
        <pt x="374" y="75" on="0"/>
        <pt x="279" y="-25" on="0"/>
        <pt x="216" y="-25" on="1"/>
        <pt x="179" y="-25" on="0"/>
        <pt x="121" y="33" on="0"/>
        <pt x="86" y="137" on="0"/>
        <pt x="63" y="248" on="0"/>
        <pt x="53" y="385" on="0"/>
        <pt x="50" y="475" on="0"/>
        <pt x="50" y="523" on="1"/>
        <pt x="50" y="637" on="0"/>
        <pt x="173" y="801" on="0"/>
        <pt x="283" y="801" on="1"/>
        <pt x="341" y="801" on="0"/>
        <pt x="471" y="748" on="0"/>
        <pt x="471" y="708" on="1"/>
        <pt x="471" y="697" on="0"/>
        <pt x="455" y="681" on="0"/>
        <pt x="444" y="681" on="1"/>
        <pt x="423" y="681" on="0"/>
        <pt x="373" y="714" on="0"/>
        <pt x="314" y="747" on="0"/>
        <pt x="282" y="747" on="1"/>
        <pt x="196" y="747" on="0"/>
        <pt x="105" y="616" on="0"/>
        <pt x="105" y="522" on="1"/>
        <pt x="105" y="88" on="0"/>
        <pt x="221" y="30" on="1"/>
        <pt x="265" y="34" on="0"/>
        <pt x="318" y="88" on="0"/>
        <pt x="318" y="134" on="1"/>
        <pt x="318" y="148" on="0"/>
        <pt x="276" y="210" on="0"/>
        <pt x="276" y="232" on="1"/>
        <pt x="276" y="236" on="0"/>
        <pt x="274" y="248" on="0"/>
        <pt x="274" y="252" on="1"/>
        <pt x="274" y="283" on="0"/>
        <pt x="325" y="317" on="0"/>
        <pt x="356" y="317" on="1"/>
        <pt x="366" y="317" on="0"/>
        <pt x="410" y="320" on="0"/>
        <pt x="420" y="320" on="1"/>
        <pt x="454" y="320" on="0"/>
        <pt x="493" y="286" on="0"/>
        <pt x="493" y="254" on="1"/>
        <pt x="493" y="224" on="0"/>
        <pt x="449" y="122" on="0"/>
        <pt x="449" y="98" on="1"/>
        <pt x="456" y="89" on="0"/>
        <pt x="459" y="86" on="1"/>
        <pt x="494" y="83" on="1"/>
        <pt x="504" y="82" on="0"/>
        <pt x="519" y="67" on="0"/>
        <pt x="519" y="45" on="0"/>
        <pt x="503" y="29" on="0"/>
        <pt x="492" y="29" on="1"/>
        <pt x="489" y="29" on="1"/>
        <pt x="443" y="33" on="1"/>
        <pt x="426" y="35" on="0"/>
        <pt x="394" y="76" on="0"/>
        <pt x="394" y="98" on="1"/>
        <pt x="394" y="128" on="0"/>
        <pt x="438" y="230" on="0"/>
      </contour>
    </TTGlyph>
    <TTGlyph name="G.0" xMin="0" yMin="-22" xMax="464" yMax="799">
      <contour>
        <pt x="276" y="233" on="1"/>
        <pt x="276" y="237" on="0"/>
        <pt x="275" y="244" on="1"/>
        <pt x="274" y="251" on="0"/>
        <pt x="274" y="253" on="1"/>
        <pt x="274" y="255" on="0"/>
        <pt x="276" y="257" on="1"/>
        <pt x="285" y="266" on="0"/>
        <pt x="303" y="266" on="1"/>
        <pt x="314" y="266" on="0"/>
        <pt x="336" y="267" on="1"/>
        <pt x="357" y="268" on="0"/>
        <pt x="366" y="268" on="1"/>
        <pt x="373" y="268" on="0"/>
        <pt x="378" y="268" on="1"/>
        <pt x="384" y="267" on="0"/>
        <pt x="386" y="265" on="1"/>
        <pt x="388" y="254" on="1"/>
        <pt x="388" y="232" on="0"/>
        <pt x="368" y="186" on="1"/>
        <pt x="344" y="131" on="0"/>
        <pt x="344" y="98" on="1"/>
        <pt x="344" y="76" on="0"/>
        <pt x="365" y="54" on="1"/>
        <pt x="371" y="48" on="0"/>
        <pt x="372" y="46" on="1"/>
        <pt x="379" y="36" on="0"/>
        <pt x="391" y="35" on="1"/>
        <pt x="437" y="31" on="1"/>
        <pt x="438" y="31" on="0"/>
        <pt x="439" y="31" on="1"/>
        <pt x="449" y="31" on="0"/>
        <pt x="457" y="39" on="1"/>
        <pt x="464" y="46" on="0"/>
        <pt x="464" y="56" on="1"/>
        <pt x="464" y="66" on="0"/>
        <pt x="458" y="73" on="1"/>
        <pt x="451" y="80" on="0"/>
        <pt x="441" y="81" on="1"/>
        <pt x="406" y="84" on="1"/>
        <pt x="405" y="85" on="0"/>
        <pt x="402" y="88" on="1"/>
        <pt x="394" y="96" on="0"/>
        <pt x="394" y="98" on="1"/>
        <pt x="394" y="120" on="0"/>
        <pt x="414" y="166" on="1"/>
        <pt x="438" y="221" on="0"/>
        <pt x="438" y="254" on="1"/>
        <pt x="438" y="284" on="0"/>
        <pt x="421" y="301" on="1"/>
        <pt x="408" y="314" on="0"/>
        <pt x="384" y="317" on="1"/>
        <pt x="376" y="319" on="0"/>
        <pt x="366" y="319" on="1"/>
        <pt x="355" y="319" on="0"/>
        <pt x="335" y="318" on="1"/>
        <pt x="314" y="316" on="0"/>
        <pt x="303" y="316" on="1"/>
        <pt x="264" y="316" on="0"/>
        <pt x="241" y="293" on="1"/>
        <pt x="224" y="276" on="0"/>
        <pt x="224" y="253" on="1"/>
        <pt x="224" y="249" on="0"/>
        <pt x="225" y="243" on="1"/>
        <pt x="226" y="236" on="0"/>
        <pt x="226" y="233" on="1"/>
        <pt x="226" y="209" on="0"/>
        <pt x="250" y="173" on="1"/>
        <pt x="268" y="147" on="0"/>
        <pt x="268" y="135" on="1"/>
        <pt x="268" y="87" on="0"/>
        <pt x="243" y="63" on="1"/>
        <pt x="243" y="62" on="0"/>
        <pt x="243" y="62" on="1"/>
        <pt x="215" y="32" on="0"/>
        <pt x="168" y="28" on="1"/>
        <pt x="155" y="35" on="0"/>
        <pt x="143" y="46" on="1"/>
        <pt x="101" y="89" on="0"/>
        <pt x="78" y="200" on="1"/>
        <pt x="61" y="284" on="0"/>
        <pt x="54" y="446" on="1"/>
        <pt x="52" y="484" on="0"/>
        <pt x="52" y="487" on="1"/>
        <pt x="50" y="504" on="0"/>
        <pt x="50" y="522" on="1"/>
        <pt x="50" y="576" on="0"/>
        <pt x="67" y="624" on="1"/>
        <pt x="83" y="672" on="0"/>
        <pt x="114" y="703" on="1"/>
        <pt x="160" y="749" on="0"/>
        <pt x="230" y="749" on="1"/>
        <pt x="249" y="749" on="0"/>
        <pt x="271" y="745" on="1"/>
        <pt x="272" y="745" on="0"/>
        <pt x="274" y="745" on="1"/>
        <pt x="293" y="744" on="0"/>
        <pt x="316" y="732" on="1"/>
        <pt x="333" y="723" on="0"/>
        <pt x="375" y="689" on="1"/>
        <pt x="382" y="683" on="0"/>
        <pt x="391" y="683" on="1"/>
        <pt x="401" y="683" on="0"/>
        <pt x="409" y="691" on="1"/>
        <pt x="416" y="698" on="0"/>
        <pt x="416" y="708" on="1"/>
        <pt x="416" y="720" on="0"/>
        <pt x="407" y="727" on="1"/>
        <pt x="405" y="729" on="0"/>
        <pt x="393" y="739" on="1"/>
        <pt x="381" y="749" on="0"/>
        <pt x="377" y="752" on="1"/>
        <pt x="372" y="755" on="0"/>
        <pt x="361" y="764" on="1"/>
        <pt x="349" y="772" on="0"/>
        <pt x="342" y="776" on="1"/>
        <pt x="334" y="779" on="0"/>
        <pt x="323" y="785" on="1"/>
        <pt x="311" y="790" on="0"/>
        <pt x="300" y="792" on="1"/>
        <pt x="289" y="794" on="0"/>
        <pt x="278" y="795" on="1"/>
        <pt x="254" y="799" on="0"/>
        <pt x="231" y="799" on="1"/>
        <pt x="140" y="799" on="0"/>
        <pt x="79" y="738" on="1"/>
        <pt x="40" y="699" on="0"/>
        <pt x="20" y="643" on="1"/>
        <pt x="0" y="586" on="0"/>
        <pt x="0" y="523" on="1"/>
        <pt x="0" y="502" on="0"/>
        <pt x="2" y="482" on="1"/>
        <pt x="3" y="471" on="0"/>
        <pt x="4" y="444" on="1"/>
        <pt x="12" y="278" on="0"/>
        <pt x="29" y="190" on="1"/>
        <pt x="54" y="64" on="0"/>
        <pt x="108" y="11" on="1"/>
        <pt x="129" y="-10" on="0"/>
        <pt x="154" y="-20" on="1"/>
        <pt x="158" y="-22" on="0"/>
        <pt x="163" y="-22" on="1"/>
        <pt x="163" y="-22" on="0"/>
        <pt x="164" y="-22" on="1"/>
        <pt x="235" y="-20" on="0"/>
        <pt x="279" y="28" on="1"/>
        <pt x="296" y="45" on="0"/>
        <pt x="308" y="84" on="1"/>
        <pt x="319" y="122" on="0"/>
        <pt x="319" y="135" on="1"/>
        <pt x="319" y="136" on="0"/>
        <pt x="319" y="136" on="1"/>
        <pt x="318" y="136" on="0"/>
        <pt x="318" y="135" on="1"/>
        <pt x="318" y="162" on="0"/>
        <pt x="292" y="201" on="1"/>
        <pt x="276" y="224" on="0"/>
      </contour>
    </TTGlyph>
    <TTGlyph name="G.1" xMin="70" yMin="-2" xMax="494" yMax="779">
      <contour>
        <pt x="304" y="253" on="1"/>
        <pt x="304" y="268" on="0"/>
        <pt x="319" y="277" on="1"/>
        <pt x="334" y="286" on="0"/>
        <pt x="353" y="286" on="1"/>
        <pt x="364" y="286" on="0"/>
        <pt x="385" y="288" on="1"/>
        <pt x="406" y="289" on="0"/>
        <pt x="416" y="289" on="1"/>
        <pt x="436" y="289" on="0"/>
        <pt x="445" y="284" on="1"/>
        <pt x="458" y="276" on="0"/>
        <pt x="458" y="254" on="1"/>
        <pt x="458" y="227" on="0"/>
        <pt x="436" y="177" on="1"/>
        <pt x="414" y="126" on="0"/>
        <pt x="414" y="98" on="1"/>
        <pt x="414" y="89" on="0"/>
        <pt x="418" y="82" on="1"/>
        <pt x="422" y="75" on="0"/>
        <pt x="430" y="68" on="1"/>
        <pt x="437" y="61" on="0"/>
        <pt x="439" y="57" on="1"/>
        <pt x="440" y="55" on="0"/>
        <pt x="443" y="55" on="1"/>
        <pt x="489" y="51" on="1"/>
        <pt x="494" y="51" on="0"/>
        <pt x="494" y="56" on="1"/>
        <pt x="494" y="61" on="0"/>
        <pt x="489" y="61" on="1"/>
        <pt x="446" y="65" on="1"/>
        <pt x="444" y="67" on="0"/>
        <pt x="438" y="74" on="1"/>
        <pt x="431" y="81" on="0"/>
        <pt x="428" y="87" on="1"/>
        <pt x="424" y="92" on="0"/>
        <pt x="424" y="98" on="1"/>
        <pt x="424" y="125" on="0"/>
        <pt x="446" y="176" on="1"/>
        <pt x="468" y="226" on="0"/>
        <pt x="468" y="254" on="1"/>
        <pt x="468" y="282" on="0"/>
        <pt x="450" y="292" on="1"/>
        <pt x="438" y="299" on="0"/>
        <pt x="416" y="299" on="1"/>
        <pt x="406" y="299" on="0"/>
        <pt x="385" y="298" on="1"/>
        <pt x="364" y="296" on="0"/>
        <pt x="353" y="296" on="1"/>
        <pt x="331" y="296" on="0"/>
        <pt x="313" y="285" on="1"/>
        <pt x="294" y="274" on="0"/>
        <pt x="294" y="253" on="1"/>
        <pt x="294" y="250" on="0"/>
        <pt x="295" y="243" on="1"/>
        <pt x="296" y="236" on="0"/>
        <pt x="296" y="233" on="1"/>
        <pt x="296" y="215" on="0"/>
        <pt x="317" y="184" on="1"/>
        <pt x="338" y="153" on="0"/>
        <pt x="338" y="135" on="1"/>
        <pt x="338" y="79" on="0"/>
        <pt x="307" y="49" on="1"/>
        <pt x="307" y="48" on="1"/>
        <pt x="272" y="10" on="0"/>
        <pt x="214" y="8" on="1"/>
        <pt x="149" y="35" on="0"/>
        <pt x="116" y="162" on="1"/>
        <pt x="93" y="255" on="0"/>
        <pt x="84" y="445" on="1"/>
        <pt x="82" y="482" on="0"/>
        <pt x="82" y="485" on="1"/>
        <pt x="80" y="503" on="0"/>
        <pt x="80" y="522" on="1"/>
        <pt x="80" y="588" on="0"/>
        <pt x="101" y="643" on="1"/>
        <pt x="122" y="697" on="0"/>
        <pt x="169" y="733" on="1"/>
        <pt x="216" y="769" on="0"/>
        <pt x="280" y="769" on="1"/>
        <pt x="301" y="769" on="0"/>
        <pt x="324" y="765" on="1"/>
        <pt x="324" y="765" on="0"/>
        <pt x="325" y="765" on="1"/>
        <pt x="331" y="765" on="0"/>
        <pt x="338" y="764" on="1"/>
        <pt x="345" y="762" on="0"/>
        <pt x="351" y="761" on="1"/>
        <pt x="356" y="759" on="0"/>
        <pt x="363" y="756" on="1"/>
        <pt x="370" y="752" on="0"/>
        <pt x="375" y="750" on="1"/>
        <pt x="379" y="748" on="0"/>
        <pt x="386" y="743" on="1"/>
        <pt x="393" y="738" on="0"/>
        <pt x="397" y="736" on="1"/>
        <pt x="400" y="734" on="0"/>
        <pt x="408" y="728" on="1"/>
        <pt x="416" y="722" on="0"/>
        <pt x="419" y="720" on="1"/>
        <pt x="421" y="718" on="0"/>
        <pt x="429" y="712" on="1"/>
        <pt x="436" y="705" on="0"/>
        <pt x="438" y="704" on="1"/>
        <pt x="439" y="703" on="0"/>
        <pt x="441" y="703" on="1"/>
        <pt x="446" y="703" on="0"/>
        <pt x="446" y="708" on="1"/>
        <pt x="446" y="710" on="0"/>
        <pt x="444" y="712" on="1"/>
        <pt x="443" y="713" on="0"/>
        <pt x="433" y="722" on="1"/>
        <pt x="422" y="730" on="0"/>
        <pt x="419" y="733" on="1"/>
        <pt x="416" y="735" on="0"/>
        <pt x="406" y="743" on="1"/>
        <pt x="396" y="750" on="0"/>
        <pt x="391" y="753" on="1"/>
        <pt x="386" y="755" on="0"/>
        <pt x="377" y="761" on="1"/>
        <pt x="367" y="766" on="0"/>
        <pt x="360" y="768" on="1"/>
        <pt x="353" y="770" on="0"/>
        <pt x="344" y="773" on="1"/>
        <pt x="334" y="775" on="0"/>
        <pt x="326" y="775" on="1"/>
        <pt x="302" y="779" on="0"/>
        <pt x="280" y="779" on="1"/>
        <pt x="212" y="779" on="0"/>
        <pt x="163" y="741" on="1"/>
        <pt x="114" y="703" on="0"/>
        <pt x="92" y="646" on="1"/>
        <pt x="70" y="589" on="0"/>
        <pt x="70" y="522" on="1"/>
        <pt x="70" y="503" on="0"/>
        <pt x="72" y="484" on="1"/>
        <pt x="73" y="472" on="0"/>
        <pt x="74" y="445" on="1"/>
        <pt x="83" y="253" on="0"/>
        <pt x="107" y="159" on="1"/>
        <pt x="140" y="27" on="0"/>
        <pt x="211" y="-2" on="1"/>
        <pt x="212" y="-2" on="0"/>
        <pt x="213" y="-2" on="1"/>
        <pt x="276" y="0" on="0"/>
        <pt x="315" y="42" on="1"/>
        <pt x="348" y="75" on="0"/>
        <pt x="348" y="135" on="1"/>
        <pt x="348" y="156" on="0"/>
        <pt x="325" y="190" on="1"/>
        <pt x="306" y="218" on="0"/>
        <pt x="306" y="233" on="1"/>
        <pt x="306" y="237" on="0"/>
        <pt x="305" y="244" on="1"/>
        <pt x="304" y="250" on="0"/>
      </contour>
    </TTGlyph>
    <TTGlyph name="G.2" xMin="50" yMin="-22" xMax="514" yMax="799">
      <component glyphName="G.0" x="50" y="0" flags="0x4"/>
    </TTGlyph>
    <TTGlyph name="H" xMin="50" yMin="-23" xMax="776" yMax="819">
      <contour>
        <pt x="308" y="269" on="1"/>
        <pt x="306" y="241" on="0"/>
        <pt x="222" y="109" on="0"/>
        <pt x="222" y="75" on="1"/>
        <pt x="222" y="61" on="0"/>
        <pt x="248" y="32" on="0"/>
        <pt x="262" y="32" on="1"/>
        <pt x="288" y="32" on="0"/>
        <pt x="336" y="98" on="0"/>
        <pt x="336" y="125" on="1"/>
        <pt x="336" y="149" on="0"/>
        <pt x="318" y="265" on="0"/>
      </contour>
      <contour>
        <pt x="306" y="276" on="1"/>
        <pt x="318" y="276" on="0"/>
        <pt x="340" y="151" on="0"/>
        <pt x="340" y="125" on="1"/>
        <pt x="340" y="96" on="0"/>
        <pt x="291" y="28" on="0"/>
        <pt x="262" y="28" on="1"/>
        <pt x="246" y="28" on="0"/>
        <pt x="218" y="59" on="0"/>
        <pt x="218" y="75" on="1"/>
        <pt x="218" y="109" on="0"/>
        <pt x="304" y="244" on="0"/>
        <pt x="304" y="273" on="1"/>
        <pt x="304" y="276" on="0"/>
      </contour>
      <contour>
        <pt x="542" y="515" on="1"/>
        <pt x="542" y="492" on="0"/>
        <pt x="388" y="347" on="0"/>
        <pt x="363" y="347" on="1"/>
        <pt x="354" y="347" on="0"/>
        <pt x="354" y="534" on="1"/>
        <pt x="354" y="546" on="0"/>
        <pt x="355" y="592" on="0"/>
        <pt x="355" y="604" on="1"/>
        <pt x="355" y="609" on="0"/>
        <pt x="354" y="635" on="0"/>
        <pt x="354" y="643" on="1"/>
        <pt x="354" y="715" on="0"/>
        <pt x="361" y="720" on="1"/>
        <pt x="387" y="739" on="0"/>
        <pt x="387" y="772" on="1"/>
        <pt x="387" y="781" on="0"/>
        <pt x="374" y="794" on="0"/>
        <pt x="365" y="794" on="1"/>
        <pt x="350" y="794" on="0"/>
        <pt x="325" y="752" on="0"/>
        <pt x="319" y="752" on="1"/>
        <pt x="282" y="752" on="0"/>
        <pt x="158" y="814" on="0"/>
        <pt x="115" y="814" on="1"/>
        <pt x="93" y="814" on="0"/>
        <pt x="55" y="798" on="0"/>
        <pt x="55" y="782" on="1"/>
        <pt x="55" y="716" on="1"/>
        <pt x="55" y="712" on="1"/>
        <pt x="65" y="662" on="1"/>
        <pt x="69" y="644" on="0"/>
        <pt x="87" y="644" on="1"/>
        <pt x="96" y="644" on="0"/>
        <pt x="109" y="657" on="0"/>
        <pt x="109" y="666" on="1"/>
        <pt x="109" y="670" on="1"/>
        <pt x="100" y="718" on="1"/>
        <pt x="99" y="718" on="1"/>
        <pt x="99" y="764" on="1"/>
        <pt x="99" y="770" on="0"/>
        <pt x="115" y="770" on="1"/>
        <pt x="127" y="770" on="0"/>
        <pt x="313" y="708" on="0"/>
        <pt x="313" y="705" on="1"/>
        <pt x="313" y="694" on="0"/>
        <pt x="309" y="653" on="0"/>
        <pt x="309" y="643" on="1"/>
        <pt x="309" y="635" on="0"/>
        <pt x="310" y="608" on="0"/>
        <pt x="310" y="603" on="1"/>
        <pt x="310" y="592" on="0"/>
        <pt x="309" y="544" on="0"/>
        <pt x="309" y="533" on="1"/>
        <pt x="309" y="495" on="0"/>
        <pt x="317" y="347" on="0"/>
        <pt x="317" y="311" on="1"/>
        <pt x="317" y="309" on="0"/>
        <pt x="316" y="309" on="1"/>
        <pt x="283" y="281" on="0"/>
        <pt x="245" y="245" on="0"/>
        <pt x="185" y="178" on="0"/>
        <pt x="155" y="110" on="0"/>
        <pt x="155" y="75" on="1"/>
        <pt x="155" y="37" on="0"/>
        <pt x="224" y="-18" on="0"/>
        <pt x="263" y="-18" on="1"/>
        <pt x="366" y="-18" on="0"/>
        <pt x="366" y="178" on="1"/>
        <pt x="366" y="198" on="0"/>
        <pt x="363" y="270" on="0"/>
        <pt x="363" y="288" on="1"/>
        <pt x="363" y="290" on="0"/>
        <pt x="364" y="290" on="1"/>
        <pt x="380" y="303" on="0"/>
        <pt x="442" y="352" on="0"/>
        <pt x="480" y="384" on="0"/>
        <pt x="530" y="430" on="0"/>
        <pt x="549" y="451" on="1"/>
        <pt x="549" y="452" on="0"/>
        <pt x="551" y="452" on="1"/>
        <pt x="554" y="452" on="0"/>
        <pt x="561" y="322" on="0"/>
        <pt x="569" y="180" on="0"/>
        <pt x="571" y="171" on="1"/>
        <pt x="585" y="104" on="0"/>
        <pt x="662" y="33" on="0"/>
        <pt x="736" y="1" on="1"/>
        <pt x="748" y="-2" on="0"/>
        <pt x="749" y="-2" on="1"/>
        <pt x="758" y="-2" on="0"/>
        <pt x="771" y="11" on="0"/>
        <pt x="771" y="20" on="1"/>
        <pt x="771" y="34" on="0"/>
        <pt x="720" y="65" on="0"/>
        <pt x="659" y="92" on="0"/>
        <pt x="654" y="97" on="1"/>
        <pt x="620" y="131" on="0"/>
        <pt x="604" y="275" on="0"/>
        <pt x="603" y="452" on="0"/>
        <pt x="589" y="498" on="1"/>
        <pt x="589" y="502" on="1"/>
        <pt x="589" y="508" on="0"/>
        <pt x="614" y="545" on="0"/>
        <pt x="615" y="548" on="1"/>
        <pt x="645" y="613" on="0"/>
        <pt x="645" y="686" on="1"/>
        <pt x="645" y="697" on="0"/>
        <pt x="639" y="743" on="0"/>
        <pt x="639" y="756" on="1"/>
        <pt x="639" y="762" on="1"/>
        <pt x="639" y="806" on="0"/>
        <pt x="611" y="806" on="1"/>
        <pt x="589" y="806" on="0"/>
        <pt x="557" y="760" on="0"/>
        <pt x="542" y="690" on="0"/>
        <pt x="536" y="631" on="0"/>
        <pt x="536" y="605" on="1"/>
        <pt x="536" y="573" on="0"/>
      </contour>
      <contour>
        <pt x="365" y="355" on="1"/>
        <pt x="410" y="391" on="0"/>
        <pt x="450" y="423" on="0"/>
        <pt x="515" y="487" on="0"/>
        <pt x="537" y="516" on="1"/>
        <pt x="531" y="574" on="0"/>
        <pt x="531" y="605" on="1"/>
        <pt x="531" y="632" on="0"/>
        <pt x="537" y="693" on="0"/>
        <pt x="553" y="765" on="0"/>
        <pt x="587" y="811" on="0"/>
        <pt x="611" y="811" on="1"/>
        <pt x="644" y="811" on="0"/>
        <pt x="644" y="762" on="1"/>
        <pt x="644" y="756" on="1"/>
        <pt x="644" y="743" on="0"/>
        <pt x="650" y="697" on="0"/>
        <pt x="650" y="686" on="1"/>
        <pt x="650" y="585" on="0"/>
        <pt x="594" y="501" on="1"/>
        <pt x="597" y="474" on="0"/>
        <pt x="602" y="307" on="0"/>
        <pt x="611" y="203" on="0"/>
        <pt x="653" y="95" on="0"/>
        <pt x="689" y="80" on="1"/>
        <pt x="690" y="80" on="0"/>
        <pt x="719" y="68" on="0"/>
        <pt x="738" y="60" on="0"/>
        <pt x="763" y="45" on="0"/>
        <pt x="776" y="29" on="0"/>
        <pt x="776" y="20" on="1"/>
        <pt x="776" y="9" on="0"/>
        <pt x="760" y="-7" on="0"/>
        <pt x="749" y="-7" on="1"/>
        <pt x="705" y="-7" on="0"/>
        <pt x="641" y="22" on="0"/>
        <pt x="602" y="78" on="0"/>
        <pt x="577" y="142" on="0"/>
        <pt x="565" y="233" on="0"/>
        <pt x="560" y="309" on="0"/>
        <pt x="553" y="411" on="0"/>
        <pt x="549" y="444" on="1"/>
        <pt x="530" y="423" on="0"/>
        <pt x="481" y="378" on="0"/>
        <pt x="445" y="349" on="0"/>
        <pt x="382" y="299" on="0"/>
        <pt x="368" y="287" on="1"/>
        <pt x="371" y="231" on="0"/>
        <pt x="371" y="178" on="1"/>
        <pt x="371" y="-23" on="0"/>
        <pt x="263" y="-23" on="1"/>
        <pt x="222" y="-23" on="0"/>
        <pt x="150" y="34" on="0"/>
        <pt x="150" y="75" on="1"/>
        <pt x="150" y="110" on="0"/>
        <pt x="180" y="180" on="0"/>
        <pt x="240" y="247" on="0"/>
        <pt x="279" y="284" on="0"/>
        <pt x="312" y="312" on="1"/>
        <pt x="304" y="458" on="0"/>
        <pt x="304" y="533" on="1"/>
        <pt x="304" y="580" on="0"/>
        <pt x="305" y="603" on="1"/>
        <pt x="304" y="615" on="0"/>
        <pt x="304" y="643" on="1"/>
        <pt x="304" y="673" on="0"/>
        <pt x="307" y="703" on="1"/>
        <pt x="270" y="705" on="0"/>
        <pt x="151" y="765" on="0"/>
        <pt x="115" y="765" on="1"/>
        <pt x="110" y="765" on="0"/>
        <pt x="104" y="762" on="1"/>
        <pt x="104" y="719" on="1"/>
        <pt x="114" y="671" on="1"/>
        <pt x="114" y="666" on="1"/>
        <pt x="114" y="655" on="0"/>
        <pt x="98" y="639" on="0"/>
        <pt x="87" y="639" on="1"/>
        <pt x="77" y="639" on="0"/>
        <pt x="62" y="652" on="0"/>
        <pt x="60" y="661" on="1"/>
        <pt x="50" y="711" on="1"/>
        <pt x="50" y="716" on="1"/>
        <pt x="50" y="782" on="1"/>
        <pt x="50" y="800" on="0"/>
        <pt x="91" y="819" on="0"/>
        <pt x="115" y="819" on="1"/>
        <pt x="158" y="819" on="0"/>
        <pt x="283" y="757" on="0"/>
        <pt x="319" y="757" on="1"/>
        <pt x="320" y="758" on="1"/>
        <pt x="337" y="799" on="0"/>
        <pt x="365" y="799" on="1"/>
        <pt x="376" y="799" on="0"/>
        <pt x="392" y="783" on="0"/>
        <pt x="392" y="772" on="1"/>
        <pt x="392" y="736" on="0"/>
        <pt x="365" y="716" on="1"/>
        <pt x="359" y="684" on="0"/>
        <pt x="359" y="643" on="1"/>
        <pt x="359" y="634" on="0"/>
        <pt x="360" y="609" on="0"/>
        <pt x="360" y="604" on="1"/>
        <pt x="360" y="592" on="0"/>
        <pt x="359" y="546" on="0"/>
        <pt x="359" y="534" on="1"/>
        <pt x="359" y="475" on="0"/>
      </contour>
      <contour>
        <pt x="548" y="649" on="1"/>
        <pt x="548" y="676" on="0"/>
        <pt x="571" y="760" on="0"/>
        <pt x="591" y="760" on="1"/>
        <pt x="610" y="760" on="0"/>
        <pt x="628" y="691" on="0"/>
        <pt x="628" y="663" on="1"/>
        <pt x="628" y="628" on="0"/>
        <pt x="601" y="554" on="0"/>
        <pt x="572" y="554" on="1"/>
        <pt x="567" y="554" on="1"/>
        <pt x="558" y="554" on="0"/>
        <pt x="548" y="628" on="0"/>
      </contour>
      <contour>
        <pt x="554" y="649" on="1"/>
        <pt x="554" y="591" on="0"/>
        <pt x="569" y="560" on="1"/>
        <pt x="572" y="560" on="1"/>
        <pt x="597" y="560" on="0"/>
        <pt x="624" y="631" on="0"/>
        <pt x="624" y="663" on="1"/>
        <pt x="624" y="687" on="0"/>
        <pt x="607" y="754" on="0"/>
        <pt x="575" y="754" on="0"/>
        <pt x="554" y="672" on="0"/>
      </contour>
    </TTGlyph>
    <TTGlyph name="H.0" xMin="0" yMin="-21" xMax="722" yMax="817">
      <contour>
        <pt x="488" y="515" on="1"/>
        <pt x="468" y="488" on="0"/>
        <pt x="440" y="461" on="1"/>
        <pt x="406" y="426" on="0"/>
        <pt x="311" y="350" on="1"/>
        <pt x="304" y="473" on="0"/>
        <pt x="304" y="532" on="1"/>
        <pt x="304" y="569" on="0"/>
        <pt x="306" y="603" on="1"/>
        <pt x="306" y="603" on="0"/>
        <pt x="306" y="604" on="1"/>
        <pt x="306" y="605" on="0"/>
        <pt x="306" y="607" on="1"/>
        <pt x="304" y="622" on="0"/>
        <pt x="304" y="643" on="1"/>
        <pt x="304" y="686" on="0"/>
        <pt x="311" y="718" on="1"/>
        <pt x="338" y="737" on="0"/>
        <pt x="338" y="772" on="1"/>
        <pt x="338" y="782" on="0"/>
        <pt x="331" y="790" on="1"/>
        <pt x="323" y="797" on="0"/>
        <pt x="313" y="797" on="1"/>
        <pt x="308" y="797" on="0"/>
        <pt x="304" y="795" on="1"/>
        <pt x="282" y="787" on="0"/>
        <pt x="270" y="755" on="1"/>
        <pt x="268" y="755" on="0"/>
        <pt x="267" y="755" on="1"/>
        <pt x="234" y="755" on="0"/>
        <pt x="177" y="783" on="1"/>
        <pt x="155" y="794" on="0"/>
        <pt x="143" y="800" on="1"/>
        <pt x="130" y="805" on="0"/>
        <pt x="108" y="811" on="1"/>
        <pt x="85" y="817" on="0"/>
        <pt x="63" y="817" on="1"/>
        <pt x="54" y="817" on="0"/>
        <pt x="46" y="815" on="1"/>
        <pt x="38" y="813" on="0"/>
        <pt x="30" y="810" on="1"/>
        <pt x="22" y="807" on="0"/>
        <pt x="18" y="806" on="1"/>
        <pt x="11" y="804" on="0"/>
        <pt x="6" y="797" on="1"/>
        <pt x="0" y="790" on="0"/>
        <pt x="0" y="782" on="1"/>
        <pt x="0" y="716" on="1"/>
        <pt x="0" y="714" on="0"/>
        <pt x="0" y="711" on="1"/>
        <pt x="10" y="661" on="1"/>
        <pt x="12" y="653" on="0"/>
        <pt x="19" y="647" on="1"/>
        <pt x="26" y="641" on="0"/>
        <pt x="35" y="641" on="1"/>
        <pt x="45" y="641" on="0"/>
        <pt x="53" y="649" on="1"/>
        <pt x="60" y="656" on="0"/>
        <pt x="60" y="666" on="1"/>
        <pt x="60" y="668" on="0"/>
        <pt x="60" y="671" on="1"/>
        <pt x="50" y="718" on="1"/>
        <pt x="50" y="764" on="1"/>
        <pt x="58" y="767" on="0"/>
        <pt x="63" y="767" on="1"/>
        <pt x="97" y="767" on="0"/>
        <pt x="154" y="739" on="1"/>
        <pt x="217" y="707" on="0"/>
        <pt x="258" y="705" on="1"/>
        <pt x="254" y="676" on="0"/>
        <pt x="254" y="644" on="1"/>
        <pt x="254" y="621" on="0"/>
        <pt x="256" y="603" on="1"/>
        <pt x="254" y="569" on="0"/>
        <pt x="254" y="531" on="1"/>
        <pt x="254" y="480" on="0"/>
        <pt x="263" y="311" on="1"/>
        <pt x="202" y="259" on="0"/>
        <pt x="161" y="208" on="1"/>
        <pt x="119" y="156" on="0"/>
        <pt x="103" y="92" on="1"/>
        <pt x="101" y="84" on="0"/>
        <pt x="101" y="75" on="1"/>
        <pt x="101" y="42" on="0"/>
        <pt x="127" y="15" on="1"/>
        <pt x="163" y="-21" on="0"/>
        <pt x="211" y="-21" on="1"/>
        <pt x="247" y="-21" on="0"/>
        <pt x="272" y="4" on="1"/>
        <pt x="302" y="34" on="0"/>
        <pt x="312" y="99" on="1"/>
        <pt x="317" y="132" on="0"/>
        <pt x="317" y="177" on="1"/>
        <pt x="317" y="217" on="0"/>
        <pt x="314" y="288" on="1"/>
        <pt x="327" y="299" on="0"/>
        <pt x="360" y="326" on="1"/>
        <pt x="393" y="352" on="0"/>
        <pt x="411" y="367" on="1"/>
        <pt x="429" y="382" on="0"/>
        <pt x="455" y="406" on="1"/>
        <pt x="480" y="429" on="0"/>
        <pt x="499" y="450" on="1"/>
        <pt x="504" y="413" on="0"/>
        <pt x="506" y="330" on="1"/>
        <pt x="507" y="220" on="0"/>
        <pt x="517" y="170" on="1"/>
        <pt x="531" y="100" on="0"/>
        <pt x="569" y="63" on="1"/>
        <pt x="590" y="42" on="0"/>
        <pt x="618" y="31" on="1"/>
        <pt x="625" y="27" on="0"/>
        <pt x="641" y="19" on="1"/>
        <pt x="657" y="11" on="0"/>
        <pt x="669" y="5" on="1"/>
        <pt x="681" y="-1" on="0"/>
        <pt x="683" y="-2" on="1"/>
        <pt x="693" y="-5" on="0"/>
        <pt x="697" y="-5" on="1"/>
        <pt x="707" y="-5" on="0"/>
        <pt x="715" y="3" on="1"/>
        <pt x="722" y="10" on="0"/>
        <pt x="722" y="20" on="1"/>
        <pt x="722" y="30" on="0"/>
        <pt x="715" y="38" on="1"/>
        <pt x="710" y="42" on="0"/>
        <pt x="701" y="45" on="1"/>
        <pt x="648" y="72" on="0"/>
        <pt x="636" y="77" on="1"/>
        <pt x="618" y="85" on="0"/>
        <pt x="604" y="98" on="1"/>
        <pt x="583" y="119" on="0"/>
        <pt x="572" y="161" on="1"/>
        <pt x="561" y="203" on="0"/>
        <pt x="559" y="237" on="1"/>
        <pt x="556" y="270" on="0"/>
        <pt x="555" y="331" on="1"/>
        <pt x="554" y="452" on="0"/>
        <pt x="540" y="499" on="1"/>
        <pt x="540" y="500" on="0"/>
        <pt x="539" y="502" on="1"/>
        <pt x="554" y="524" on="0"/>
        <pt x="565" y="547" on="1"/>
        <pt x="596" y="612" on="0"/>
        <pt x="596" y="686" on="1"/>
        <pt x="596" y="719" on="0"/>
        <pt x="590" y="753" on="1"/>
        <pt x="589" y="781" on="0"/>
        <pt x="587" y="789" on="1"/>
        <pt x="584" y="796" on="0"/>
        <pt x="579" y="801" on="1"/>
        <pt x="571" y="809" on="0"/>
        <pt x="559" y="809" on="1"/>
        <pt x="542" y="809" on="0"/>
        <pt x="529" y="796" on="1"/>
        <pt x="518" y="785" on="0"/>
        <pt x="509" y="764" on="1"/>
        <pt x="501" y="744" on="0"/>
        <pt x="495" y="716" on="1"/>
        <pt x="482" y="662" on="0"/>
        <pt x="482" y="629" on="1"/>
        <pt x="481" y="617" on="0"/>
        <pt x="481" y="605" on="1"/>
        <pt x="481" y="577" on="0"/>
      </contour>
      <contour>
        <pt x="531" y="605" on="1"/>
        <pt x="531" y="609" on="0"/>
        <pt x="532" y="617" on="1"/>
        <pt x="532" y="624" on="0"/>
        <pt x="532" y="628" on="1"/>
        <pt x="532" y="655" on="0"/>
        <pt x="543" y="705" on="1"/>
        <pt x="544" y="708" on="0"/>
        <pt x="545" y="711" on="1"/>
        <pt x="546" y="698" on="0"/>
        <pt x="546" y="685" on="1"/>
        <pt x="546" y="639" on="0"/>
        <pt x="531" y="597" on="1"/>
        <pt x="531" y="601" on="0"/>
      </contour>
      <contour>
        <pt x="265" y="247" on="1"/>
        <pt x="267" y="200" on="0"/>
        <pt x="267" y="177" on="1"/>
        <pt x="267" y="136" on="0"/>
        <pt x="262" y="106" on="1"/>
        <pt x="255" y="58" on="0"/>
        <pt x="237" y="39" on="1"/>
        <pt x="227" y="29" on="0"/>
        <pt x="211" y="29" on="1"/>
        <pt x="192" y="30" on="0"/>
        <pt x="172" y="43" on="1"/>
        <pt x="151" y="56" on="0"/>
        <pt x="151" y="74" on="1"/>
        <pt x="151" y="77" on="0"/>
        <pt x="151" y="80" on="1"/>
        <pt x="170" y="153" on="0"/>
        <pt x="242" y="224" on="1"/>
        <pt x="253" y="235" on="0"/>
      </contour>
    </TTGlyph>
    <TTGlyph name="H.1" xMin="70" yMin="-1" xMax="752" yMax="797">
      <contour>
        <pt x="348" y="746" on="1"/>
        <pt x="352" y="755" on="0"/>
        <pt x="357" y="761" on="1"/>
        <pt x="354" y="752" on="0"/>
      </contour>
      <contour>
        <pt x="343" y="310" on="1"/>
        <pt x="334" y="482" on="0"/>
        <pt x="334" y="532" on="1"/>
        <pt x="334" y="570" on="0"/>
        <pt x="336" y="604" on="1"/>
        <pt x="336" y="604" on="0"/>
        <pt x="336" y="605" on="1"/>
        <pt x="334" y="621" on="0"/>
        <pt x="334" y="643" on="1"/>
        <pt x="334" y="695" on="0"/>
        <pt x="343" y="731" on="1"/>
        <pt x="368" y="743" on="0"/>
        <pt x="368" y="772" on="1"/>
        <pt x="368" y="777" on="0"/>
        <pt x="363" y="777" on="1"/>
        <pt x="362" y="777" on="0"/>
        <pt x="361" y="777" on="1"/>
        <pt x="344" y="770" on="0"/>
        <pt x="335" y="738" on="1"/>
        <pt x="327" y="735" on="0"/>
        <pt x="317" y="735" on="1"/>
        <pt x="279" y="735" on="0"/>
        <pt x="218" y="765" on="1"/>
        <pt x="154" y="797" on="0"/>
        <pt x="113" y="797" on="1"/>
        <pt x="106" y="797" on="0"/>
        <pt x="99" y="796" on="1"/>
        <pt x="92" y="794" on="0"/>
        <pt x="85" y="791" on="1"/>
        <pt x="78" y="788" on="0"/>
        <pt x="74" y="787" on="1"/>
        <pt x="70" y="786" on="0"/>
        <pt x="70" y="782" on="1"/>
        <pt x="70" y="716" on="1"/>
        <pt x="70" y="716" on="0"/>
        <pt x="70" y="715" on="1"/>
        <pt x="80" y="665" on="1"/>
        <pt x="81" y="661" on="0"/>
        <pt x="85" y="661" on="1"/>
        <pt x="90" y="661" on="0"/>
        <pt x="90" y="666" on="1"/>
        <pt x="90" y="666" on="0"/>
        <pt x="90" y="667" on="1"/>
        <pt x="80" y="716" on="1"/>
        <pt x="80" y="778" on="1"/>
        <pt x="107" y="787" on="0"/>
        <pt x="113" y="787" on="1"/>
        <pt x="152" y="787" on="0"/>
        <pt x="215" y="756" on="1"/>
        <pt x="277" y="725" on="0"/>
        <pt x="317" y="725" on="1"/>
        <pt x="325" y="725" on="0"/>
        <pt x="332" y="727" on="1"/>
        <pt x="324" y="691" on="0"/>
        <pt x="324" y="643" on="1"/>
        <pt x="324" y="621" on="0"/>
        <pt x="326" y="604" on="1"/>
        <pt x="324" y="570" on="0"/>
        <pt x="324" y="532" on="1"/>
        <pt x="324" y="486" on="0"/>
        <pt x="333" y="302" on="1"/>
        <pt x="269" y="248" on="0"/>
        <pt x="229" y="198" on="1"/>
        <pt x="188" y="148" on="0"/>
        <pt x="172" y="87" on="1"/>
        <pt x="171" y="82" on="0"/>
        <pt x="171" y="74" on="1"/>
        <pt x="171" y="43" on="0"/>
        <pt x="200" y="22" on="1"/>
        <pt x="229" y="0" on="0"/>
        <pt x="261" y="-1" on="1"/>
        <pt x="347" y="-1" on="0"/>
        <pt x="347" y="177" on="1"/>
        <pt x="347" y="220" on="0"/>
        <pt x="343" y="297" on="1"/>
        <pt x="359" y="310" on="0"/>
        <pt x="399" y="342" on="1"/>
        <pt x="439" y="374" on="0"/>
        <pt x="460" y="392" on="1"/>
        <pt x="481" y="410" on="0"/>
        <pt x="511" y="439" on="1"/>
        <pt x="540" y="468" on="0"/>
        <pt x="560" y="495" on="1"/>
        <pt x="560" y="493" on="0"/>
        <pt x="560" y="492" on="1"/>
        <pt x="574" y="449" on="0"/>
        <pt x="576" y="330" on="1"/>
        <pt x="576" y="296" on="0"/>
        <pt x="577" y="280" on="1"/>
        <pt x="577" y="264" on="0"/>
        <pt x="579" y="232" on="1"/>
        <pt x="581" y="200" on="0"/>
        <pt x="585" y="183" on="1"/>
        <pt x="588" y="166" on="0"/>
        <pt x="596" y="141" on="1"/>
        <pt x="603" y="116" on="0"/>
        <pt x="613" y="101" on="1"/>
        <pt x="623" y="86" on="0"/>
        <pt x="639" y="72" on="1"/>
        <pt x="655" y="58" on="0"/>
        <pt x="675" y="49" on="1"/>
        <pt x="679" y="48" on="0"/>
        <pt x="695" y="40" on="1"/>
        <pt x="711" y="32" on="0"/>
        <pt x="725" y="25" on="1"/>
        <pt x="739" y="17" on="0"/>
        <pt x="739" y="17" on="1"/>
        <pt x="746" y="15" on="0"/>
        <pt x="747" y="15" on="1"/>
        <pt x="752" y="15" on="0"/>
        <pt x="752" y="20" on="1"/>
        <pt x="752" y="24" on="0"/>
        <pt x="743" y="27" on="1"/>
        <pt x="688" y="55" on="0"/>
        <pt x="679" y="59" on="1"/>
        <pt x="657" y="67" on="0"/>
        <pt x="641" y="82" on="1"/>
        <pt x="625" y="97" on="0"/>
        <pt x="615" y="120" on="1"/>
        <pt x="605" y="143" on="0"/>
        <pt x="599" y="164" on="1"/>
        <pt x="593" y="184" on="0"/>
        <pt x="591" y="217" on="1"/>
        <pt x="588" y="250" on="0"/>
        <pt x="587" y="271" on="1"/>
        <pt x="586" y="292" on="0"/>
        <pt x="586" y="330" on="1"/>
        <pt x="584" y="450" on="0"/>
        <pt x="570" y="495" on="1"/>
        <pt x="569" y="501" on="0"/>
        <pt x="569" y="507" on="1"/>
        <pt x="626" y="590" on="0"/>
        <pt x="626" y="686" on="1"/>
        <pt x="626" y="717" on="0"/>
        <pt x="620" y="751" on="1"/>
        <pt x="620" y="752" on="0"/>
        <pt x="620" y="758" on="1"/>
        <pt x="620" y="771" on="0"/>
        <pt x="619" y="777" on="1"/>
        <pt x="617" y="789" on="0"/>
        <pt x="609" y="789" on="1"/>
        <pt x="596" y="789" on="0"/>
        <pt x="586" y="773" on="1"/>
        <pt x="576" y="757" on="0"/>
        <pt x="568" y="727" on="1"/>
        <pt x="552" y="668" on="0"/>
        <pt x="552" y="628" on="1"/>
        <pt x="551" y="617" on="0"/>
        <pt x="551" y="605" on="1"/>
        <pt x="551" y="579" on="0"/>
        <pt x="558" y="510" on="1"/>
        <pt x="539" y="483" on="0"/>
        <pt x="510" y="453" on="1"/>
        <pt x="480" y="422" on="0"/>
        <pt x="462" y="407" on="1"/>
        <pt x="444" y="391" on="0"/>
        <pt x="398" y="354" on="1"/>
        <pt x="351" y="317" on="0"/>
      </contour>
      <contour>
        <pt x="608" y="779" on="1"/>
        <pt x="610" y="774" on="0"/>
        <pt x="610" y="757" on="1"/>
        <pt x="610" y="756" on="1"/>
        <pt x="610" y="751" on="0"/>
        <pt x="610" y="749" on="1"/>
        <pt x="616" y="716" on="0"/>
        <pt x="616" y="686" on="1"/>
        <pt x="616" y="598" on="0"/>
        <pt x="567" y="523" on="1"/>
        <pt x="561" y="578" on="0"/>
        <pt x="561" y="605" on="1"/>
        <pt x="561" y="609" on="0"/>
        <pt x="562" y="617" on="1"/>
        <pt x="562" y="624" on="0"/>
        <pt x="562" y="628" on="1"/>
        <pt x="562" y="666" on="0"/>
        <pt x="578" y="724" on="1"/>
        <pt x="585" y="753" on="0"/>
        <pt x="595" y="767" on="1"/>
        <pt x="601" y="778" on="0"/>
      </contour>
      <contour>
        <pt x="334" y="289" on="1"/>
        <pt x="337" y="217" on="0"/>
        <pt x="337" y="177" on="1"/>
        <pt x="337" y="9" on="0"/>
        <pt x="261" y="9" on="1"/>
        <pt x="233" y="10" on="0"/>
        <pt x="207" y="30" on="1"/>
        <pt x="181" y="49" on="0"/>
        <pt x="181" y="74" on="1"/>
        <pt x="181" y="80" on="0"/>
        <pt x="182" y="85" on="1"/>
        <pt x="197" y="142" on="0"/>
        <pt x="235" y="190" on="1"/>
        <pt x="273" y="238" on="0"/>
      </contour>
    </TTGlyph>
    <TTGlyph name="H.2" xMin="50" yMin="-21" xMax="772" yMax="817">
      <component glyphName="H.0" x="50" y="0" flags="0x4"/>
    </TTGlyph>
    <TTGlyph name="I" xMin="50" yMin="-32" xMax="280" yMax="851">
      <contour>
        <pt x="156" y="23" on="1"/>
        <pt x="185" y="23" on="0"/>
        <pt x="225" y="106" on="0"/>
        <pt x="225" y="144" on="1"/>
        <pt x="225" y="197" on="0"/>
        <pt x="217" y="324" on="0"/>
        <pt x="210" y="404" on="0"/>
        <pt x="194" y="559" on="0"/>
        <pt x="191" y="585" on="1"/>
        <pt x="108" y="585" on="1"/>
        <pt x="83" y="585" on="0"/>
        <pt x="50" y="646" on="0"/>
        <pt x="50" y="676" on="1"/>
        <pt x="50" y="737" on="0"/>
        <pt x="150" y="851" on="0"/>
        <pt x="206" y="851" on="1"/>
        <pt x="217" y="851" on="0"/>
        <pt x="233" y="835" on="0"/>
        <pt x="233" y="824" on="1"/>
        <pt x="233" y="817" on="1"/>
        <pt x="233" y="704" on="0"/>
        <pt x="280" y="260" on="0"/>
        <pt x="280" y="144" on="1"/>
        <pt x="280" y="81" on="0"/>
        <pt x="212" y="-32" on="0"/>
        <pt x="157" y="-32" on="1"/>
        <pt x="129" y="-32" on="0"/>
        <pt x="79" y="12" on="0"/>
        <pt x="72" y="40" on="1"/>
        <pt x="60" y="90" on="1"/>
        <pt x="59" y="92" on="0"/>
        <pt x="59" y="96" on="1"/>
        <pt x="59" y="107" on="0"/>
        <pt x="76" y="123" on="0"/>
        <pt x="87" y="123" on="1"/>
        <pt x="108" y="123" on="0"/>
        <pt x="113" y="102" on="1"/>
        <pt x="125" y="55" on="1"/>
        <pt x="140" y="23" on="0"/>
      </contour>
      <contour>
        <pt x="275" y="144" on="1"/>
        <pt x="275" y="260" on="0"/>
        <pt x="228" y="704" on="0"/>
        <pt x="228" y="817" on="1"/>
        <pt x="228" y="824" on="1"/>
        <pt x="228" y="833" on="0"/>
        <pt x="215" y="846" on="0"/>
        <pt x="206" y="846" on="1"/>
        <pt x="152" y="846" on="0"/>
        <pt x="55" y="735" on="0"/>
        <pt x="55" y="676" on="1"/>
        <pt x="55" y="648" on="0"/>
        <pt x="85" y="590" on="0"/>
        <pt x="108" y="590" on="1"/>
        <pt x="193" y="590" on="1"/>
        <pt x="204" y="590" on="0"/>
        <pt x="230" y="204" on="0"/>
        <pt x="230" y="144" on="1"/>
        <pt x="230" y="104" on="0"/>
        <pt x="188" y="18" on="0"/>
        <pt x="156" y="18" on="1"/>
        <pt x="146" y="18" on="0"/>
        <pt x="123" y="41" on="0"/>
        <pt x="120" y="54" on="1"/>
        <pt x="108" y="101" on="1"/>
        <pt x="104" y="118" on="0"/>
        <pt x="87" y="118" on="1"/>
        <pt x="78" y="118" on="0"/>
        <pt x="64" y="105" on="0"/>
        <pt x="64" y="96" on="1"/>
        <pt x="64" y="95" on="0"/>
        <pt x="65" y="92" on="0"/>
        <pt x="65" y="91" on="1"/>
        <pt x="77" y="41" on="1"/>
        <pt x="83" y="14" on="0"/>
        <pt x="130" y="-27" on="0"/>
        <pt x="157" y="-27" on="1"/>
        <pt x="210" y="-27" on="0"/>
        <pt x="275" y="84" on="0"/>
      </contour>
      <contour>
        <pt x="94" y="688" on="1"/>
        <pt x="94" y="721" on="0"/>
        <pt x="140" y="790" on="0"/>
        <pt x="156" y="790" on="1"/>
        <pt x="170" y="790" on="0"/>
        <pt x="188" y="739" on="0"/>
        <pt x="188" y="669" on="0"/>
        <pt x="170" y="618" on="0"/>
        <pt x="156" y="618" on="1"/>
        <pt x="138" y="618" on="0"/>
        <pt x="94" y="656" on="0"/>
      </contour>
      <contour>
        <pt x="98" y="688" on="1"/>
        <pt x="98" y="659" on="0"/>
        <pt x="140" y="622" on="0"/>
        <pt x="156" y="622" on="1"/>
        <pt x="167" y="622" on="0"/>
        <pt x="184" y="670" on="0"/>
        <pt x="184" y="738" on="0"/>
        <pt x="167" y="786" on="0"/>
        <pt x="156" y="786" on="1"/>
        <pt x="143" y="786" on="0"/>
        <pt x="98" y="719" on="0"/>
      </contour>
    </TTGlyph>
    <TTGlyph name="I.0" xMin="0" yMin="-30" xMax="226" yMax="849">
      <contour>
        <pt x="178" y="824" on="1"/>
        <pt x="178" y="834" on="0"/>
        <pt x="171" y="842" on="1"/>
        <pt x="163" y="849" on="0"/>
        <pt x="153" y="849" on="1"/>
        <pt x="151" y="849" on="0"/>
        <pt x="150" y="849" on="1"/>
        <pt x="102" y="843" on="0"/>
        <pt x="57" y="798" on="1"/>
        <pt x="21" y="762" on="0"/>
        <pt x="7" y="719" on="1"/>
        <pt x="0" y="697" on="0"/>
        <pt x="0" y="676" on="1"/>
        <pt x="0" y="659" on="0"/>
        <pt x="5" y="644" on="1"/>
        <pt x="14" y="615" on="0"/>
        <pt x="39" y="593" on="1"/>
        <pt x="46" y="587" on="0"/>
        <pt x="55" y="587" on="1"/>
        <pt x="141" y="587" on="1"/>
        <pt x="144" y="554" on="0"/>
        <pt x="152" y="482" on="1"/>
        <pt x="160" y="409" on="0"/>
        <pt x="164" y="366" on="1"/>
        <pt x="168" y="322" on="0"/>
        <pt x="172" y="260" on="1"/>
        <pt x="176" y="197" on="0"/>
        <pt x="176" y="144" on="1"/>
        <pt x="176" y="114" on="0"/>
        <pt x="164" y="84" on="1"/>
        <pt x="152" y="54" on="0"/>
        <pt x="134" y="36" on="1"/>
        <pt x="122" y="23" on="0"/>
        <pt x="110" y="21" on="1"/>
        <pt x="107" y="20" on="0"/>
        <pt x="105" y="20" on="1"/>
        <pt x="96" y="20" on="0"/>
        <pt x="87" y="29" on="1"/>
        <pt x="78" y="38" on="0"/>
        <pt x="71" y="54" on="1"/>
        <pt x="59" y="102" on="1"/>
        <pt x="57" y="110" on="0"/>
        <pt x="51" y="116" on="1"/>
        <pt x="44" y="121" on="0"/>
        <pt x="35" y="121" on="1"/>
        <pt x="25" y="121" on="0"/>
        <pt x="18" y="114" on="1"/>
        <pt x="10" y="106" on="0"/>
        <pt x="10" y="96" on="1"/>
        <pt x="10" y="93" on="0"/>
        <pt x="11" y="90" on="1"/>
        <pt x="23" y="40" on="1"/>
        <pt x="23" y="38" on="0"/>
        <pt x="24" y="36" on="1"/>
        <pt x="36" y="10" on="0"/>
        <pt x="52" y="-6" on="1"/>
        <pt x="75" y="-30" on="0"/>
        <pt x="106" y="-30" on="1"/>
        <pt x="114" y="-30" on="0"/>
        <pt x="122" y="-28" on="1"/>
        <pt x="147" y="-22" on="0"/>
        <pt x="170" y="1" on="1"/>
        <pt x="195" y="26" on="0"/>
        <pt x="211" y="65" on="1"/>
        <pt x="226" y="103" on="0"/>
        <pt x="226" y="144" on="1"/>
        <pt x="226" y="262" on="0"/>
        <pt x="202" y="489" on="1"/>
        <pt x="178" y="707" on="0"/>
        <pt x="178" y="817" on="1"/>
        <pt x="178" y="818" on="0"/>
        <pt x="178" y="821" on="1"/>
        <pt x="178" y="823" on="0"/>
      </contour>
      <contour>
        <pt x="50" y="677" on="1"/>
        <pt x="50" y="689" on="0"/>
        <pt x="55" y="703" on="1"/>
        <pt x="65" y="735" on="0"/>
        <pt x="93" y="763" on="1"/>
        <pt x="109" y="779" on="0"/>
        <pt x="128" y="790" on="1"/>
        <pt x="129" y="721" on="0"/>
        <pt x="136" y="637" on="1"/>
        <pt x="65" y="637" on="1"/>
        <pt x="56" y="647" on="0"/>
        <pt x="53" y="659" on="1"/>
        <pt x="50" y="667" on="0"/>
      </contour>
    </TTGlyph>
    <TTGlyph name="I.1" xMin="70" yMin="-10" xMax="256" yMax="829">
      <contour>
        <pt x="208" y="817" on="1"/>
        <pt x="208" y="818" on="0"/>
        <pt x="208" y="821" on="1"/>
        <pt x="208" y="824" on="0"/>
        <pt x="208" y="824" on="1"/>
        <pt x="208" y="829" on="0"/>
        <pt x="203" y="829" on="1"/>
        <pt x="203" y="829" on="0"/>
        <pt x="202" y="829" on="1"/>
        <pt x="156" y="823" on="0"/>
        <pt x="113" y="775" on="1"/>
        <pt x="70" y="727" on="0"/>
        <pt x="70" y="677" on="1"/>
        <pt x="70" y="636" on="0"/>
        <pt x="102" y="608" on="1"/>
        <pt x="103" y="607" on="0"/>
        <pt x="105" y="607" on="1"/>
        <pt x="203" y="607" on="1"/>
        <pt x="208" y="607" on="0"/>
        <pt x="208" y="612" on="1"/>
        <pt x="208" y="617" on="0"/>
        <pt x="203" y="617" on="1"/>
        <pt x="107" y="617" on="1"/>
        <pt x="80" y="641" on="0"/>
        <pt x="80" y="677" on="1"/>
        <pt x="80" y="721" on="0"/>
        <pt x="118" y="766" on="1"/>
        <pt x="156" y="810" on="0"/>
        <pt x="198" y="818" on="1"/>
        <pt x="198" y="817" on="0"/>
        <pt x="198" y="817" on="1"/>
        <pt x="198" y="704" on="0"/>
        <pt x="222" y="482" on="1"/>
        <pt x="246" y="259" on="0"/>
        <pt x="246" y="144" on="1"/>
        <pt x="246" y="91" on="0"/>
        <pt x="217" y="46" on="1"/>
        <pt x="188" y="0" on="0"/>
        <pt x="155" y="0" on="1"/>
        <pt x="124" y="0" on="0"/>
        <pt x="102" y="48" on="1"/>
        <pt x="90" y="97" on="1"/>
        <pt x="89" y="101" on="0"/>
        <pt x="85" y="101" on="1"/>
        <pt x="80" y="101" on="0"/>
        <pt x="80" y="96" on="1"/>
        <pt x="80" y="95" on="0"/>
        <pt x="80" y="95" on="1"/>
        <pt x="92" y="45" on="1"/>
        <pt x="92" y="44" on="0"/>
        <pt x="92" y="44" on="1"/>
        <pt x="117" y="-10" on="0"/>
        <pt x="155" y="-10" on="1"/>
        <pt x="194" y="-10" on="0"/>
        <pt x="225" y="39" on="1"/>
        <pt x="256" y="88" on="0"/>
        <pt x="256" y="144" on="1"/>
        <pt x="256" y="259" on="0"/>
        <pt x="232" y="482" on="1"/>
        <pt x="208" y="704" on="0"/>
      </contour>
    </TTGlyph>
    <TTGlyph name="I.2" xMin="50" yMin="-30" xMax="276" yMax="849">
      <component glyphName="I.0" x="50" y="0" flags="0x4"/>
    </TTGlyph>
    <TTGlyph name="J" xMin="50" yMin="-25" xMax="370" yMax="820">
      <contour>
        <pt x="243" y="238" on="1"/>
        <pt x="243" y="238" on="0"/>
        <pt x="242" y="236" on="1"/>
        <pt x="240" y="235" on="0"/>
        <pt x="236" y="232" on="0"/>
        <pt x="235" y="231" on="1"/>
        <pt x="235" y="233" on="0"/>
        <pt x="236" y="238" on="0"/>
        <pt x="236" y="239" on="1"/>
        <pt x="236" y="240" on="1"/>
        <pt x="236" y="239" on="1"/>
        <pt x="238" y="239" on="0"/>
        <pt x="240" y="238" on="1"/>
      </contour>
      <contour>
        <pt x="243" y="238" on="1"/>
      </contour>
      <contour>
        <pt x="144" y="132" on="1"/>
        <pt x="144" y="38" on="0"/>
        <pt x="158" y="26" on="1"/>
        <pt x="187" y="26" on="0"/>
        <pt x="228" y="85" on="0"/>
        <pt x="228" y="126" on="1"/>
        <pt x="228" y="200" on="0"/>
        <pt x="229" y="221" on="1"/>
        <pt x="168" y="181" on="0"/>
        <pt x="153" y="159" on="1"/>
        <pt x="144" y="145" on="0"/>
      </contour>
      <contour>
        <pt x="158" y="22" on="1"/>
        <pt x="140" y="22" on="0"/>
        <pt x="140" y="132" on="1"/>
        <pt x="140" y="147" on="0"/>
        <pt x="164" y="180" on="0"/>
        <pt x="184" y="197" on="0"/>
        <pt x="233" y="229" on="0"/>
        <pt x="235" y="231" on="1"/>
        <pt x="232" y="177" on="0"/>
        <pt x="232" y="126" on="1"/>
        <pt x="232" y="83" on="0"/>
        <pt x="189" y="22" on="0"/>
      </contour>
      <contour>
        <pt x="167" y="-20" on="1"/>
        <pt x="206" y="-20" on="0"/>
        <pt x="269" y="43" on="0"/>
        <pt x="269" y="84" on="1"/>
        <pt x="269" y="120" on="0"/>
        <pt x="268" y="264" on="0"/>
        <pt x="268" y="299" on="1"/>
        <pt x="268" y="312" on="0"/>
        <pt x="304" y="354" on="1"/>
        <pt x="340" y="395" on="1"/>
        <pt x="364" y="467" on="1"/>
        <pt x="365" y="469" on="0"/>
        <pt x="365" y="474" on="1"/>
        <pt x="365" y="483" on="0"/>
        <pt x="352" y="496" on="0"/>
        <pt x="343" y="496" on="1"/>
        <pt x="328" y="496" on="0"/>
        <pt x="322" y="481" on="1"/>
        <pt x="299" y="413" on="1"/>
        <pt x="280" y="377" on="0"/>
        <pt x="270" y="377" on="1"/>
        <pt x="267" y="377" on="0"/>
        <pt x="267" y="379" on="1"/>
        <pt x="267" y="382" on="1"/>
        <pt x="267" y="441" on="0"/>
        <pt x="215" y="662" on="0"/>
        <pt x="215" y="718" on="1"/>
        <pt x="215" y="736" on="1"/>
        <pt x="215" y="815" on="0"/>
        <pt x="186" y="815" on="1"/>
        <pt x="162" y="815" on="0"/>
        <pt x="162" y="784" on="1"/>
        <pt x="162" y="783" on="0"/>
        <pt x="163" y="775" on="0"/>
        <pt x="163" y="772" on="1"/>
        <pt x="163" y="768" on="0"/>
        <pt x="159" y="754" on="0"/>
        <pt x="159" y="748" on="1"/>
        <pt x="159" y="729" on="0"/>
        <pt x="126" y="691" on="0"/>
        <pt x="88" y="664" on="0"/>
        <pt x="55" y="620" on="0"/>
        <pt x="55" y="594" on="1"/>
        <pt x="55" y="543" on="0"/>
        <pt x="114" y="459" on="0"/>
        <pt x="161" y="459" on="1"/>
        <pt x="176" y="459" on="0"/>
        <pt x="203" y="486" on="0"/>
        <pt x="208" y="486" on="1"/>
        <pt x="214" y="486" on="0"/>
        <pt x="223" y="401" on="0"/>
        <pt x="223" y="382" on="1"/>
        <pt x="223" y="336" on="0"/>
        <pt x="186" y="254" on="0"/>
        <pt x="139" y="203" on="0"/>
        <pt x="85" y="131" on="0"/>
        <pt x="74" y="99" on="1"/>
        <pt x="71" y="90" on="0"/>
        <pt x="71" y="80" on="1"/>
        <pt x="71" y="47" on="0"/>
        <pt x="134" y="-20" on="0"/>
      </contour>
      <contour>
        <pt x="186" y="820" on="1"/>
        <pt x="220" y="820" on="0"/>
        <pt x="220" y="736" on="1"/>
        <pt x="220" y="718" on="1"/>
        <pt x="220" y="662" on="0"/>
        <pt x="272" y="444" on="0"/>
        <pt x="272" y="386" on="1"/>
        <pt x="278" y="393" on="0"/>
        <pt x="292" y="413" on="0"/>
        <pt x="294" y="415" on="1"/>
        <pt x="317" y="483" on="1"/>
        <pt x="322" y="501" on="0"/>
        <pt x="343" y="501" on="1"/>
        <pt x="354" y="501" on="0"/>
        <pt x="370" y="485" on="0"/>
        <pt x="370" y="474" on="1"/>
        <pt x="370" y="468" on="0"/>
        <pt x="369" y="465" on="1"/>
        <pt x="345" y="393" on="1"/>
        <pt x="342" y="384" on="0"/>
        <pt x="318" y="351" on="0"/>
        <pt x="279" y="305" on="0"/>
        <pt x="273" y="298" on="1"/>
        <pt x="274" y="227" on="0"/>
        <pt x="274" y="84" on="1"/>
        <pt x="274" y="41" on="0"/>
        <pt x="209" y="-25" on="0"/>
        <pt x="167" y="-25" on="1"/>
        <pt x="131" y="-25" on="0"/>
        <pt x="66" y="44" on="0"/>
        <pt x="66" y="80" on="1"/>
        <pt x="66" y="95" on="0"/>
        <pt x="79" y="129" on="0"/>
        <pt x="90" y="147" on="0"/>
        <pt x="120" y="186" on="0"/>
        <pt x="123" y="191" on="1"/>
        <pt x="164" y="249" on="0"/>
        <pt x="218" y="317" on="1"/>
        <pt x="218" y="382" on="1"/>
        <pt x="218" y="419" on="0"/>
        <pt x="207" y="478" on="1"/>
        <pt x="183" y="454" on="0"/>
        <pt x="161" y="454" on="1"/>
        <pt x="112" y="454" on="0"/>
        <pt x="50" y="541" on="0"/>
        <pt x="50" y="594" on="1"/>
        <pt x="50" y="620" on="0"/>
        <pt x="82" y="665" on="0"/>
        <pt x="122" y="692" on="0"/>
        <pt x="154" y="729" on="0"/>
        <pt x="154" y="748" on="1"/>
        <pt x="154" y="756" on="0"/>
        <pt x="157" y="776" on="0"/>
        <pt x="157" y="784" on="1"/>
        <pt x="157" y="820" on="0"/>
      </contour>
      <contour>
        <pt x="200" y="592" on="1"/>
        <pt x="200" y="562" on="0"/>
        <pt x="175" y="516" on="0"/>
        <pt x="137" y="516" on="0"/>
        <pt x="111" y="561" on="0"/>
        <pt x="111" y="623" on="0"/>
        <pt x="137" y="668" on="0"/>
        <pt x="175" y="668" on="0"/>
        <pt x="200" y="623" on="0"/>
      </contour>
      <contour>
        <pt x="156" y="520" on="1"/>
        <pt x="172" y="520" on="0"/>
        <pt x="195" y="564" on="0"/>
        <pt x="195" y="592" on="1"/>
        <pt x="195" y="622" on="0"/>
        <pt x="171" y="664" on="0"/>
        <pt x="141" y="664" on="0"/>
        <pt x="116" y="622" on="0"/>
        <pt x="116" y="562" on="0"/>
        <pt x="141" y="520" on="0"/>
      </contour>
    </TTGlyph>
    <TTGlyph name="J.0" xMin="0" yMin="-23" xMax="316" yMax="817">
      <contour>
        <pt x="218" y="299" on="1"/>
        <pt x="281" y="379" on="0"/>
        <pt x="287" y="388" on="1"/>
        <pt x="290" y="391" on="0"/>
        <pt x="291" y="394" on="1"/>
        <pt x="315" y="466" on="1"/>
        <pt x="316" y="470" on="0"/>
        <pt x="316" y="474" on="1"/>
        <pt x="316" y="484" on="0"/>
        <pt x="309" y="492" on="1"/>
        <pt x="301" y="499" on="0"/>
        <pt x="291" y="499" on="1"/>
        <pt x="273" y="499" on="0"/>
        <pt x="267" y="482" on="1"/>
        <pt x="244" y="414" on="1"/>
        <pt x="238" y="404" on="0"/>
        <pt x="218" y="379" on="1"/>
        <pt x="218" y="380" on="0"/>
        <pt x="218" y="381" on="1"/>
        <pt x="218" y="382" on="0"/>
        <pt x="218" y="382" on="1"/>
        <pt x="218" y="443" on="0"/>
        <pt x="191" y="555" on="1"/>
        <pt x="166" y="662" on="0"/>
        <pt x="166" y="717" on="1"/>
        <pt x="166" y="720" on="0"/>
        <pt x="166" y="727" on="1"/>
        <pt x="166" y="733" on="0"/>
        <pt x="166" y="736" on="1"/>
        <pt x="166" y="739" on="0"/>
        <pt x="165" y="742" on="1"/>
        <pt x="165" y="745" on="0"/>
        <pt x="164" y="754" on="1"/>
        <pt x="162" y="763" on="0"/>
        <pt x="161" y="775" on="1"/>
        <pt x="160" y="786" on="0"/>
        <pt x="159" y="790" on="1"/>
        <pt x="155" y="817" on="0"/>
        <pt x="133" y="817" on="1"/>
        <pt x="123" y="817" on="0"/>
        <pt x="115" y="810" on="1"/>
        <pt x="108" y="802" on="0"/>
        <pt x="108" y="786" on="1"/>
        <pt x="108" y="781" on="0"/>
        <pt x="108" y="772" on="1"/>
        <pt x="108" y="771" on="0"/>
        <pt x="107" y="768" on="1"/>
        <pt x="104" y="757" on="0"/>
        <pt x="104" y="748" on="1"/>
        <pt x="104" y="734" on="0"/>
        <pt x="82" y="712" on="1"/>
        <pt x="76" y="705" on="0"/>
        <pt x="61" y="692" on="1"/>
        <pt x="46" y="679" on="0"/>
        <pt x="39" y="672" on="1"/>
        <pt x="0" y="633" on="0"/>
        <pt x="0" y="594" on="1"/>
        <pt x="0" y="565" on="0"/>
        <pt x="14" y="532" on="1"/>
        <pt x="27" y="502" on="0"/>
        <pt x="46" y="483" on="1"/>
        <pt x="70" y="458" on="0"/>
        <pt x="100" y="457" on="1"/>
        <pt x="104" y="456" on="0"/>
        <pt x="109" y="456" on="1"/>
        <pt x="129" y="456" on="0"/>
        <pt x="151" y="478" on="1"/>
        <pt x="154" y="481" on="0"/>
        <pt x="156" y="483" on="1"/>
        <pt x="168" y="425" on="0"/>
        <pt x="168" y="382" on="1"/>
        <pt x="168" y="352" on="0"/>
        <pt x="168" y="316" on="1"/>
        <pt x="107" y="237" on="0"/>
        <pt x="73" y="189" on="1"/>
        <pt x="45" y="149" on="0"/>
        <pt x="31" y="123" on="1"/>
        <pt x="23" y="110" on="0"/>
        <pt x="20" y="100" on="1"/>
        <pt x="16" y="89" on="0"/>
        <pt x="16" y="80" on="1"/>
        <pt x="16" y="64" on="0"/>
        <pt x="26" y="46" on="1"/>
        <pt x="36" y="26" on="0"/>
        <pt x="54" y="9" on="1"/>
        <pt x="69" y="-6" on="0"/>
        <pt x="84" y="-14" on="1"/>
        <pt x="100" y="-23" on="0"/>
        <pt x="115" y="-23" on="1"/>
        <pt x="154" y="-23" on="0"/>
        <pt x="188" y="11" on="1"/>
        <pt x="214" y="38" on="0"/>
        <pt x="218" y="67" on="1"/>
        <pt x="218" y="69" on="0"/>
        <pt x="219" y="72" on="1"/>
        <pt x="219" y="75" on="0"/>
        <pt x="220" y="78" on="1"/>
        <pt x="220" y="80" on="0"/>
        <pt x="220" y="84" on="1"/>
        <pt x="220" y="103" on="0"/>
      </contour>
      <contour>
        <pt x="170" y="85" on="1"/>
        <pt x="168" y="75" on="0"/>
        <pt x="168" y="72" on="1"/>
        <pt x="166" y="60" on="0"/>
        <pt x="153" y="47" on="1"/>
        <pt x="133" y="27" on="0"/>
        <pt x="115" y="27" on="1"/>
        <pt x="112" y="27" on="0"/>
        <pt x="106" y="31" on="1"/>
        <pt x="84" y="44" on="0"/>
        <pt x="70" y="69" on="1"/>
        <pt x="67" y="76" on="0"/>
        <pt x="66" y="80" on="1"/>
        <pt x="68" y="86" on="1"/>
        <pt x="79" y="112" on="0"/>
        <pt x="127" y="178" on="1"/>
        <pt x="142" y="199" on="0"/>
        <pt x="169" y="235" on="1"/>
        <pt x="170" y="135" on="0"/>
      </contour>
      <contour>
        <pt x="117" y="676" on="1"/>
        <pt x="121" y="632" on="0"/>
        <pt x="145" y="533" on="1"/>
        <pt x="132" y="530" on="0"/>
        <pt x="116" y="514" on="1"/>
        <pt x="111" y="509" on="0"/>
        <pt x="108" y="507" on="1"/>
        <pt x="105" y="507" on="0"/>
        <pt x="103" y="507" on="1"/>
        <pt x="92" y="507" on="0"/>
        <pt x="81" y="518" on="1"/>
        <pt x="69" y="530" on="0"/>
        <pt x="60" y="551" on="1"/>
        <pt x="50" y="576" on="0"/>
        <pt x="50" y="594" on="1"/>
        <pt x="50" y="612" on="0"/>
        <pt x="74" y="636" on="1"/>
        <pt x="81" y="643" on="0"/>
        <pt x="96" y="656" on="1"/>
        <pt x="111" y="669" on="0"/>
      </contour>
    </TTGlyph>
    <TTGlyph name="J.1" xMin="70" yMin="-3" xMax="346" yMax="797">
      <contour>
        <pt x="153" y="487" on="1"/>
        <pt x="122" y="487" on="0"/>
        <pt x="101" y="525" on="1"/>
        <pt x="80" y="563" on="0"/>
        <pt x="80" y="594" on="1"/>
        <pt x="80" y="608" on="0"/>
        <pt x="89" y="623" on="1"/>
        <pt x="97" y="637" on="0"/>
        <pt x="106" y="646" on="1"/>
        <pt x="115" y="655" on="0"/>
        <pt x="132" y="671" on="1"/>
        <pt x="150" y="686" on="0"/>
        <pt x="158" y="695" on="1"/>
        <pt x="166" y="703" on="0"/>
        <pt x="175" y="718" on="1"/>
        <pt x="184" y="733" on="0"/>
        <pt x="184" y="748" on="1"/>
        <pt x="185" y="740" on="0"/>
        <pt x="186" y="736" on="1"/>
        <pt x="186" y="726" on="0"/>
        <pt x="186" y="717" on="1"/>
        <pt x="186" y="659" on="0"/>
        <pt x="212" y="549" on="1"/>
        <pt x="238" y="439" on="0"/>
        <pt x="238" y="382" on="1"/>
        <pt x="238" y="350" on="0"/>
        <pt x="238" y="309" on="1"/>
        <pt x="174" y="227" on="0"/>
        <pt x="139" y="178" on="1"/>
        <pt x="86" y="102" on="0"/>
        <pt x="86" y="80" on="1"/>
        <pt x="86" y="55" on="0"/>
        <pt x="119" y="22" on="1"/>
        <pt x="144" y="-3" on="0"/>
        <pt x="165" y="-3" on="1"/>
        <pt x="192" y="-3" on="0"/>
        <pt x="219" y="20" on="1"/>
        <pt x="245" y="43" on="0"/>
        <pt x="248" y="69" on="1"/>
        <pt x="248" y="70" on="0"/>
        <pt x="248" y="70" on="1"/>
        <pt x="248" y="72" on="0"/>
        <pt x="249" y="77" on="1"/>
        <pt x="250" y="81" on="0"/>
        <pt x="250" y="84" on="1"/>
        <pt x="250" y="92" on="0"/>
        <pt x="248" y="306" on="1"/>
        <pt x="316" y="392" on="0"/>
        <pt x="321" y="399" on="1"/>
        <pt x="322" y="400" on="0"/>
        <pt x="322" y="400" on="1"/>
        <pt x="346" y="472" on="1"/>
        <pt x="346" y="473" on="0"/>
        <pt x="346" y="474" on="1"/>
        <pt x="346" y="479" on="0"/>
        <pt x="341" y="479" on="1"/>
        <pt x="337" y="479" on="0"/>
        <pt x="336" y="476" on="1"/>
        <pt x="312" y="404" on="1"/>
        <pt x="306" y="395" on="0"/>
        <pt x="248" y="322" on="1"/>
        <pt x="248" y="355" on="0"/>
        <pt x="248" y="382" on="1"/>
        <pt x="248" y="440" on="0"/>
        <pt x="222" y="550" on="1"/>
        <pt x="196" y="660" on="0"/>
        <pt x="196" y="717" on="1"/>
        <pt x="196" y="720" on="0"/>
        <pt x="196" y="727" on="1"/>
        <pt x="196" y="733" on="0"/>
        <pt x="196" y="736" on="1"/>
        <pt x="196" y="737" on="0"/>
        <pt x="196" y="737" on="1"/>
        <pt x="195" y="741" on="0"/>
        <pt x="194" y="751" on="1"/>
        <pt x="192" y="760" on="0"/>
        <pt x="191" y="772" on="1"/>
        <pt x="190" y="783" on="0"/>
        <pt x="189" y="788" on="1"/>
        <pt x="188" y="797" on="0"/>
        <pt x="183" y="797" on="1"/>
        <pt x="178" y="797" on="0"/>
        <pt x="178" y="793" on="1"/>
        <pt x="178" y="792" on="0"/>
        <pt x="178" y="792" on="1"/>
        <pt x="178" y="791" on="0"/>
        <pt x="178" y="789" on="1"/>
        <pt x="178" y="787" on="0"/>
        <pt x="178" y="786" on="1"/>
        <pt x="178" y="781" on="0"/>
        <pt x="178" y="772" on="1"/>
        <pt x="178" y="768" on="0"/>
        <pt x="176" y="761" on="1"/>
        <pt x="174" y="753" on="0"/>
        <pt x="174" y="748" on="1"/>
        <pt x="174" y="736" on="0"/>
        <pt x="167" y="723" on="1"/>
        <pt x="159" y="710" on="0"/>
        <pt x="151" y="702" on="1"/>
        <pt x="142" y="693" on="0"/>
        <pt x="125" y="678" on="1"/>
        <pt x="107" y="662" on="0"/>
        <pt x="98" y="653" on="1"/>
        <pt x="89" y="644" on="0"/>
        <pt x="80" y="627" on="1"/>
        <pt x="70" y="610" on="0"/>
        <pt x="70" y="594" on="1"/>
        <pt x="70" y="559" on="0"/>
        <pt x="94" y="518" on="1"/>
        <pt x="117" y="477" on="0"/>
        <pt x="152" y="477" on="1"/>
        <pt x="155" y="476" on="0"/>
        <pt x="158" y="476" on="1"/>
        <pt x="171" y="476" on="0"/>
        <pt x="187" y="492" on="1"/>
        <pt x="200" y="505" on="0"/>
        <pt x="207" y="505" on="1"/>
        <pt x="212" y="505" on="0"/>
        <pt x="212" y="510" on="1"/>
        <pt x="212" y="515" on="0"/>
        <pt x="207" y="515" on="1"/>
        <pt x="196" y="515" on="0"/>
        <pt x="180" y="500" on="1"/>
        <pt x="166" y="486" on="0"/>
        <pt x="158" y="486" on="1"/>
        <pt x="158" y="486" on="0"/>
        <pt x="156" y="487" on="1"/>
        <pt x="154" y="487" on="0"/>
      </contour>
      <contour>
        <pt x="238" y="293" on="1"/>
        <pt x="240" y="110" on="0"/>
        <pt x="240" y="84" on="1"/>
        <pt x="240" y="82" on="0"/>
        <pt x="239" y="78" on="1"/>
        <pt x="238" y="73" on="0"/>
        <pt x="238" y="70" on="1"/>
        <pt x="235" y="49" on="0"/>
        <pt x="212" y="28" on="1"/>
        <pt x="188" y="7" on="0"/>
        <pt x="165" y="7" on="1"/>
        <pt x="149" y="7" on="0"/>
        <pt x="126" y="29" on="1"/>
        <pt x="96" y="59" on="0"/>
        <pt x="96" y="80" on="1"/>
        <pt x="96" y="99" on="0"/>
        <pt x="147" y="172" on="1"/>
        <pt x="180" y="218" on="0"/>
      </contour>
    </TTGlyph>
    <TTGlyph name="J.2" xMin="50" yMin="-23" xMax="366" yMax="817">
      <component glyphName="J.0" x="50" y="0" flags="0x4"/>
    </TTGlyph>
    <TTGlyph name="K" xMin="50" yMin="-31" xMax="846" yMax="803">
      <contour>
        <pt x="159" y="-31" on="1"/>
        <pt x="148" y="-31" on="0"/>
        <pt x="132" y="-15" on="0"/>
        <pt x="132" y="-4" on="1"/>
        <pt x="132" y="17" on="0"/>
        <pt x="158" y="75" on="0"/>
        <pt x="200" y="147" on="0"/>
        <pt x="205" y="157" on="1"/>
        <pt x="238" y="306" on="0"/>
        <pt x="238" y="523" on="1"/>
        <pt x="238" y="631" on="0"/>
        <pt x="228" y="736" on="1"/>
        <pt x="173" y="715" on="0"/>
        <pt x="125" y="715" on="1"/>
        <pt x="77" y="715" on="1"/>
        <pt x="66" y="715" on="0"/>
        <pt x="50" y="731" on="0"/>
        <pt x="50" y="753" on="0"/>
        <pt x="66" y="769" on="0"/>
        <pt x="77" y="769" on="1"/>
        <pt x="125" y="769" on="1"/>
        <pt x="165" y="769" on="0"/>
        <pt x="248" y="803" on="0"/>
        <pt x="251" y="803" on="1"/>
        <pt x="261" y="803" on="0"/>
        <pt x="277" y="781" on="0"/>
        <pt x="286" y="737" on="0"/>
        <pt x="292" y="694" on="0"/>
        <pt x="293" y="629" on="0"/>
        <pt x="294" y="590" on="0"/>
        <pt x="293" y="529" on="0"/>
        <pt x="293" y="523" on="1"/>
        <pt x="293" y="424" on="0"/>
        <pt x="283" y="309" on="1"/>
        <pt x="376" y="470" on="0"/>
        <pt x="495" y="558" on="1"/>
        <pt x="513" y="571" on="0"/>
        <pt x="585" y="664" on="0"/>
        <pt x="659" y="733" on="0"/>
        <pt x="693" y="733" on="1"/>
        <pt x="718" y="733" on="0"/>
        <pt x="740" y="653" on="0"/>
        <pt x="740" y="618" on="1"/>
        <pt x="740" y="544" on="0"/>
        <pt x="644" y="431" on="0"/>
        <pt x="508" y="379" on="0"/>
        <pt x="435" y="379" on="1"/>
        <pt x="420" y="379" on="1"/>
        <pt x="419" y="375" on="0"/>
        <pt x="419" y="366" on="1"/>
        <pt x="419" y="296" on="0"/>
        <pt x="537" y="148" on="0"/>
        <pt x="701" y="57" on="0"/>
        <pt x="769" y="57" on="1"/>
        <pt x="775" y="57" on="0"/>
        <pt x="786" y="86" on="0"/>
        <pt x="804" y="115" on="0"/>
        <pt x="819" y="115" on="1"/>
        <pt x="830" y="115" on="0"/>
        <pt x="846" y="99" on="0"/>
        <pt x="846" y="88" on="1"/>
        <pt x="846" y="62" on="0"/>
        <pt x="797" y="3" on="0"/>
        <pt x="769" y="3" on="1"/>
        <pt x="639" y="3" on="0"/>
        <pt x="387" y="216" on="0"/>
        <pt x="366" y="338" on="1"/>
        <pt x="320" y="268" on="0"/>
        <pt x="258" y="139" on="1"/>
        <pt x="218" y="-31" on="0"/>
      </contour>
      <contour>
        <pt x="251" y="798" on="1"/>
        <pt x="250" y="798" on="0"/>
        <pt x="166" y="764" on="0"/>
        <pt x="125" y="764" on="1"/>
        <pt x="77" y="764" on="1"/>
        <pt x="68" y="764" on="0"/>
        <pt x="55" y="751" on="0"/>
        <pt x="55" y="733" on="0"/>
        <pt x="68" y="720" on="0"/>
        <pt x="77" y="720" on="1"/>
        <pt x="125" y="720" on="1"/>
        <pt x="146" y="720" on="0"/>
        <pt x="216" y="742" on="0"/>
        <pt x="230" y="742" on="1"/>
        <pt x="243" y="742" on="0"/>
        <pt x="243" y="523" on="1"/>
        <pt x="243" y="521" on="0"/>
        <pt x="244" y="387" on="0"/>
        <pt x="242" y="344" on="0"/>
        <pt x="237" y="243" on="0"/>
        <pt x="222" y="180" on="0"/>
        <pt x="210" y="155" on="1"/>
        <pt x="204" y="143" on="0"/>
        <pt x="164" y="75" on="0"/>
        <pt x="137" y="16" on="0"/>
        <pt x="137" y="-4" on="1"/>
        <pt x="137" y="-13" on="0"/>
        <pt x="150" y="-26" on="0"/>
        <pt x="159" y="-26" on="1"/>
        <pt x="187" y="-26" on="0"/>
        <pt x="221" y="30" on="0"/>
        <pt x="247" y="128" on="0"/>
        <pt x="253" y="141" on="1"/>
        <pt x="255" y="146" on="0"/>
        <pt x="279" y="200" on="0"/>
        <pt x="304" y="253" on="0"/>
        <pt x="333" y="311" on="0"/>
        <pt x="359" y="347" on="0"/>
        <pt x="367" y="347" on="1"/>
        <pt x="368" y="347" on="0"/>
        <pt x="374" y="327" on="0"/>
        <pt x="380" y="303" on="0"/>
        <pt x="381" y="301" on="1"/>
        <pt x="420" y="192" on="0"/>
        <pt x="650" y="8" on="0"/>
        <pt x="769" y="8" on="1"/>
        <pt x="794" y="8" on="0"/>
        <pt x="841" y="64" on="0"/>
        <pt x="841" y="88" on="1"/>
        <pt x="841" y="97" on="0"/>
        <pt x="828" y="110" on="0"/>
        <pt x="819" y="110" on="1"/>
        <pt x="802" y="110" on="0"/>
        <pt x="778" y="52" on="0"/>
        <pt x="769" y="52" on="1"/>
        <pt x="718" y="52" on="0"/>
        <pt x="592" y="108" on="0"/>
        <pt x="486" y="196" on="0"/>
        <pt x="414" y="312" on="0"/>
        <pt x="414" y="366" on="1"/>
        <pt x="414" y="384" on="0"/>
        <pt x="418" y="384" on="1"/>
        <pt x="435" y="384" on="1"/>
        <pt x="507" y="384" on="0"/>
        <pt x="640" y="435" on="0"/>
        <pt x="735" y="545" on="0"/>
        <pt x="735" y="618" on="1"/>
        <pt x="735" y="650" on="0"/>
        <pt x="716" y="728" on="0"/>
        <pt x="693" y="728" on="1"/>
        <pt x="659" y="728" on="0"/>
        <pt x="585" y="658" on="0"/>
        <pt x="514" y="566" on="0"/>
        <pt x="498" y="554" on="1"/>
        <pt x="377" y="465" on="0"/>
        <pt x="282" y="296" on="1"/>
        <pt x="282" y="295" on="0"/>
        <pt x="280" y="295" on="1"/>
        <pt x="277" y="295" on="0"/>
        <pt x="277" y="297" on="1"/>
        <pt x="277" y="332" on="0"/>
        <pt x="288" y="484" on="0"/>
        <pt x="288" y="523" on="1"/>
        <pt x="288" y="527" on="0"/>
        <pt x="289" y="588" on="0"/>
        <pt x="288" y="625" on="0"/>
        <pt x="287" y="690" on="0"/>
        <pt x="281" y="732" on="0"/>
        <pt x="274" y="776" on="0"/>
        <pt x="260" y="798" on="0"/>
      </contour>
      <contour>
        <pt x="703" y="626" on="1"/>
        <pt x="703" y="546" on="0"/>
        <pt x="578" y="429" on="0"/>
        <pt x="502" y="429" on="1"/>
        <pt x="476" y="434" on="1"/>
        <pt x="464" y="436" on="1"/>
        <pt x="462" y="436" on="0"/>
        <pt x="462" y="438" on="1"/>
        <pt x="462" y="444" on="0"/>
        <pt x="497" y="488" on="0"/>
        <pt x="542" y="541" on="0"/>
        <pt x="549" y="551" on="1"/>
        <pt x="605" y="633" on="0"/>
        <pt x="628" y="653" on="1"/>
        <pt x="648" y="670" on="0"/>
        <pt x="665" y="670" on="1"/>
        <pt x="681" y="670" on="0"/>
        <pt x="703" y="645" on="0"/>
      </contour>
      <contour>
        <pt x="470" y="440" on="1"/>
        <pt x="472" y="440" on="0"/>
        <pt x="485" y="436" on="0"/>
        <pt x="498" y="434" on="0"/>
        <pt x="502" y="434" on="1"/>
        <pt x="577" y="434" on="0"/>
        <pt x="698" y="549" on="0"/>
        <pt x="698" y="626" on="1"/>
        <pt x="698" y="644" on="0"/>
        <pt x="679" y="665" on="0"/>
        <pt x="665" y="665" on="1"/>
        <pt x="640" y="665" on="0"/>
        <pt x="565" y="572" on="0"/>
        <pt x="486" y="455" on="0"/>
      </contour>
    </TTGlyph>
    <TTGlyph name="K.0" xMin="0" yMin="-29" xMax="792" yMax="801">
      <contour>
        <pt x="178" y="739" on="1"/>
        <pt x="188" y="641" on="0"/>
        <pt x="188" y="523" on="1"/>
        <pt x="188" y="302" on="0"/>
        <pt x="156" y="156" on="1"/>
        <pt x="91" y="20" on="0"/>
        <pt x="85" y="7" on="1"/>
        <pt x="82" y="2" on="0"/>
        <pt x="82" y="-4" on="1"/>
        <pt x="82" y="-14" on="0"/>
        <pt x="90" y="-21" on="1"/>
        <pt x="97" y="-29" on="0"/>
        <pt x="107" y="-29" on="1"/>
        <pt x="114" y="-29" on="0"/>
        <pt x="121" y="-25" on="1"/>
        <pt x="129" y="-20" on="0"/>
        <pt x="137" y="-12" on="1"/>
        <pt x="178" y="29" on="0"/>
        <pt x="203" y="139" on="1"/>
        <pt x="266" y="270" on="0"/>
        <pt x="315" y="345" on="1"/>
        <pt x="318" y="324" on="0"/>
        <pt x="327" y="300" on="1"/>
        <pt x="356" y="220" on="0"/>
        <pt x="433" y="142" on="1"/>
        <pt x="494" y="81" on="0"/>
        <pt x="568" y="43" on="1"/>
        <pt x="642" y="5" on="0"/>
        <pt x="717" y="5" on="1"/>
        <pt x="741" y="5" on="0"/>
        <pt x="757" y="21" on="1"/>
        <pt x="767" y="31" on="0"/>
        <pt x="777" y="55" on="1"/>
        <pt x="782" y="68" on="0"/>
        <pt x="784" y="70" on="1"/>
        <pt x="792" y="77" on="0"/>
        <pt x="792" y="88" on="1"/>
        <pt x="792" y="98" on="0"/>
        <pt x="785" y="106" on="1"/>
        <pt x="777" y="113" on="0"/>
        <pt x="767" y="113" on="1"/>
        <pt x="747" y="113" on="0"/>
        <pt x="731" y="74" on="1"/>
        <pt x="725" y="60" on="0"/>
        <pt x="721" y="56" on="1"/>
        <pt x="720" y="55" on="0"/>
        <pt x="717" y="55" on="1"/>
        <pt x="655" y="55" on="0"/>
        <pt x="589" y="89" on="1"/>
        <pt x="523" y="123" on="0"/>
        <pt x="469" y="177" on="1"/>
        <pt x="399" y="247" on="0"/>
        <pt x="374" y="317" on="1"/>
        <pt x="364" y="344" on="0"/>
        <pt x="364" y="366" on="1"/>
        <pt x="364" y="374" on="0"/>
        <pt x="366" y="382" on="1"/>
        <pt x="374" y="381" on="0"/>
        <pt x="383" y="381" on="1"/>
        <pt x="450" y="381" on="0"/>
        <pt x="515" y="405" on="1"/>
        <pt x="579" y="429" on="0"/>
        <pt x="624" y="473" on="1"/>
        <pt x="664" y="514" on="0"/>
        <pt x="679" y="566" on="1"/>
        <pt x="686" y="591" on="0"/>
        <pt x="686" y="618" on="1"/>
        <pt x="686" y="666" on="0"/>
        <pt x="664" y="716" on="1"/>
        <pt x="657" y="731" on="0"/>
        <pt x="641" y="731" on="1"/>
        <pt x="632" y="731" on="0"/>
        <pt x="622" y="726" on="1"/>
        <pt x="613" y="722" on="0"/>
        <pt x="603" y="714" on="1"/>
        <pt x="585" y="701" on="0"/>
        <pt x="557" y="674" on="1"/>
        <pt x="538" y="654" on="0"/>
        <pt x="498" y="612" on="1"/>
        <pt x="469" y="580" on="0"/>
        <pt x="458" y="569" on="1"/>
        <pt x="448" y="559" on="0"/>
        <pt x="444" y="556" on="1"/>
        <pt x="406" y="528" on="0"/>
        <pt x="372" y="494" on="1"/>
        <pt x="295" y="417" on="0"/>
        <pt x="228" y="297" on="1"/>
        <pt x="238" y="404" on="0"/>
        <pt x="238" y="523" on="1"/>
        <pt x="238" y="667" on="0"/>
        <pt x="224" y="779" on="1"/>
        <pt x="223" y="788" on="0"/>
        <pt x="216" y="795" on="1"/>
        <pt x="208" y="801" on="0"/>
        <pt x="199" y="801" on="1"/>
        <pt x="193" y="801" on="0"/>
        <pt x="187" y="798" on="1"/>
        <pt x="171" y="790" on="1"/>
        <pt x="154" y="783" on="0"/>
        <pt x="126" y="775" on="1"/>
        <pt x="97" y="767" on="0"/>
        <pt x="73" y="767" on="1"/>
        <pt x="25" y="767" on="1"/>
        <pt x="15" y="767" on="0"/>
        <pt x="8" y="760" on="1"/>
        <pt x="0" y="752" on="0"/>
        <pt x="0" y="742" on="1"/>
        <pt x="0" y="732" on="0"/>
        <pt x="8" y="725" on="1"/>
        <pt x="15" y="717" on="0"/>
        <pt x="25" y="717" on="1"/>
        <pt x="73" y="717" on="1"/>
        <pt x="121" y="717" on="0"/>
      </contour>
      <contour>
        <pt x="636" y="618" on="1"/>
        <pt x="636" y="598" on="0"/>
        <pt x="630" y="579" on="1"/>
        <pt x="612" y="512" on="0"/>
        <pt x="539" y="472" on="1"/>
        <pt x="465" y="431" on="0"/>
        <pt x="382" y="431" on="1"/>
        <pt x="425" y="480" on="0"/>
        <pt x="474" y="516" on="1"/>
        <pt x="481" y="521" on="0"/>
        <pt x="493" y="533" on="1"/>
        <pt x="508" y="548" on="0"/>
        <pt x="543" y="585" on="1"/>
        <pt x="577" y="622" on="0"/>
        <pt x="593" y="638" on="1"/>
        <pt x="614" y="659" on="0"/>
        <pt x="628" y="670" on="1"/>
        <pt x="636" y="643" on="0"/>
      </contour>
    </TTGlyph>
    <TTGlyph name="K.1" xMin="70" yMin="-9" xMax="822" yMax="781">
      <contour>
        <pt x="75" y="737" on="1"/>
        <pt x="123" y="737" on="1"/>
        <pt x="180" y="737" on="0"/>
        <pt x="245" y="768" on="1"/>
        <pt x="258" y="660" on="0"/>
        <pt x="258" y="523" on="1"/>
        <pt x="258" y="298" on="0"/>
        <pt x="225" y="149" on="1"/>
        <pt x="156" y="6" on="0"/>
        <pt x="153" y="-2" on="1"/>
        <pt x="152" y="-3" on="0"/>
        <pt x="152" y="-4" on="1"/>
        <pt x="152" y="-9" on="0"/>
        <pt x="157" y="-9" on="1"/>
        <pt x="158" y="-9" on="0"/>
        <pt x="160" y="-8" on="1"/>
        <pt x="206" y="22" on="0"/>
        <pt x="234" y="146" on="1"/>
        <pt x="265" y="210" on="0"/>
        <pt x="290" y="256" on="1"/>
        <pt x="314" y="302" on="0"/>
        <pt x="349" y="356" on="1"/>
        <pt x="383" y="409" on="0"/>
        <pt x="424" y="453" on="1"/>
        <pt x="465" y="497" on="0"/>
        <pt x="512" y="532" on="1"/>
        <pt x="523" y="540" on="0"/>
        <pt x="570" y="591" on="1"/>
        <pt x="625" y="650" on="0"/>
        <pt x="649" y="672" on="1"/>
        <pt x="675" y="696" on="0"/>
        <pt x="688" y="700" on="1"/>
        <pt x="706" y="658" on="0"/>
        <pt x="706" y="618" on="1"/>
        <pt x="706" y="556" on="0"/>
        <pt x="664" y="508" on="1"/>
        <pt x="622" y="459" on="0"/>
        <pt x="561" y="435" on="1"/>
        <pt x="499" y="411" on="0"/>
        <pt x="433" y="411" on="1"/>
        <pt x="416" y="411" on="0"/>
        <pt x="400" y="413" on="1"/>
        <pt x="399" y="413" on="0"/>
        <pt x="399" y="413" on="1"/>
        <pt x="396" y="413" on="0"/>
        <pt x="395" y="410" on="1"/>
        <pt x="384" y="391" on="0"/>
        <pt x="384" y="366" on="1"/>
        <pt x="384" y="319" on="0"/>
        <pt x="418" y="260" on="1"/>
        <pt x="452" y="200" on="0"/>
        <pt x="505" y="148" on="1"/>
        <pt x="557" y="96" on="0"/>
        <pt x="629" y="61" on="1"/>
        <pt x="700" y="25" on="0"/>
        <pt x="767" y="25" on="1"/>
        <pt x="779" y="25" on="0"/>
        <pt x="788" y="32" on="1"/>
        <pt x="797" y="39" on="0"/>
        <pt x="801" y="45" on="1"/>
        <pt x="804" y="51" on="0"/>
        <pt x="808" y="63" on="1"/>
        <pt x="815" y="79" on="0"/>
        <pt x="820" y="84" on="1"/>
        <pt x="822" y="86" on="0"/>
        <pt x="822" y="88" on="1"/>
        <pt x="822" y="93" on="0"/>
        <pt x="817" y="93" on="1"/>
        <pt x="815" y="93" on="0"/>
        <pt x="814" y="92" on="1"/>
        <pt x="807" y="85" on="0"/>
        <pt x="799" y="66" on="1"/>
        <pt x="792" y="50" on="0"/>
        <pt x="786" y="43" on="1"/>
        <pt x="780" y="35" on="0"/>
        <pt x="767" y="35" on="1"/>
        <pt x="702" y="35" on="0"/>
        <pt x="633" y="70" on="1"/>
        <pt x="563" y="105" on="0"/>
        <pt x="512" y="156" on="1"/>
        <pt x="461" y="206" on="0"/>
        <pt x="428" y="264" on="1"/>
        <pt x="394" y="321" on="0"/>
        <pt x="394" y="366" on="1"/>
        <pt x="394" y="387" on="0"/>
        <pt x="402" y="403" on="1"/>
        <pt x="417" y="401" on="0"/>
        <pt x="433" y="401" on="1"/>
        <pt x="501" y="401" on="0"/>
        <pt x="565" y="426" on="1"/>
        <pt x="628" y="451" on="0"/>
        <pt x="672" y="502" on="1"/>
        <pt x="716" y="552" on="0"/>
        <pt x="716" y="618" on="1"/>
        <pt x="716" y="661" on="0"/>
        <pt x="696" y="708" on="1"/>
        <pt x="694" y="711" on="0"/>
        <pt x="691" y="711" on="1"/>
        <pt x="677" y="711" on="0"/>
        <pt x="642" y="680" on="1"/>
        <pt x="618" y="657" on="0"/>
        <pt x="563" y="598" on="1"/>
        <pt x="516" y="548" on="0"/>
        <pt x="506" y="540" on="1"/>
        <pt x="422" y="478" on="0"/>
        <pt x="362" y="392" on="1"/>
        <pt x="301" y="305" on="0"/>
        <pt x="242" y="186" on="1"/>
        <pt x="268" y="328" on="0"/>
        <pt x="268" y="523" on="1"/>
        <pt x="268" y="666" on="0"/>
        <pt x="254" y="777" on="1"/>
        <pt x="253" y="781" on="0"/>
        <pt x="249" y="781" on="1"/>
        <pt x="248" y="781" on="0"/>
        <pt x="247" y="780" on="1"/>
        <pt x="229" y="772" on="1"/>
        <pt x="212" y="764" on="0"/>
        <pt x="181" y="756" on="1"/>
        <pt x="150" y="747" on="0"/>
        <pt x="123" y="747" on="1"/>
        <pt x="75" y="747" on="1"/>
        <pt x="70" y="747" on="0"/>
        <pt x="70" y="742" on="1"/>
        <pt x="70" y="737" on="0"/>
      </contour>
      <contour>
        <pt x="174" y="19" on="1"/>
        <pt x="186" y="45" on="0"/>
        <pt x="210" y="95" on="1"/>
        <pt x="194" y="45" on="0"/>
      </contour>
    </TTGlyph>
    <TTGlyph name="K.2" xMin="50" yMin="-29" xMax="842" yMax="801">
      <component glyphName="K.0" x="50" y="0" flags="0x4"/>
    </TTGlyph>
</ttFont>
